<?xml version="1.0" encoding="UTF-8" standalone="no"?>
<svg
   xmlns:dc="http://purl.org/dc/elements/1.1/"
   xmlns:cc="http://creativecommons.org/ns#"
   xmlns:rdf="http://www.w3.org/1999/02/22-rdf-syntax-ns#"
   xmlns:svg="http://www.w3.org/2000/svg"
   xmlns="http://www.w3.org/2000/svg"
   viewBox="0 0 641.92133 404.48268"
   height="404.48267"
   width="641.92133"
   xml:space="preserve"
   id="svg2"
   version="1.1"><metadata
     id="metadata8"><rdf:RDF><cc:Work
         rdf:about=""><dc:format>image/svg+xml</dc:format><dc:type
           rdf:resource="http://purl.org/dc/dcmitype/StillImage" /><dc:title></dc:title></cc:Work></rdf:RDF></metadata><defs
     id="defs6"><clipPath
       id="clipPath20"
       clipPathUnits="userSpaceOnUse"><path
         id="path18"
         d="M 0.156,0 H 595 V 841 H 0.156 Z" /></clipPath><clipPath
       id="clipPath712"
       clipPathUnits="userSpaceOnUse"><path
         id="path710"
         d="M 97,381 H 303 V 585 H 97 Z" /></clipPath><clipPath
       id="clipPath718"
       clipPathUnits="userSpaceOnUse"><path
         id="path716"
         d="M 110.504,688.602 565.297,233.809 484.773,153.285 29.98,608.078 Z" /></clipPath><clipPath
       id="clipPath730"
       clipPathUnits="userSpaceOnUse"><path
         id="path728"
         d="M 287,223 H 462 V 394 H 287 Z" /></clipPath><clipPath
       id="clipPath736"
       clipPathUnits="userSpaceOnUse"><path
         id="path734"
         d="M 110.504,688.602 565.297,233.809 484.773,153.285 29.98,608.078 Z" /></clipPath><clipPath
       id="clipPath748"
       clipPathUnits="userSpaceOnUse"><path
         id="path746"
         d="M 80,506 H 256 V 681 H 80 Z" /></clipPath><clipPath
       id="clipPath754"
       clipPathUnits="userSpaceOnUse"><path
         id="path752"
         d="M 110.504,688.602 565.297,233.809 484.773,153.285 29.98,608.078 Z" /></clipPath><clipPath
       id="clipPath766"
       clipPathUnits="userSpaceOnUse"><path
         id="path764"
         d="m 241,451 h 70 v 69 h -70 z" /></clipPath><clipPath
       id="clipPath772"
       clipPathUnits="userSpaceOnUse"><path
         id="path770"
         d="M 110.504,688.602 565.297,233.809 484.773,153.285 29.98,608.078 Z" /></clipPath><clipPath
       id="clipPath784"
       clipPathUnits="userSpaceOnUse"><path
         id="path782"
         d="M 298,348 H 415 V 463 H 298 Z" /></clipPath><clipPath
       id="clipPath790"
       clipPathUnits="userSpaceOnUse"><path
         id="path788"
         d="M 110.504,688.602 565.297,233.809 484.773,153.285 29.98,608.078 Z" /></clipPath><clipPath
       id="clipPath802"
       clipPathUnits="userSpaceOnUse"><path
         id="path800"
         d="M 402,204 H 557 V 360 H 402 Z" /></clipPath><clipPath
       id="clipPath808"
       clipPathUnits="userSpaceOnUse"><path
         id="path806"
         d="M 110.504,688.602 565.297,233.809 484.773,153.285 29.98,608.078 Z" /></clipPath></defs><g
     transform="matrix(1.3333333,0,0,1.3333333,-75.729331,-496.29732)"
     id="g10"><g
       id="g12" /><text
       y="379.90488"
       x="62.557796"
       id="text118"
       style="font-variant:normal;font-weight:normal;font-size:7.92000008px;font-family:TimesNewRomanPSMT;-inkscape-font-specification:TimesNewRomanPSMT;writing-mode:lr-tb;fill:#000000;fill-opacity:1;fill-rule:nonzero;stroke:none"><tspan
         id="tspan116"
         y="379.90488"
         x="62.557796 67.832512 71.420273 74.057632 77.415718 80.290672 83.648758 87.727554 91.323235 94.918915 140.27676 147.23843 151.31723 155.39604 158.7462 160.90044 163.06259 166.90379 170.49948 172.65372 176.47908 211.04196 213.67932 217.52052 221.59932 225.19501 229.2738 296.07779 301.83563 304.47299 308.31418 312.39297 316.4718 320.31299 322.46722 324.62939 326.78363 330.86243 334.94122 338.53693 352.93549 357.25186 359.88925 363.97595 366.13019 369.71796 373.07605 375.46786 377.62213 381.70093 385.54211 387.70428 391.78308 395.62427 398.26163 400.65347 404.00363 408.08243 411.92365 414.80652 417.68149 420.56436 494.5578 499.83252 503.42029 506.54074 509.89093 512.04517 514.43695 518.52368 522.11145">Reference Model data Index Drought type Projection horizon(s) Baseline </tspan></text>
<path
       id="path120"
       style="fill:#000000;fill-opacity:1;fill-rule:nonzero;stroke:none"
       d="m 56.797,372.223 h 0.48 v 0.48 h -0.48 z" /><path
       id="path122"
       style="fill:#000000;fill-opacity:1;fill-rule:nonzero;stroke:none"
       d="m 56.797,372.223 h 0.48 v 0.48 h -0.48 z" /><path
       id="path124"
       style="fill:#000000;fill-opacity:1;fill-rule:nonzero;stroke:none"
       d="m 57.277,372.223 h 77.281 v 0.48 H 57.277 Z" /><path
       id="path126"
       style="fill:#000000;fill-opacity:1;fill-rule:nonzero;stroke:none"
       d="m 134.559,372.223 h 0.48 v 0.48 h -0.48 z" /><path
       id="path128"
       style="fill:#000000;fill-opacity:1;fill-rule:nonzero;stroke:none"
       d="m 135.039,372.223 h 70.32 v 0.48 h -70.32 z" /><path
       id="path130"
       style="fill:#000000;fill-opacity:1;fill-rule:nonzero;stroke:none"
       d="m 205.359,372.223 h 0.477 v 0.48 h -0.477 z" /><path
       id="path132"
       style="fill:#000000;fill-opacity:1;fill-rule:nonzero;stroke:none"
       d="m 205.836,372.223 h 84.723 v 0.48 h -84.723 z" /><path
       id="path134"
       style="fill:#000000;fill-opacity:1;fill-rule:nonzero;stroke:none"
       d="m 290.559,372.223 h 0.48 v 0.48 h -0.48 z" /><path
       id="path136"
       style="fill:#000000;fill-opacity:1;fill-rule:nonzero;stroke:none"
       d="m 291.039,372.223 h 56.16 v 0.48 h -56.16 z" /><path
       id="path138"
       style="fill:#000000;fill-opacity:1;fill-rule:nonzero;stroke:none"
       d="m 347.199,372.223 h 0.48 v 0.48 h -0.48 z" /><path
       id="path140"
       style="fill:#000000;fill-opacity:1;fill-rule:nonzero;stroke:none"
       d="m 347.68,372.223 h 141.117 v 0.48 H 347.68 Z" /><path
       id="path142"
       style="fill:#000000;fill-opacity:1;fill-rule:nonzero;stroke:none"
       d="m 488.797,372.223 h 0.48 v 0.48 h -0.48 z" /><path
       id="path144"
       style="fill:#000000;fill-opacity:1;fill-rule:nonzero;stroke:none"
       d="m 489.277,372.223 h 48.48 v 0.48 h -48.48 z" /><path
       id="path146"
       style="fill:#000000;fill-opacity:1;fill-rule:nonzero;stroke:none"
       d="m 537.758,372.223 h 0.48 v 0.48 h -0.48 z" /><path
       id="path148"
       style="fill:#000000;fill-opacity:1;fill-rule:nonzero;stroke:none"
       d="m 537.758,372.223 h 0.48 v 0.48 h -0.48 z" /><path
       id="path150"
       style="fill:#000000;fill-opacity:1;fill-rule:nonzero;stroke:none"
       d="m 56.797,372.703 h 0.48 v 9.84 h -0.48 z" /><path
       id="path152"
       style="fill:#000000;fill-opacity:1;fill-rule:nonzero;stroke:none"
       d="m 134.559,372.703 h 0.48 v 9.84 h -0.48 z" /><path
       id="path154"
       style="fill:#000000;fill-opacity:1;fill-rule:nonzero;stroke:none"
       d="m 205.359,372.703 h 0.477 v 9.84 h -0.477 z" /><path
       id="path156"
       style="fill:#000000;fill-opacity:1;fill-rule:nonzero;stroke:none"
       d="m 290.559,372.703 h 0.48 v 9.84 h -0.48 z" /><path
       id="path158"
       style="fill:#000000;fill-opacity:1;fill-rule:nonzero;stroke:none"
       d="m 347.199,372.703 h 0.48 v 9.84 h -0.48 z" /><path
       id="path160"
       style="fill:#000000;fill-opacity:1;fill-rule:nonzero;stroke:none"
       d="m 488.797,372.703 h 0.48 v 9.84 h -0.48 z" /><path
       id="path162"
       style="fill:#000000;fill-opacity:1;fill-rule:nonzero;stroke:none"
       d="m 537.758,372.703 h 0.48 v 9.84 h -0.48 z" /><text
       y="390.22488"
       x="62.557796"
       id="text174"
       style="font-variant:normal;font-weight:normal;font-size:7.92000008px;font-family:TimesNewRomanPSMT;-inkscape-font-specification:TimesNewRomanPSMT;writing-mode:lr-tb;fill:#000000;fill-opacity:1;fill-rule:nonzero;stroke:none"><tspan
         id="tspan164"
         y="390.22488"
         x="62.557796 67.832512 71.673714 75.261475 79.340279 81.494514 85.090195 87.727554 89.644196 93.722992 97.801796 99.718437 104.03484 108.11363 112.19244 116.03364 118.42548 120.35004">Chapter 11 Suppl. </tspan><tspan
         id="tspan166"
         y="400.30487"
         x="62.557796 69.519478 73.107239 75.261475 78.857155 81.494514 83.656677 87.244438 89.398674 91.315315 93.952675 98.039398 102.11819 104.28036 108.59676 115.55843 118.4334">Material (11.SM) </tspan><tspan
         id="tspan168"
         y="390.22488"
         x="140.31779 145.59251 152.5542 155.19156 159.50797 163.82436 211.10677 216.38148 222.13933 227.89716 229.8138 231.97597 236.29236 240.13356 242.53333 244.67964 246.8418 253.08276 256.92395 259.3158 262.19077 264.345 268.4238 271.30667 274.65683">CMIP6 CDD, Soil moisture </tspan><tspan
         id="tspan170"
         y="400.30487"
         x="211.1178 213.75516 215.90941 219.7506 221.90485 225.50052 227.89236 229.81693 231.97908 234.85405 238.93285 241.81572 244.21548 247.81116 251.40685 254.757 257.63196">(total, surface) </tspan><tspan
         id="tspan172"
         y="390.22488"
         x="296.07779 303.03949 307.83109 312.86029 352.94339 357.02222 358.94678 363.02557 365.90051 371.41284 373.3295 375.24612 379.57043 382.4454 387.72012 389.87436 391.79102 396.11533 398.9903 404.49469 494.5578 498.6366 502.71539 506.79419 510.88092 513.28064 517.3595 521.43829 525.27948 529.12067">MET 1.5°C, 2°C, 4°C 1850-1900 </tspan></text>
<path
       id="path176"
       style="fill:#000000;fill-opacity:1;fill-rule:nonzero;stroke:none"
       d="m 56.797,382.543 h 0.48 v 0.48 h -0.48 z" /><path
       id="path178"
       style="fill:#000000;fill-opacity:1;fill-rule:nonzero;stroke:none"
       d="m 57.277,382.543 h 77.281 v 0.48 H 57.277 Z" /><path
       id="path180"
       style="fill:#000000;fill-opacity:1;fill-rule:nonzero;stroke:none"
       d="m 134.559,382.543 h 0.48 v 0.48 h -0.48 z" /><path
       id="path182"
       style="fill:#000000;fill-opacity:1;fill-rule:nonzero;stroke:none"
       d="m 135.039,382.543 h 70.32 v 0.48 h -70.32 z" /><path
       id="path184"
       style="fill:#000000;fill-opacity:1;fill-rule:nonzero;stroke:none"
       d="m 205.359,382.543 h 0.477 v 0.48 h -0.477 z" /><path
       id="path186"
       style="fill:#000000;fill-opacity:1;fill-rule:nonzero;stroke:none"
       d="m 205.836,382.543 h 84.723 v 0.48 h -84.723 z" /><path
       id="path188"
       style="fill:#000000;fill-opacity:1;fill-rule:nonzero;stroke:none"
       d="m 290.559,382.543 h 0.48 v 0.48 h -0.48 z" /><path
       id="path190"
       style="fill:#000000;fill-opacity:1;fill-rule:nonzero;stroke:none"
       d="m 291.039,382.543 h 56.16 v 0.48 h -56.16 z" /><path
       id="path192"
       style="fill:#000000;fill-opacity:1;fill-rule:nonzero;stroke:none"
       d="m 347.199,382.543 h 0.48 v 0.48 h -0.48 z" /><path
       id="path194"
       style="fill:#000000;fill-opacity:1;fill-rule:nonzero;stroke:none"
       d="m 347.68,382.543 h 141.117 v 0.48 H 347.68 Z" /><path
       id="path196"
       style="fill:#000000;fill-opacity:1;fill-rule:nonzero;stroke:none"
       d="m 488.797,382.543 h 0.48 v 0.48 h -0.48 z" /><path
       id="path198"
       style="fill:#000000;fill-opacity:1;fill-rule:nonzero;stroke:none"
       d="m 489.277,382.543 h 48.48 v 0.48 h -48.48 z" /><path
       id="path200"
       style="fill:#000000;fill-opacity:1;fill-rule:nonzero;stroke:none"
       d="m 537.758,382.543 h 0.48 v 0.48 h -0.48 z" /><path
       id="path202"
       style="fill:#000000;fill-opacity:1;fill-rule:nonzero;stroke:none"
       d="m 56.797,383.023 h 0.48 v 19.922 h -0.48 z" /><path
       id="path204"
       style="fill:#000000;fill-opacity:1;fill-rule:nonzero;stroke:none"
       d="m 134.559,383.023 h 0.48 v 19.922 h -0.48 z" /><path
       id="path206"
       style="fill:#000000;fill-opacity:1;fill-rule:nonzero;stroke:none"
       d="m 205.359,383.023 h 0.477 v 19.922 h -0.477 z" /><path
       id="path208"
       style="fill:#000000;fill-opacity:1;fill-rule:nonzero;stroke:none"
       d="m 290.559,383.023 h 0.48 v 19.922 h -0.48 z" /><path
       id="path210"
       style="fill:#000000;fill-opacity:1;fill-rule:nonzero;stroke:none"
       d="m 347.199,383.023 h 0.48 v 19.922 h -0.48 z" /><path
       id="path212"
       style="fill:#000000;fill-opacity:1;fill-rule:nonzero;stroke:none"
       d="m 488.797,383.023 h 0.48 v 19.922 h -0.48 z" /><path
       id="path214"
       style="fill:#000000;fill-opacity:1;fill-rule:nonzero;stroke:none"
       d="m 537.758,383.023 h 0.48 v 19.922 h -0.48 z" /><text
       y="410.62488"
       x="62.557796"
       id="text236"
       style="font-variant:normal;font-weight:normal;font-size:7.92000008px;font-family:TimesNewRomanPSMT;-inkscape-font-specification:TimesNewRomanPSMT;writing-mode:lr-tb;fill:#000000;fill-opacity:1;fill-rule:nonzero;stroke:none"><tspan
         id="tspan216"
         y="410.62488"
         x="62.557796 67.832512 71.911316 75.752518 79.831314 81.747955 85.335716 87.489952 89.406593 93.002274 95.156517 97.318672 99.235313 101.87267 105.95148 110.03027 114.10908 118.18787 120.82523 140.28468 145.5594 152.51315 155.15051 159.47484 163.79123 211.07364 215.39005 219.23125 221.62308 223.77731 225.93948 232.17252 236.01372 238.40556 241.28052 243.43475 247.52148 250.39644 253.75452 255.67116 258.3085 260.70035 264.54156 266.6958 270.29147 272.68332 274.59995">Cook et al. (2020) CMIP6 Soil moisture (total, </tspan><tspan
         id="tspan218"
         y="420.70486"
         x="211.1178 213.99277 218.07948 220.95444 223.3542 226.94987 230.54556 233.89572 236.77859 238.69524 240.61188 245.8866 250.21092 254.0442 258.13092 260.76828 263.40564 265.32227 267.95963 270.35147 274.19269 276.33899 279.93466 282.08893 284.25107">surface), Runoff (total, </tspan><tspan
         id="tspan220"
         y="430.5415"
         x="211.1178 213.99277 218.07948 220.95444 223.3542 226.94987 230.54556 233.89572 236.77068">surface) </tspan><tspan
         id="tspan222"
         y="410.62488"
         x="296.07779 301.59802 307.35587 312.86819 315.02243 319.81406 325.08878 331.0842 335.87579 337.80035">AGR/ECOL, </tspan><tspan
         id="tspan224"
         y="420.70486"
         x="296.07779 301.83563 307.59348 313.34338 318.61813">HYDR </tspan><tspan
         id="tspan226"
         y="410.62488"
         x="352.95779 357.03659 361.11542 365.19421 369.28091 371.68069 375.75949 379.83829 383.67947 387.75827 389.67493 391.59155 395.90796 400.46988 404.78629 408.87302 411.27277 415.35156 417.27612 421.35492 423.51709 426.15445 430.47086 434.79517 437.6622 442.93692 444.86148 447.02365 452.29837 457.80276 460.20251 465.71484 469.79364 473.63486">2071-2011, SSP1-2.6 (~2°C, CC-Box </tspan><tspan
         id="tspan228"
         y="420.70486"
         x="352.95779 357.03659 361.11542 363.03998 367.11877 369.27301 371.18964 376.46436 380.29764 383.89331 387.97214 390.12637 393.48444 396.35941 398.27603 402.35483 404.27939 406.19604 411.22525 414.82092 418.66211 421.05396 424.40411 426.32077 430.39957 432.32413 436.40292 439.29373">11.1; Chapter 4, Table 4.2) </tspan><tspan
         id="tspan230"
         y="430.54489"
         x="352.95779 357.03659 361.11542 365.19421 369.27301 371.68069 375.75949 379.83829 383.67947 387.75827 389.67493 391.59155 395.91589 400.46988 404.78629 408.86508 411.28067 415.59708 417.99686 422.07565 423.99228 426.62964 430.94604 435.26245 438.38293 443.65765 445.57428 447.49094 453.00323 458.52347 460.92325 466.43558 470.27676 474.35556">2071-2011, SSP3-7-3 (~4°C, CC-Box </tspan><tspan
         id="tspan232"
         y="440.38153"
         x="352.95779 357.03659 361.11542 363.03204 367.11084 369.26508 371.18173 376.45645 380.29764 383.89331 387.97214 390.11844 393.47653 396.35147 398.26813 402.34692 404.27148 406.18811 411.21732 414.81299 418.65421 421.04605 424.40411 426.32077 430.39957 432.31619 436.39499 439.29373">11.1; Chapter 4, Table 4.2) </tspan><tspan
         id="tspan234"
         y="410.62488"
         x="494.5578 498.6366 502.71539 506.79419 510.88092 513.28064 517.3595 521.43829 525.27948 529.12067">1850-1900 </tspan></text>
<path
       id="path238"
       style="fill:#000000;fill-opacity:1;fill-rule:nonzero;stroke:none"
       d="m 56.797,402.945 h 0.48 v 0.48 h -0.48 z" /><path
       id="path240"
       style="fill:#000000;fill-opacity:1;fill-rule:nonzero;stroke:none"
       d="m 57.277,402.945 h 77.281 v 0.48 H 57.277 Z" /><path
       id="path242"
       style="fill:#000000;fill-opacity:1;fill-rule:nonzero;stroke:none"
       d="m 134.559,402.945 h 0.48 v 0.48 h -0.48 z" /><path
       id="path244"
       style="fill:#000000;fill-opacity:1;fill-rule:nonzero;stroke:none"
       d="m 135.039,402.945 h 70.32 v 0.48 h -70.32 z" /><path
       id="path246"
       style="fill:#000000;fill-opacity:1;fill-rule:nonzero;stroke:none"
       d="m 205.359,402.945 h 0.477 v 0.48 h -0.477 z" /><path
       id="path248"
       style="fill:#000000;fill-opacity:1;fill-rule:nonzero;stroke:none"
       d="m 205.836,402.945 h 84.723 v 0.48 h -84.723 z" /><path
       id="path250"
       style="fill:#000000;fill-opacity:1;fill-rule:nonzero;stroke:none"
       d="m 290.559,402.945 h 0.48 v 0.48 h -0.48 z" /><path
       id="path252"
       style="fill:#000000;fill-opacity:1;fill-rule:nonzero;stroke:none"
       d="m 291.039,402.945 h 56.16 v 0.48 h -56.16 z" /><path
       id="path254"
       style="fill:#000000;fill-opacity:1;fill-rule:nonzero;stroke:none"
       d="m 347.199,402.945 h 0.48 v 0.48 h -0.48 z" /><path
       id="path256"
       style="fill:#000000;fill-opacity:1;fill-rule:nonzero;stroke:none"
       d="m 347.68,402.945 h 141.117 v 0.48 H 347.68 Z" /><path
       id="path258"
       style="fill:#000000;fill-opacity:1;fill-rule:nonzero;stroke:none"
       d="m 488.797,402.945 h 0.48 v 0.48 h -0.48 z" /><path
       id="path260"
       style="fill:#000000;fill-opacity:1;fill-rule:nonzero;stroke:none"
       d="m 489.277,402.945 h 48.48 v 0.48 h -48.48 z" /><path
       id="path262"
       style="fill:#000000;fill-opacity:1;fill-rule:nonzero;stroke:none"
       d="m 537.758,402.945 h 0.48 v 0.48 h -0.48 z" /><path
       id="path264"
       style="fill:#000000;fill-opacity:1;fill-rule:nonzero;stroke:none"
       d="m 56.797,403.426 h 0.48 v 39.84 h -0.48 z" /><path
       id="path266"
       style="fill:#000000;fill-opacity:1;fill-rule:nonzero;stroke:none"
       d="m 134.559,403.426 h 0.48 v 39.84 h -0.48 z" /><path
       id="path268"
       style="fill:#000000;fill-opacity:1;fill-rule:nonzero;stroke:none"
       d="m 205.359,403.426 h 0.477 v 39.84 h -0.477 z" /><path
       id="path270"
       style="fill:#000000;fill-opacity:1;fill-rule:nonzero;stroke:none"
       d="m 290.559,403.426 h 0.48 v 39.84 h -0.48 z" /><path
       id="path272"
       style="fill:#000000;fill-opacity:1;fill-rule:nonzero;stroke:none"
       d="m 347.199,403.426 h 0.48 v 39.84 h -0.48 z" /><path
       id="path274"
       style="fill:#000000;fill-opacity:1;fill-rule:nonzero;stroke:none"
       d="m 488.797,403.426 h 0.48 v 39.84 h -0.48 z" /><path
       id="path276"
       style="fill:#000000;fill-opacity:1;fill-rule:nonzero;stroke:none"
       d="m 537.758,403.426 h 0.48 v 39.84 h -0.48 z" /><text
       y="450.94489"
       x="62.557796"
       id="text288"
       style="font-variant:normal;font-weight:normal;font-size:7.92000008px;font-family:TimesNewRomanPSMT;-inkscape-font-specification:TimesNewRomanPSMT;writing-mode:lr-tb;fill:#000000;fill-opacity:1;fill-rule:nonzero;stroke:none"><tspan
         id="tspan278"
         y="450.94489"
         x="62.557796 68.078033 72.156837 74.318993 77.669151 79.823395 81.740036 85.573318 87.727554 89.644196 91.560837 94.198196 98.276993 102.3558 106.43459 110.5134 113.15076 140.2926 145.56732 152.52107 155.15843 159.48276 163.79916 211.08156 215.39796 219.70644 222.59724 224.51389 226.43845 230.99245 234.83363 237.22548 239.37971 241.54189 247.54524 251.62404 254.01588 256.89084 259.04507 263.12387 266.00674 269.3569">Xu et al. (2019) CMIP5 SPI, Soil moisture </tspan><tspan
         id="tspan280"
         y="460.78488"
         x="211.1178 213.75516 215.90941 219.7506 221.90485 225.50052 227.89236 229.81693 231.97908 234.85405 238.93285 241.81572 244.21548 247.81116 251.40685 254.757 257.63196">(total, surface) </tspan><tspan
         id="tspan282"
         y="450.94489"
         x="296.07779 303.03949 307.83109 312.86819 314.78485">MET, </tspan><tspan
         id="tspan284"
         y="460.78488"
         x="296.07779 301.59802 307.35587 312.86819 315.02243 319.81406 325.08878 331.0842 336.12134">AGR/ECOL </tspan><tspan
         id="tspan286"
         y="450.94489"
         x="352.95779 357.03659 358.96115 363.03998 365.91492 371.42725 373.34387 375.26053 379.58484 382.45981 387.9642 494.5578 498.6366 502.71539 506.79419 510.88092 513.28064 517.3595 521.43829 525.27948 529.12067">1.5°C, 2°C 1971-2000 </tspan></text>
<path
       id="path290"
       style="fill:#000000;fill-opacity:1;fill-rule:nonzero;stroke:none"
       d="m 56.797,443.266 h 0.48 v 0.48 h -0.48 z" /><path
       id="path292"
       style="fill:#000000;fill-opacity:1;fill-rule:nonzero;stroke:none"
       d="m 57.277,443.266 h 77.281 v 0.48 H 57.277 Z" /><path
       id="path294"
       style="fill:#000000;fill-opacity:1;fill-rule:nonzero;stroke:none"
       d="m 134.559,443.266 h 0.48 v 0.48 h -0.48 z" /><path
       id="path296"
       style="fill:#000000;fill-opacity:1;fill-rule:nonzero;stroke:none"
       d="m 135.039,443.266 h 70.32 v 0.48 h -70.32 z" /><path
       id="path298"
       style="fill:#000000;fill-opacity:1;fill-rule:nonzero;stroke:none"
       d="m 205.359,443.266 h 0.477 v 0.48 h -0.477 z" /><path
       id="path300"
       style="fill:#000000;fill-opacity:1;fill-rule:nonzero;stroke:none"
       d="m 205.836,443.266 h 84.723 v 0.48 h -84.723 z" /><path
       id="path302"
       style="fill:#000000;fill-opacity:1;fill-rule:nonzero;stroke:none"
       d="m 290.559,443.266 h 0.48 v 0.48 h -0.48 z" /><path
       id="path304"
       style="fill:#000000;fill-opacity:1;fill-rule:nonzero;stroke:none"
       d="m 291.039,443.266 h 56.16 v 0.48 h -56.16 z" /><path
       id="path306"
       style="fill:#000000;fill-opacity:1;fill-rule:nonzero;stroke:none"
       d="m 347.199,443.266 h 0.48 v 0.48 h -0.48 z" /><path
       id="path308"
       style="fill:#000000;fill-opacity:1;fill-rule:nonzero;stroke:none"
       d="m 347.68,443.266 h 141.117 v 0.48 H 347.68 Z" /><path
       id="path310"
       style="fill:#000000;fill-opacity:1;fill-rule:nonzero;stroke:none"
       d="m 488.797,443.266 h 0.48 v 0.48 h -0.48 z" /><path
       id="path312"
       style="fill:#000000;fill-opacity:1;fill-rule:nonzero;stroke:none"
       d="m 489.277,443.266 h 48.48 v 0.48 h -48.48 z" /><path
       id="path314"
       style="fill:#000000;fill-opacity:1;fill-rule:nonzero;stroke:none"
       d="m 537.758,443.266 h 0.48 v 0.48 h -0.48 z" /><path
       id="path316"
       style="fill:#000000;fill-opacity:1;fill-rule:nonzero;stroke:none"
       d="m 56.797,443.746 h 0.48 v 19.68 h -0.48 z" /><path
       id="path318"
       style="fill:#000000;fill-opacity:1;fill-rule:nonzero;stroke:none"
       d="m 134.559,443.746 h 0.48 v 19.68 h -0.48 z" /><path
       id="path320"
       style="fill:#000000;fill-opacity:1;fill-rule:nonzero;stroke:none"
       d="m 205.359,443.746 h 0.477 v 19.68 h -0.477 z" /><path
       id="path322"
       style="fill:#000000;fill-opacity:1;fill-rule:nonzero;stroke:none"
       d="m 290.559,443.746 h 0.48 v 19.68 h -0.48 z" /><path
       id="path324"
       style="fill:#000000;fill-opacity:1;fill-rule:nonzero;stroke:none"
       d="m 347.199,443.746 h 0.48 v 19.68 h -0.48 z" /><path
       id="path326"
       style="fill:#000000;fill-opacity:1;fill-rule:nonzero;stroke:none"
       d="m 488.797,443.746 h 0.48 v 19.68 h -0.48 z" /><path
       id="path328"
       style="fill:#000000;fill-opacity:1;fill-rule:nonzero;stroke:none"
       d="m 537.758,443.746 h 0.48 v 19.68 h -0.48 z" /><text
       y="471.34488"
       x="62.557796"
       id="text340"
       style="font-variant:normal;font-weight:normal;font-size:7.92000008px;font-family:TimesNewRomanPSMT;-inkscape-font-specification:TimesNewRomanPSMT;writing-mode:lr-tb;fill:#000000;fill-opacity:1;fill-rule:nonzero;stroke:none"><tspan
         id="tspan330"
         y="471.34488"
         x="62.557796 67.594917 71.428192 75.506996 81.502434 85.098114 87.252357 90.610435 92.764679 94.681313 98.276993 100.66883 102.58547 104.50211 107.13947 111.21828 115.29707 119.37588 123.45467 126.09203 140.26883 145.54356 152.50523 155.14259 159.459 163.78331 211.0578 215.37421 219.6906 222.58141 224.49805 226.41467 230.96867 236.24339 239.12628 296.07779 303.03946 307.83105 312.86026 314.78482 316.70148 322.45932 328.20923 333.96707 339.49524 352.92755 357.00635 361.08514 365.16397 369.25067 371.65045 375.72925 379.80804 383.64923 387.72803 389.64468 391.56131 396.83603 402.11075 406.42715 410.50595 412.42261 416.5014 418.41803 421.05539 425.37973 429.45853 431.38309 435.69946 438.57443 444.08676 446.241 448.15762 453.43234 458.96051 461.59787 466.87259 470.95139 474.7926">Touma et al. (2015) CMIP5 SPI, SRI MET, HYDR 2010-2054, RCP8.5 (~1.5°C; CC-Box </tspan><tspan
         id="tspan332"
         y="481.18488"
         x="352.95779 357.03659 361.11539 363.03204 367.11084 369.02747 370.94412 375.03082 379.10965 381.02628 385.34268 392.30435 394.22101 398.31564 401.19852">11.1, 11.SM.1) </tspan><tspan
         id="tspan334"
         y="491.02487"
         x="352.95779 357.03659 361.11539 365.19418 369.27301 371.68066 375.75946 379.83829 383.67947 387.75827 389.67493 391.59155 396.86627 402.14099 406.4574 410.53619 412.45282 416.53165 418.44827 421.08563 425.40994 429.48877 431.4054 435.7218 438.59674 444.10907 446.02573 447.94235 453.45468 458.99075 461.3905 466.90283 470.74405 474.82285">2055-2099, RCP8.5 (~3.5°C, CC-Box </tspan><tspan
         id="tspan336"
         y="501.10489"
         x="352.95779 357.03659 361.11539 363.03204 367.11084 369.0354 370.95203 375.03082 379.10965 381.02628 385.35059 392.30435 394.22891 398.30771 401.19852">11.1, 11.SM.1) </tspan><tspan
         id="tspan338"
         y="471.34488"
         x="494.5578 498.6366 502.71539 506.79419 510.88092 513.28064 517.35944 521.43823 525.27948 529.12067">1961-2005 </tspan></text>
<path
       id="path342"
       style="fill:#000000;fill-opacity:1;fill-rule:nonzero;stroke:none"
       d="m 56.797,463.426 h 0.48 v 0.48 h -0.48 z" /><path
       id="path344"
       style="fill:#000000;fill-opacity:1;fill-rule:nonzero;stroke:none"
       d="m 57.277,463.426 h 77.281 v 0.48 H 57.277 Z" /><path
       id="path346"
       style="fill:#000000;fill-opacity:1;fill-rule:nonzero;stroke:none"
       d="m 134.559,463.426 h 0.48 v 0.48 h -0.48 z" /><path
       id="path348"
       style="fill:#000000;fill-opacity:1;fill-rule:nonzero;stroke:none"
       d="m 135.039,463.426 h 70.32 v 0.48 h -70.32 z" /><path
       id="path350"
       style="fill:#000000;fill-opacity:1;fill-rule:nonzero;stroke:none"
       d="m 205.359,463.426 h 0.477 v 0.48 h -0.477 z" /><path
       id="path352"
       style="fill:#000000;fill-opacity:1;fill-rule:nonzero;stroke:none"
       d="m 205.836,463.426 h 84.723 v 0.48 h -84.723 z" /><path
       id="path354"
       style="fill:#000000;fill-opacity:1;fill-rule:nonzero;stroke:none"
       d="m 290.559,463.426 h 0.48 v 0.48 h -0.48 z" /><path
       id="path356"
       style="fill:#000000;fill-opacity:1;fill-rule:nonzero;stroke:none"
       d="m 291.039,463.426 h 56.16 v 0.48 h -56.16 z" /><path
       id="path358"
       style="fill:#000000;fill-opacity:1;fill-rule:nonzero;stroke:none"
       d="m 347.199,463.426 h 0.48 v 0.48 h -0.48 z" /><path
       id="path360"
       style="fill:#000000;fill-opacity:1;fill-rule:nonzero;stroke:none"
       d="m 347.68,463.426 h 141.117 v 0.48 H 347.68 Z" /><path
       id="path362"
       style="fill:#000000;fill-opacity:1;fill-rule:nonzero;stroke:none"
       d="m 488.797,463.426 h 0.48 v 0.48 h -0.48 z" /><path
       id="path364"
       style="fill:#000000;fill-opacity:1;fill-rule:nonzero;stroke:none"
       d="m 489.277,463.426 h 48.48 v 0.48 h -48.48 z" /><path
       id="path366"
       style="fill:#000000;fill-opacity:1;fill-rule:nonzero;stroke:none"
       d="m 537.758,463.426 h 0.48 v 0.48 h -0.48 z" /><path
       id="path368"
       style="fill:#000000;fill-opacity:1;fill-rule:nonzero;stroke:none"
       d="m 56.797,463.906 h 0.48 v 39.84 h -0.48 z" /><path
       id="path370"
       style="fill:#000000;fill-opacity:1;fill-rule:nonzero;stroke:none"
       d="m 134.559,463.906 h 0.48 v 39.84 h -0.48 z" /><path
       id="path372"
       style="fill:#000000;fill-opacity:1;fill-rule:nonzero;stroke:none"
       d="m 205.359,463.906 h 0.477 v 39.84 h -0.477 z" /><path
       id="path374"
       style="fill:#000000;fill-opacity:1;fill-rule:nonzero;stroke:none"
       d="m 290.559,463.906 h 0.48 v 39.84 h -0.48 z" /><path
       id="path376"
       style="fill:#000000;fill-opacity:1;fill-rule:nonzero;stroke:none"
       d="m 347.199,463.906 h 0.48 v 39.84 h -0.48 z" /><path
       id="path378"
       style="fill:#000000;fill-opacity:1;fill-rule:nonzero;stroke:none"
       d="m 488.797,463.906 h 0.48 v 39.84 h -0.48 z" /><path
       id="path380"
       style="fill:#000000;fill-opacity:1;fill-rule:nonzero;stroke:none"
       d="m 537.758,463.906 h 0.48 v 39.84 h -0.48 z" /><text
       y="511.42487"
       x="62.557796"
       id="text398"
       style="font-variant:normal;font-weight:normal;font-size:7.92000008px;font-family:TimesNewRomanPSMT;-inkscape-font-specification:TimesNewRomanPSMT;writing-mode:lr-tb;fill:#000000;fill-opacity:1;fill-rule:nonzero;stroke:none"><tspan
         id="tspan382"
         y="511.42487"
         x="62.557796 66.874191 70.715393 73.107239 77.186035 81.027237 85.106033 87.260277 89.422432 92.772598 94.926834 96.843475 100.43916 102.83099 104.74763 106.66428 109.30164 113.38835 117.46716 121.54595 125.62476 128.26212 140.27676 145.55148 151.30931 156.58403 162.34187 167.379 172.89131">Spinoni et al. (2020) CORDEX </tspan><tspan
         id="tspan384"
         y="521.26489"
         x="140.31779 142.95515 148.22987 155.19156 158.06651 162.39084 166.46964 168.38628 172.21956 175.10243 177.25668 181.33548 183.48972 187.56851 191.40973">(CMIP5 driving </tspan><tspan
         id="tspan386"
         y="531.34705"
         x="140.31779 146.07564 151.35036 158.54964 161.43251 163.58676 165.5034 170.77812 176.29044 183.48972 186.37259 189.24756">GCMs, RCMs) </tspan><tspan
         id="tspan388"
         y="511.42487"
         x="211.1178 215.4342 219.7506 222.63348 296.07562 303.03732 307.82892 312.85812 352.95779 357.03659 361.11542 365.19421 369.28091 371.68069 375.75949 379.83829 383.67947 387.75827 389.67493 391.59155 396.86627 402.14099 406.44949 410.52829 412.45285 416.53165 418.44827 421.08563 425.40997 429.48877 431.4054 435.72974 438.59677 444.10907 446.03363 447.95029 453.46262 458.99075 461.39053 466.90283 470.74405 474.82285">SPI MET 2071-2100, RCP4.5 (~2.5°C, CC-Box </tspan><tspan
         id="tspan390"
         y="521.26489"
         x="352.95779 357.03659 361.11542 363.03204 367.11084 369.0354 370.95206 375.03085 379.10965 381.02628 385.35062 392.30435 394.22891 398.30771 401.19852">11.1, 11.SM.1) </tspan><tspan
         id="tspan392"
         y="531.34485"
         x="352.95779 357.03659 361.11542 365.19421 369.27301 371.68069 375.75949 379.83829 383.67947 387.75827 389.67493 391.59155 396.86627 402.14099 406.4574 410.53619 412.45285 416.53165 418.44827 421.08563 425.40997 429.48877 431.4054 435.74557 438.62051 444.13284 446.04947 447.96613 453.47845 458.99075 461.39053 466.90283 470.74405 474.82285">2071-2100, RCP8.5 (~4.5°C, CC-Box </tspan><tspan
         id="tspan394"
         y="541.18152"
         x="352.95779 357.03659 361.11542 363.03204 367.11084 369.0354 370.95206 375.03085 379.10965 381.02628 385.35062 392.30435 394.22891 398.30771 401.19852">11.1, 11.SM.1) </tspan><tspan
         id="tspan396"
         y="511.42487"
         x="494.5578 498.6366 502.71539 506.79419 510.88092 513.28064 517.3595 521.43829 525.27948 529.12067">1981-2010 </tspan></text>
<path
       id="path400"
       style="fill:#000000;fill-opacity:1;fill-rule:nonzero;stroke:none"
       d="m 56.797,503.746 h 0.48 v 0.48 h -0.48 z" /><path
       id="path402"
       style="fill:#000000;fill-opacity:1;fill-rule:nonzero;stroke:none"
       d="m 57.277,503.746 h 77.281 v 0.48 H 57.277 Z" /><path
       id="path404"
       style="fill:#000000;fill-opacity:1;fill-rule:nonzero;stroke:none"
       d="m 134.559,503.746 h 0.48 v 0.48 h -0.48 z" /><path
       id="path406"
       style="fill:#000000;fill-opacity:1;fill-rule:nonzero;stroke:none"
       d="m 135.039,503.746 h 70.32 v 0.48 h -70.32 z" /><path
       id="path408"
       style="fill:#000000;fill-opacity:1;fill-rule:nonzero;stroke:none"
       d="m 205.359,503.746 h 0.477 v 0.48 h -0.477 z" /><path
       id="path410"
       style="fill:#000000;fill-opacity:1;fill-rule:nonzero;stroke:none"
       d="m 205.836,503.746 h 84.723 v 0.48 h -84.723 z" /><path
       id="path412"
       style="fill:#000000;fill-opacity:1;fill-rule:nonzero;stroke:none"
       d="m 290.559,503.746 h 0.48 v 0.48 h -0.48 z" /><path
       id="path414"
       style="fill:#000000;fill-opacity:1;fill-rule:nonzero;stroke:none"
       d="m 291.039,503.746 h 56.16 v 0.48 h -56.16 z" /><path
       id="path416"
       style="fill:#000000;fill-opacity:1;fill-rule:nonzero;stroke:none"
       d="m 347.199,503.746 h 0.48 v 0.48 h -0.48 z" /><path
       id="path418"
       style="fill:#000000;fill-opacity:1;fill-rule:nonzero;stroke:none"
       d="m 347.68,503.746 h 141.117 v 0.48 H 347.68 Z" /><path
       id="path420"
       style="fill:#000000;fill-opacity:1;fill-rule:nonzero;stroke:none"
       d="m 488.797,503.746 h 0.48 v 0.48 h -0.48 z" /><path
       id="path422"
       style="fill:#000000;fill-opacity:1;fill-rule:nonzero;stroke:none"
       d="m 489.277,503.746 h 48.48 v 0.48 h -48.48 z" /><path
       id="path424"
       style="fill:#000000;fill-opacity:1;fill-rule:nonzero;stroke:none"
       d="m 537.758,503.746 h 0.48 v 0.48 h -0.48 z" /><path
       id="path426"
       style="fill:#000000;fill-opacity:1;fill-rule:nonzero;stroke:none"
       d="m 56.797,504.227 h 0.48 v 39.84 h -0.48 z" /><path
       id="path428"
       style="fill:#000000;fill-opacity:1;fill-rule:nonzero;stroke:none"
       d="m 134.559,504.227 h 0.48 v 39.84 h -0.48 z" /><path
       id="path430"
       style="fill:#000000;fill-opacity:1;fill-rule:nonzero;stroke:none"
       d="m 205.359,504.227 h 0.477 v 39.84 h -0.477 z" /><path
       id="path432"
       style="fill:#000000;fill-opacity:1;fill-rule:nonzero;stroke:none"
       d="m 290.559,504.227 h 0.48 v 39.84 h -0.48 z" /><path
       id="path434"
       style="fill:#000000;fill-opacity:1;fill-rule:nonzero;stroke:none"
       d="m 347.199,504.227 h 0.48 v 39.84 h -0.48 z" /><path
       id="path436"
       style="fill:#000000;fill-opacity:1;fill-rule:nonzero;stroke:none"
       d="m 488.797,504.227 h 0.48 v 39.84 h -0.48 z" /><path
       id="path438"
       style="fill:#000000;fill-opacity:1;fill-rule:nonzero;stroke:none"
       d="m 537.758,504.227 h 0.48 v 39.84 h -0.48 z" /><text
       y="551.74487"
       x="62.557796"
       id="text456"
       style="font-variant:normal;font-weight:normal;font-size:7.92000008px;font-family:TimesNewRomanPSMT;-inkscape-font-specification:TimesNewRomanPSMT;writing-mode:lr-tb;fill:#000000;fill-opacity:1;fill-rule:nonzero;stroke:none"><tspan
         id="tspan440"
         y="551.74487"
         x="62.557796 68.315636 71.911316 75.990112 81.985558 85.581238 89.660034 93.501236 95.663391 99.013557 101.16779 103.08443 106.6722 109.07195 110.98859">Naumann et al. </tspan><tspan
         id="tspan442"
         y="561.5849"
         x="62.557796 65.195152 69.273956 73.352753 77.431557 81.510353 83.918037">(2018) </tspan><tspan
         id="tspan444"
         y="551.74487"
         x="140.31779 144.39659 146.31323 152.07108 157.34579 164.30748 166.22412 169.09908 173.89861 179.41092">1 GCM (EC-</tspan><tspan
         id="tspan446"
         y="561.5849"
         x="140.31779 145.10941 150.86723 156.14195 161.17116 166.929 171.01572 173.41548 179.17331 184.44804">EARTH3-HR </tspan><tspan
         id="tspan448"
         y="571.42151"
         x="140.31779 144.159 148.23779 150.15443 154.23323 156.87061 158.78723 162.86604 165.5034 167.66557 171.74435 175.33212 179.17331 181.33548 187.09332 189.24756 191.40179 195.48061">v3.1) driven with </tspan><tspan
         id="tspan450"
         y="581.50366"
         x="140.31779 144.6342 148.95851 153.98772 156.14987 158.54964 160.94148 164.29956 166.69139 170.7702 173.64516 175.80731 178.20708 181.08995 185.16876 191.1642 193.08084 197.15964">SST fields from 7 </tspan><tspan
         id="tspan452"
         y="591.34033"
         x="140.31779 145.59251 152.5542 155.19156 159.50797 163.58676 165.74892 171.50676 176.78148 183.98076 187.09332">CMIP5 GCMs </tspan><tspan
         id="tspan454"
         y="551.74487"
         x="211.1178 215.4342 219.7506 224.7798 227.67061 230.07036 234.63228 241.82364 296.06772 301.58795 307.34579 312.85812 315.01236 319.80396 325.07867 331.07413 336.10333 352.90958 356.98837 358.905 362.9838 365.85876 371.37109 373.29565 375.21228 379.52869 382.40366 387.67838 389.84052 391.75717 394.39453 398.71884 401.59381 406.86853 409.74347 494.5578 498.6366 500.56116 504.63995 507.50702 513.01929">SPEI-PM AGR/ECOL 1.5°C, 2°C, (3°C) 0.6°C </tspan></text>
<path
       id="path458"
       style="fill:#000000;fill-opacity:1;fill-rule:nonzero;stroke:none"
       d="m 56.797,544.066 h 0.48 v 0.477 h -0.48 z" /><path
       id="path460"
       style="fill:#000000;fill-opacity:1;fill-rule:nonzero;stroke:none"
       d="m 57.277,544.066 h 77.281 v 0.477 H 57.277 Z" /><path
       id="path462"
       style="fill:#000000;fill-opacity:1;fill-rule:nonzero;stroke:none"
       d="m 134.559,544.066 h 0.48 v 0.477 h -0.48 z" /><path
       id="path464"
       style="fill:#000000;fill-opacity:1;fill-rule:nonzero;stroke:none"
       d="m 135.039,544.066 h 70.32 v 0.477 h -70.32 z" /><path
       id="path466"
       style="fill:#000000;fill-opacity:1;fill-rule:nonzero;stroke:none"
       d="m 205.359,544.066 h 0.477 v 0.477 h -0.477 z" /><path
       id="path468"
       style="fill:#000000;fill-opacity:1;fill-rule:nonzero;stroke:none"
       d="m 205.836,544.066 h 84.723 v 0.477 h -84.723 z" /><path
       id="path470"
       style="fill:#000000;fill-opacity:1;fill-rule:nonzero;stroke:none"
       d="m 290.559,544.066 h 0.48 v 0.477 h -0.48 z" /><path
       id="path472"
       style="fill:#000000;fill-opacity:1;fill-rule:nonzero;stroke:none"
       d="m 291.039,544.066 h 56.16 v 0.477 h -56.16 z" /><path
       id="path474"
       style="fill:#000000;fill-opacity:1;fill-rule:nonzero;stroke:none"
       d="m 347.199,544.066 h 0.48 v 0.477 h -0.48 z" /><path
       id="path476"
       style="fill:#000000;fill-opacity:1;fill-rule:nonzero;stroke:none"
       d="m 347.68,544.066 h 141.117 v 0.477 H 347.68 Z" /><path
       id="path478"
       style="fill:#000000;fill-opacity:1;fill-rule:nonzero;stroke:none"
       d="m 488.797,544.066 h 0.48 v 0.477 h -0.48 z" /><path
       id="path480"
       style="fill:#000000;fill-opacity:1;fill-rule:nonzero;stroke:none"
       d="m 489.277,544.066 h 48.48 v 0.477 h -48.48 z" /><path
       id="path482"
       style="fill:#000000;fill-opacity:1;fill-rule:nonzero;stroke:none"
       d="m 537.758,544.066 h 0.48 v 0.477 h -0.48 z" /><path
       id="path484"
       style="fill:#000000;fill-opacity:1;fill-rule:nonzero;stroke:none"
       d="m 56.797,544.543 h 0.48 v 49.441 h -0.48 z" /><path
       id="path486"
       style="fill:#000000;fill-opacity:1;fill-rule:nonzero;stroke:none"
       d="m 134.559,544.543 h 0.48 v 49.441 h -0.48 z" /><path
       id="path488"
       style="fill:#000000;fill-opacity:1;fill-rule:nonzero;stroke:none"
       d="m 205.359,544.543 h 0.477 v 49.441 h -0.477 z" /><path
       id="path490"
       style="fill:#000000;fill-opacity:1;fill-rule:nonzero;stroke:none"
       d="m 290.559,544.543 h 0.48 v 49.441 h -0.48 z" /><path
       id="path492"
       style="fill:#000000;fill-opacity:1;fill-rule:nonzero;stroke:none"
       d="m 347.199,544.543 h 0.48 v 49.441 h -0.48 z" /><path
       id="path494"
       style="fill:#000000;fill-opacity:1;fill-rule:nonzero;stroke:none"
       d="m 488.797,544.543 h 0.48 v 49.441 h -0.48 z" /><path
       id="path496"
       style="fill:#000000;fill-opacity:1;fill-rule:nonzero;stroke:none"
       d="m 537.758,544.543 h 0.48 v 49.441 h -0.48 z" /><text
       y="601.90491"
       x="62.557796"
       id="text508"
       style="font-variant:normal;font-weight:normal;font-size:7.92000008px;font-family:TimesNewRomanPSMT;-inkscape-font-specification:TimesNewRomanPSMT;writing-mode:lr-tb;fill:#000000;fill-opacity:1;fill-rule:nonzero;stroke:none"><tspan
         id="tspan498"
         y="601.90491"
         x="62.557796 68.078033 70.469872 74.065552 77.661232 81.502434 83.894272 87.482033 89.881798 94.443718 97.793877 100.43124 103.0686 106.90188 110.74307 114.82188 116.73852 120.3342 122.48843">Vicente-Serrano et </tspan><tspan
         id="tspan500"
         y="611.74487"
         x="62.557796 66.153473 68.307716 70.224358 72.140999 74.778358 78.857155 82.935959 87.014755 91.093559 93.730919">al. (2020) </tspan><tspan
         id="tspan502"
         y="601.90491"
         x="140.31779 145.59251 152.5542 155.19156 159.50797 163.82436 211.10677 215.42316 219.73956 224.76877 227.65956 230.05933 234.62125 241.81261 296.07779 301.59802 307.35587 312.86819 315.02243 319.81406 325.08878 331.0842 336.12134 352.91965 356.99844 361.07724 365.15604 369.23483 371.63461 375.71341 379.79221 383.63339 387.71222 389.63675 391.55341 396.82812 402.10284 406.41132 410.49011 412.41467 416.49347 418.41013 421.04749 425.36389 429.44269 431.36725 435.68365 438.55859 444.07092 445.98758 447.90421 453.41653 458.95261 461.35236 466.86469 470.70587 474.7847">CMIP5 SPEI-PM AGR/ECOL 2070-2100, RCP8.5 (~4.5°C, CC-Box </tspan><tspan
         id="tspan504"
         y="611.74487"
         x="352.95779 357.03659 361.11542 363.03204 367.11084 369.0354 370.95206 375.03085 379.10965 381.02628 385.35062 392.30435 394.22891 398.30771 401.19852">11.1, 11.SM.1) </tspan><tspan
         id="tspan506"
         y="601.90491"
         x="494.5578 498.6366 502.71539 506.79419 510.88092 513.28064 517.3595 521.43829 525.27948 529.12067">1970-2000 </tspan></text>
<path
       id="path510"
       style="fill:#000000;fill-opacity:1;fill-rule:nonzero;stroke:none"
       d="m 56.797,593.984 h 0.48 v 0.48 h -0.48 z" /><path
       id="path512"
       style="fill:#000000;fill-opacity:1;fill-rule:nonzero;stroke:none"
       d="m 57.277,593.984 h 77.281 v 0.48 H 57.277 Z" /><path
       id="path514"
       style="fill:#000000;fill-opacity:1;fill-rule:nonzero;stroke:none"
       d="m 134.559,593.984 h 0.48 v 0.48 h -0.48 z" /><path
       id="path516"
       style="fill:#000000;fill-opacity:1;fill-rule:nonzero;stroke:none"
       d="m 135.039,593.984 h 70.32 v 0.48 h -70.32 z" /><path
       id="path518"
       style="fill:#000000;fill-opacity:1;fill-rule:nonzero;stroke:none"
       d="m 205.359,593.984 h 0.477 v 0.48 h -0.477 z" /><path
       id="path520"
       style="fill:#000000;fill-opacity:1;fill-rule:nonzero;stroke:none"
       d="m 205.836,593.984 h 84.723 v 0.48 h -84.723 z" /><path
       id="path522"
       style="fill:#000000;fill-opacity:1;fill-rule:nonzero;stroke:none"
       d="m 290.559,593.984 h 0.48 v 0.48 h -0.48 z" /><path
       id="path524"
       style="fill:#000000;fill-opacity:1;fill-rule:nonzero;stroke:none"
       d="m 291.039,593.984 h 56.16 v 0.48 h -56.16 z" /><path
       id="path526"
       style="fill:#000000;fill-opacity:1;fill-rule:nonzero;stroke:none"
       d="m 347.199,593.984 h 0.48 v 0.48 h -0.48 z" /><path
       id="path528"
       style="fill:#000000;fill-opacity:1;fill-rule:nonzero;stroke:none"
       d="m 347.68,593.984 h 141.117 v 0.48 H 347.68 Z" /><path
       id="path530"
       style="fill:#000000;fill-opacity:1;fill-rule:nonzero;stroke:none"
       d="m 488.797,593.984 h 0.48 v 0.48 h -0.48 z" /><path
       id="path532"
       style="fill:#000000;fill-opacity:1;fill-rule:nonzero;stroke:none"
       d="m 489.277,593.984 h 48.48 v 0.48 h -48.48 z" /><path
       id="path534"
       style="fill:#000000;fill-opacity:1;fill-rule:nonzero;stroke:none"
       d="m 537.758,593.984 h 0.48 v 0.48 h -0.48 z" /><path
       id="path536"
       style="fill:#000000;fill-opacity:1;fill-rule:nonzero;stroke:none"
       d="m 56.797,594.465 h 0.48 v 19.922 h -0.48 z" /><path
       id="path538"
       style="fill:#000000;fill-opacity:1;fill-rule:nonzero;stroke:none"
       d="m 134.559,594.465 h 0.48 v 19.922 h -0.48 z" /><path
       id="path540"
       style="fill:#000000;fill-opacity:1;fill-rule:nonzero;stroke:none"
       d="m 205.359,594.465 h 0.477 v 19.922 h -0.477 z" /><path
       id="path542"
       style="fill:#000000;fill-opacity:1;fill-rule:nonzero;stroke:none"
       d="m 290.559,594.465 h 0.48 v 19.922 h -0.48 z" /><path
       id="path544"
       style="fill:#000000;fill-opacity:1;fill-rule:nonzero;stroke:none"
       d="m 347.199,594.465 h 0.48 v 19.922 h -0.48 z" /><path
       id="path546"
       style="fill:#000000;fill-opacity:1;fill-rule:nonzero;stroke:none"
       d="m 488.797,594.465 h 0.48 v 19.922 h -0.48 z" /><path
       id="path548"
       style="fill:#000000;fill-opacity:1;fill-rule:nonzero;stroke:none"
       d="m 537.758,594.465 h 0.48 v 19.922 h -0.48 z" /><text
       y="622.06488"
       x="62.557796"
       id="text566"
       style="font-variant:normal;font-weight:normal;font-size:7.92000008px;font-family:TimesNewRomanPSMT;-inkscape-font-specification:TimesNewRomanPSMT;writing-mode:lr-tb;fill:#000000;fill-opacity:1;fill-rule:nonzero;stroke:none"><tspan
         id="tspan550"
         y="622.06488"
         x="62.557796 68.315636 70.469872 74.548676 78.389877 80.789635 84.622917 86.785072 88.939316 91.093559 94.451637 96.843475 98.760117 102.3558 104.51003 106.6722">Giuntoli et al. </tspan><tspan
         id="tspan552"
         y="632.1449"
         x="62.557796 65.195152 69.273956 73.352753 77.431557 81.510353 83.918037">(2015) </tspan><tspan
         id="tspan554"
         y="622.06488"
         x="140.31779 142.95515 147.27156 150.15443 152.5542 159.75348 162.39084 166.71515 168.87732 171.51468 175.59348 177.51012 183.26796 189.0258 196.22508 199.33765">ISI-MIP (6 GHMs </tspan><tspan
         id="tspan556"
         y="632.1449"
         x="140.31779 143.91348 147.75468 151.59587 153.51251 157.59132 159.75348 165.0282 171.98195 174.85692 179.18124 183.26004">and 5 CMIP5 </tspan><tspan
         id="tspan558"
         y="641.98486"
         x="140.31779 146.07564 151.35036 158.54964 161.43251 164.30748">GCMs) </tspan><tspan
         id="tspan560"
         y="622.06488"
         x="211.1178 215.90941 219.9882 225.74605 228.38341 231.02077 233.18292 237.26172 243.01956 246.14005 248.05669 251.89789 255.73116 259.80997 262.93042 296.05188 301.80972 307.56757 313.32541 318.60013 352.91748 356.99628 361.07507 365.15387 369.2406 371.64035 375.71918 379.79797 383.63916 387.71796 389.63461 391.55124 396.82596 402.10068 406.41708 410.74139 413.14117 417.21997 419.1366 421.77396 426.1062 430.42261 433.29758 438.80988 440.73444 442.65109 447.92581 453.43021 456.06757 461.34229 465.42108 469.26227">Low-flows days HYDR 2066-2099, RCP8-5 (~4°C, CC-Box </tspan><tspan
         id="tspan562"
         y="632.1449"
         x="352.95779 357.03659 361.11542 363.03204 367.11084 369.0354 370.95206 375.03085 379.10965 381.02628 385.35062 392.30435 394.22891 398.30771 401.19852">11.1, 11.SM.1) </tspan><tspan
         id="tspan564"
         y="622.06488"
         x="494.5578 498.6366 502.71539 506.79419 510.88092 513.28064 517.3595 521.43829 525.27948 529.12067">1972-2005 </tspan></text>
<path
       id="path568"
       style="fill:#000000;fill-opacity:1;fill-rule:nonzero;stroke:none"
       d="m 56.797,614.387 h 0.48 v 0.477 h -0.48 z" /><path
       id="path570"
       style="fill:#000000;fill-opacity:1;fill-rule:nonzero;stroke:none"
       d="m 57.277,614.387 h 77.281 v 0.477 H 57.277 Z" /><path
       id="path572"
       style="fill:#000000;fill-opacity:1;fill-rule:nonzero;stroke:none"
       d="m 134.559,614.387 h 0.48 v 0.477 h -0.48 z" /><path
       id="path574"
       style="fill:#000000;fill-opacity:1;fill-rule:nonzero;stroke:none"
       d="m 135.039,614.387 h 70.32 v 0.477 h -70.32 z" /><path
       id="path576"
       style="fill:#000000;fill-opacity:1;fill-rule:nonzero;stroke:none"
       d="m 205.359,614.387 h 0.477 v 0.477 h -0.477 z" /><path
       id="path578"
       style="fill:#000000;fill-opacity:1;fill-rule:nonzero;stroke:none"
       d="m 205.836,614.387 h 84.723 v 0.477 h -84.723 z" /><path
       id="path580"
       style="fill:#000000;fill-opacity:1;fill-rule:nonzero;stroke:none"
       d="m 290.559,614.387 h 0.48 v 0.477 h -0.48 z" /><path
       id="path582"
       style="fill:#000000;fill-opacity:1;fill-rule:nonzero;stroke:none"
       d="m 291.039,614.387 h 56.16 v 0.477 h -56.16 z" /><path
       id="path584"
       style="fill:#000000;fill-opacity:1;fill-rule:nonzero;stroke:none"
       d="m 347.199,614.387 h 0.48 v 0.477 h -0.48 z" /><path
       id="path586"
       style="fill:#000000;fill-opacity:1;fill-rule:nonzero;stroke:none"
       d="m 347.68,614.387 h 141.117 v 0.477 H 347.68 Z" /><path
       id="path588"
       style="fill:#000000;fill-opacity:1;fill-rule:nonzero;stroke:none"
       d="m 488.797,614.387 h 0.48 v 0.477 h -0.48 z" /><path
       id="path590"
       style="fill:#000000;fill-opacity:1;fill-rule:nonzero;stroke:none"
       d="m 489.277,614.387 h 48.48 v 0.477 h -48.48 z" /><path
       id="path592"
       style="fill:#000000;fill-opacity:1;fill-rule:nonzero;stroke:none"
       d="m 537.758,614.387 h 0.48 v 0.477 h -0.48 z" /><path
       id="path594"
       style="fill:#000000;fill-opacity:1;fill-rule:nonzero;stroke:none"
       d="m 56.797,614.863 h 0.48 v 29.762 h -0.48 z" /><path
       id="path596"
       style="fill:#000000;fill-opacity:1;fill-rule:nonzero;stroke:none"
       d="m 134.559,614.863 h 0.48 v 29.762 h -0.48 z" /><path
       id="path598"
       style="fill:#000000;fill-opacity:1;fill-rule:nonzero;stroke:none"
       d="m 205.359,614.863 h 0.477 v 29.762 h -0.477 z" /><path
       id="path600"
       style="fill:#000000;fill-opacity:1;fill-rule:nonzero;stroke:none"
       d="m 290.559,614.863 h 0.48 v 29.762 h -0.48 z" /><path
       id="path602"
       style="fill:#000000;fill-opacity:1;fill-rule:nonzero;stroke:none"
       d="m 347.199,614.863 h 0.48 v 29.762 h -0.48 z" /><path
       id="path604"
       style="fill:#000000;fill-opacity:1;fill-rule:nonzero;stroke:none"
       d="m 488.797,614.863 h 0.48 v 29.762 h -0.48 z" /><path
       id="path606"
       style="fill:#000000;fill-opacity:1;fill-rule:nonzero;stroke:none"
       d="m 537.758,614.863 h 0.48 v 29.762 h -0.48 z" /><text
       y="652.54486"
       x="62.557796"
       id="text616"
       style="font-variant:normal;font-weight:normal;font-size:7.92000008px;font-family:TimesNewRomanPSMT;-inkscape-font-specification:TimesNewRomanPSMT;writing-mode:lr-tb;fill:#000000;fill-opacity:1;fill-rule:nonzero;stroke:none"><tspan
         id="tspan608"
         y="652.54486"
         x="62.557796 67.349396 71.190598 74.786278 76.940514 79.094757 82.452835 84.844673 86.761314 90.356995 92.511238 94.665474 96.582115 99.219475 103.3062 107.38499 111.46379 115.54259 117.95027 140.26883 144.34764 146.26428 152.02211 157.78787 164.74164 166.65828 169.54115 175.0614 177.93636 183.21107 185.84843">Zhai et al. (2020) 1 GHM (VIC) </tspan><tspan
         id="tspan610"
         y="662.38489"
         x="140.31779 144.159 146.79636 149.1882 153.0294 156.62508 160.46628 162.62843 166.70723 170.54843 172.46507 176.54387">driven by 4 </tspan><tspan
         id="tspan612"
         y="672.2215"
         x="140.31779 145.59251 152.5542 155.19156 159.50797 163.58676 165.74892 171.50676 176.78148 183.98076 187.10124">CMIP5 GCMs </tspan><tspan
         id="tspan614"
         y="652.54486"
         x="211.1178 215.90941 219.7506 221.90485 224.78772 228.37549 234.60852 237.9666 239.88324 242.27509 246.35388 252.11172 254.02837 256.66571 260.74451 264.8233 268.9021 271.53949 274.17685 296.03604 301.79388 307.55173 313.30954 318.58429 352.90164 356.98044 358.905 362.9838 365.85876 371.37109 373.29565 375.21228 379.52869 382.40366 387.91595 494.5578 498.6366 502.71539 506.79419 510.88092 513.28064 517.3595 521.43829 525.27948 529.12067">Extreme low runoff HYDR 1.5°C, 2°C 2006-2015 </tspan></text>
<path
       id="path618"
       style="fill:#000000;fill-opacity:1;fill-rule:nonzero;stroke:none"
       d="m 56.797,644.625 h 0.48 v 0.48 h -0.48 z" /><path
       id="path620"
       style="fill:#000000;fill-opacity:1;fill-rule:nonzero;stroke:none"
       d="m 57.277,644.625 h 77.281 v 0.48 H 57.277 Z" /><path
       id="path622"
       style="fill:#000000;fill-opacity:1;fill-rule:nonzero;stroke:none"
       d="m 134.559,644.625 h 0.48 v 0.48 h -0.48 z" /><path
       id="path624"
       style="fill:#000000;fill-opacity:1;fill-rule:nonzero;stroke:none"
       d="m 135.039,644.625 h 70.32 v 0.48 h -70.32 z" /><path
       id="path626"
       style="fill:#000000;fill-opacity:1;fill-rule:nonzero;stroke:none"
       d="m 205.359,644.625 h 0.477 v 0.48 h -0.477 z" /><path
       id="path628"
       style="fill:#000000;fill-opacity:1;fill-rule:nonzero;stroke:none"
       d="m 205.836,644.625 h 84.723 v 0.48 h -84.723 z" /><path
       id="path630"
       style="fill:#000000;fill-opacity:1;fill-rule:nonzero;stroke:none"
       d="m 290.559,644.625 h 0.48 v 0.48 h -0.48 z" /><path
       id="path632"
       style="fill:#000000;fill-opacity:1;fill-rule:nonzero;stroke:none"
       d="m 291.039,644.625 h 56.16 v 0.48 h -56.16 z" /><path
       id="path634"
       style="fill:#000000;fill-opacity:1;fill-rule:nonzero;stroke:none"
       d="m 347.199,644.625 h 0.48 v 0.48 h -0.48 z" /><path
       id="path636"
       style="fill:#000000;fill-opacity:1;fill-rule:nonzero;stroke:none"
       d="m 347.68,644.625 h 141.117 v 0.48 H 347.68 Z" /><path
       id="path638"
       style="fill:#000000;fill-opacity:1;fill-rule:nonzero;stroke:none"
       d="m 488.797,644.625 h 0.48 v 0.48 h -0.48 z" /><path
       id="path640"
       style="fill:#000000;fill-opacity:1;fill-rule:nonzero;stroke:none"
       d="m 489.277,644.625 h 48.48 v 0.48 h -48.48 z" /><path
       id="path642"
       style="fill:#000000;fill-opacity:1;fill-rule:nonzero;stroke:none"
       d="m 537.758,644.625 h 0.48 v 0.48 h -0.48 z" /><path
       id="path644"
       style="fill:#000000;fill-opacity:1;fill-rule:nonzero;stroke:none"
       d="m 56.797,645.105 h 0.48 v 30 h -0.48 z" /><path
       id="path646"
       style="fill:#000000;fill-opacity:1;fill-rule:nonzero;stroke:none"
       d="m 56.797,675.105 h 0.48 v 0.48 h -0.48 z" /><path
       id="path648"
       style="fill:#000000;fill-opacity:1;fill-rule:nonzero;stroke:none"
       d="m 56.797,675.105 h 0.48 v 0.48 h -0.48 z" /><path
       id="path650"
       style="fill:#000000;fill-opacity:1;fill-rule:nonzero;stroke:none"
       d="m 57.277,675.105 h 77.281 v 0.48 H 57.277 Z" /><path
       id="path652"
       style="fill:#000000;fill-opacity:1;fill-rule:nonzero;stroke:none"
       d="m 134.559,645.105 h 0.48 v 30 h -0.48 z" /><path
       id="path654"
       style="fill:#000000;fill-opacity:1;fill-rule:nonzero;stroke:none"
       d="m 134.559,675.105 h 0.48 v 0.48 h -0.48 z" /><path
       id="path656"
       style="fill:#000000;fill-opacity:1;fill-rule:nonzero;stroke:none"
       d="m 135.039,675.105 h 70.32 v 0.48 h -70.32 z" /><path
       id="path658"
       style="fill:#000000;fill-opacity:1;fill-rule:nonzero;stroke:none"
       d="m 205.359,645.105 h 0.477 v 30 h -0.477 z" /><path
       id="path660"
       style="fill:#000000;fill-opacity:1;fill-rule:nonzero;stroke:none"
       d="m 205.359,675.105 h 0.477 v 0.48 h -0.477 z" /><path
       id="path662"
       style="fill:#000000;fill-opacity:1;fill-rule:nonzero;stroke:none"
       d="m 205.836,675.105 h 84.723 v 0.48 h -84.723 z" /><path
       id="path664"
       style="fill:#000000;fill-opacity:1;fill-rule:nonzero;stroke:none"
       d="m 290.559,645.105 h 0.48 v 30 h -0.48 z" /><path
       id="path666"
       style="fill:#000000;fill-opacity:1;fill-rule:nonzero;stroke:none"
       d="m 290.559,675.105 h 0.48 v 0.48 h -0.48 z" /><path
       id="path668"
       style="fill:#000000;fill-opacity:1;fill-rule:nonzero;stroke:none"
       d="m 291.039,675.105 h 56.16 v 0.48 h -56.16 z" /><path
       id="path670"
       style="fill:#000000;fill-opacity:1;fill-rule:nonzero;stroke:none"
       d="m 347.199,645.105 h 0.48 v 30 h -0.48 z" /><path
       id="path672"
       style="fill:#000000;fill-opacity:1;fill-rule:nonzero;stroke:none"
       d="m 347.199,675.105 h 0.48 v 0.48 h -0.48 z" /><path
       id="path674"
       style="fill:#000000;fill-opacity:1;fill-rule:nonzero;stroke:none"
       d="m 347.68,675.105 h 141.117 v 0.48 H 347.68 Z" /><path
       id="path676"
       style="fill:#000000;fill-opacity:1;fill-rule:nonzero;stroke:none"
       d="m 488.797,645.105 h 0.48 v 30 h -0.48 z" /><path
       id="path678"
       style="fill:#000000;fill-opacity:1;fill-rule:nonzero;stroke:none"
       d="m 488.797,675.105 h 0.48 v 0.48 h -0.48 z" /><path
       id="path680"
       style="fill:#000000;fill-opacity:1;fill-rule:nonzero;stroke:none"
       d="m 489.277,675.105 h 48.48 v 0.48 h -48.48 z" /><path
       id="path682"
       style="fill:#000000;fill-opacity:1;fill-rule:nonzero;stroke:none"
       d="m 537.758,645.105 h 0.48 v 30 h -0.48 z" /><path
       id="path684"
       style="fill:#000000;fill-opacity:1;fill-rule:nonzero;stroke:none"
       d="m 537.758,675.105 h 0.48 v 0.48 h -0.48 z" /><path
       id="path686"
       style="fill:#000000;fill-opacity:1;fill-rule:nonzero;stroke:none"
       d="m 537.758,675.105 h 0.48 v 0.48 h -0.48 z" /></g></svg>