<?xml version="1.0" encoding="UTF-8" standalone="no"?>
<svg
   xmlns:dc="http://purl.org/dc/elements/1.1/"
   xmlns:cc="http://creativecommons.org/ns#"
   xmlns:rdf="http://www.w3.org/1999/02/22-rdf-syntax-ns#"
   xmlns:svg="http://www.w3.org/2000/svg"
   xmlns="http://www.w3.org/2000/svg"
   viewBox="0 0 542.71863 128.32134"
   height="128.32133"
   width="542.71863"
   xml:space="preserve"
   id="svg2"
   version="1.1"><metadata
     id="metadata8"><rdf:RDF><cc:Work
         rdf:about=""><dc:format>image/svg+xml</dc:format><dc:type
           rdf:resource="http://purl.org/dc/dcmitype/StillImage" /><dc:title></dc:title></cc:Work></rdf:RDF></metadata><defs
     id="defs6"><clipPath
       id="clipPath230"
       clipPathUnits="userSpaceOnUse"><path
         id="path228"
         d="m 100,187 h 3 v 9.305 h -3 z" /></clipPath><clipPath
       id="clipPath248"
       clipPathUnits="userSpaceOnUse"><path
         id="path246"
         d="m 143,187 h 4 v 9.305 h -4 z" /></clipPath><clipPath
       id="clipPath358"
       clipPathUnits="userSpaceOnUse"><path
         id="path356"
         d="m 100,214 h 3 v 8.703 h -3 z" /></clipPath><clipPath
       id="clipPath376"
       clipPathUnits="userSpaceOnUse"><path
         id="path374"
         d="m 143,214 h 4 v 8.703 h -4 z" /></clipPath><clipPath
       id="clipPath658"
       clipPathUnits="userSpaceOnUse"><path
         id="path656"
         d="M 72,376 H 303 V 605 H 72 Z" /></clipPath><clipPath
       id="clipPath664"
       clipPathUnits="userSpaceOnUse"><path
         id="path662"
         d="M 120.152,688.605 565.297,243.461 475.125,153.285 29.977,598.43 Z" /></clipPath><clipPath
       id="clipPath676"
       clipPathUnits="userSpaceOnUse"><path
         id="path674"
         d="M 286,199 H 481 V 391 H 286 Z" /></clipPath><clipPath
       id="clipPath682"
       clipPathUnits="userSpaceOnUse"><path
         id="path680"
         d="M 120.152,688.605 565.297,243.461 475.125,153.285 29.977,598.43 Z" /></clipPath><clipPath
       id="clipPath694"
       clipPathUnits="userSpaceOnUse"><path
         id="path692"
         d="M 86,508 H 260 V 680 H 86 Z" /></clipPath><clipPath
       id="clipPath700"
       clipPathUnits="userSpaceOnUse"><path
         id="path698"
         d="M 120.152,688.605 565.297,243.461 475.125,153.285 29.977,598.43 Z" /></clipPath><clipPath
       id="clipPath712"
       clipPathUnits="userSpaceOnUse"><path
         id="path710"
         d="m 243,446 h 79 v 77 h -79 z" /></clipPath><clipPath
       id="clipPath718"
       clipPathUnits="userSpaceOnUse"><path
         id="path716"
         d="M 120.152,688.605 565.297,243.461 475.125,153.285 29.977,598.43 Z" /></clipPath><clipPath
       id="clipPath730"
       clipPathUnits="userSpaceOnUse"><path
         id="path728"
         d="M 308,330 H 438 V 459 H 308 Z" /></clipPath><clipPath
       id="clipPath736"
       clipPathUnits="userSpaceOnUse"><path
         id="path734"
         d="M 120.152,688.605 565.297,243.461 475.125,153.285 29.977,598.43 Z" /></clipPath><clipPath
       id="clipPath748"
       clipPathUnits="userSpaceOnUse"><path
         id="path746"
         d="M 424,210 H 556 V 343 H 424 Z" /></clipPath><clipPath
       id="clipPath754"
       clipPathUnits="userSpaceOnUse"><path
         id="path752"
         d="M 120.152,688.605 565.297,243.461 475.125,153.285 29.977,598.43 Z" /></clipPath></defs><g
     transform="matrix(1.3333333,0,0,1.3333333,-125.65066,-208.29733)"
     id="g10"><path
       d="m 94.719,156.703 h 70.078 v 16.082 H 94.719 Z"
       style="fill:#deeaf6;fill-opacity:1;fill-rule:evenodd;stroke:none"
       id="path88" /><path
       d="m 99.758,159.586 h 60 v 10.32 h -60 z"
       style="fill:#deeaf6;fill-opacity:1;fill-rule:nonzero;stroke:none"
       id="path90" /><text
       y="167.98488"
       x="99.757797"
       style="font-variant:normal;font-weight:bold;font-size:9.11999989px;font-family:TimesNewRomanPS-BoldMT;-inkscape-font-specification:TimesNewRomanPS-BoldMT;writing-mode:lr-tb;fill:#000000;fill-opacity:1;fill-rule:nonzero;stroke:none"
       id="text94"><tspan
         x="99.757797 106.23299 111.27635 113.90292 116.78484 120.38724 122.54868 127.82004 130.2186 133.81187 140.04996"
         y="167.98488"
         id="tspan92">Units = °C </tspan></text>
<path
       d="m 165.277,156.703 h 67.68 v 16.082 h -67.68 z"
       style="fill:#deeaf6;fill-opacity:1;fill-rule:evenodd;stroke:none"
       id="path96" /><path
       d="m 170.559,159.586 h 57.121 v 10.32 h -57.121 z"
       style="fill:#deeaf6;fill-opacity:1;fill-rule:nonzero;stroke:none"
       id="path98" /><text
       y="167.98488"
       x="182.07779"
       style="font-variant:normal;font-weight:bold;font-size:9.11999989px;font-family:TimesNewRomanPS-BoldMT;-inkscape-font-specification:TimesNewRomanPS-BoldMT;writing-mode:lr-tb;fill:#000000;fill-opacity:1;fill-rule:nonzero;stroke:none"
       id="text102"><tspan
         x="182.07779 187.12115 192.16451 197.67299 202.23299 205.34291 209.66579 212.07347 216.38724"
         y="167.98488"
         id="tspan100">SSP1-1.9 </tspan></text>
<path
       d="m 233.438,156.703 h 58.801 v 16.082 h -58.801 z"
       style="fill:#deeaf6;fill-opacity:1;fill-rule:evenodd;stroke:none"
       id="path104" /><path
       d="m 238.477,159.586 h 48.48 v 10.32 h -48.48 z"
       style="fill:#deeaf6;fill-opacity:1;fill-rule:nonzero;stroke:none"
       id="path106" /><text
       y="167.98488"
       x="245.43779"
       style="font-variant:normal;font-weight:bold;font-size:9.11999989px;font-family:TimesNewRomanPS-BoldMT;-inkscape-font-specification:TimesNewRomanPS-BoldMT;writing-mode:lr-tb;fill:#000000;fill-opacity:1;fill-rule:nonzero;stroke:none"
       id="text110"><tspan
         x="245.43779 250.48116 255.52451 261.03299 265.59299 268.70291 273.02579 275.43347 279.74722"
         y="167.98488"
         id="tspan108">SSP1-2.6 </tspan></text>
<path
       d="m 292.719,156.703 h 58.801 v 16.082 h -58.801 z"
       style="fill:#deeaf6;fill-opacity:1;fill-rule:evenodd;stroke:none"
       id="path112" /><path
       d="m 297.758,159.586 h 48.48 v 10.32 h -48.48 z"
       style="fill:#deeaf6;fill-opacity:1;fill-rule:nonzero;stroke:none"
       id="path114" /><text
       y="167.98488"
       x="304.7178"
       style="font-variant:normal;font-weight:bold;font-size:9.11999989px;font-family:TimesNewRomanPS-BoldMT;-inkscape-font-specification:TimesNewRomanPS-BoldMT;writing-mode:lr-tb;fill:#000000;fill-opacity:1;fill-rule:nonzero;stroke:none"
       id="text118"><tspan
         x="304.7178 309.76114 314.8045 320.31299 324.87299 327.98291 332.30579 334.71347 339.02722"
         y="167.98488"
         id="tspan116">SSP2-4.5 </tspan></text>
<path
       d="m 351.996,156.703 h 70.082 v 16.082 h -70.082 z"
       style="fill:#deeaf6;fill-opacity:1;fill-rule:evenodd;stroke:none"
       id="path120" /><path
       d="m 357.039,159.586 h 60 v 10.32 h -60 z"
       style="fill:#deeaf6;fill-opacity:1;fill-rule:nonzero;stroke:none"
       id="path122" /><text
       y="167.98488"
       x="369.75778"
       style="font-variant:normal;font-weight:bold;font-size:9.11999989px;font-family:TimesNewRomanPS-BoldMT;-inkscape-font-specification:TimesNewRomanPS-BoldMT;writing-mode:lr-tb;fill:#000000;fill-opacity:1;fill-rule:nonzero;stroke:none"
       id="text126"><tspan
         x="369.75778 374.80115 379.84451 385.353 389.91299 393.02292 397.34579 399.75348 404.07635"
         y="167.98488"
         id="tspan124">SSP3-7.0 </tspan></text>
<path
       d="m 422.559,156.703 h 78 v 16.082 h -78 z"
       style="fill:#deeaf6;fill-opacity:1;fill-rule:evenodd;stroke:none"
       id="path128" /><path
       d="m 427.836,159.586 h 67.684 v 10.32 h -67.684 z"
       style="fill:#deeaf6;fill-opacity:1;fill-rule:nonzero;stroke:none"
       id="path130" /><text
       y="167.98488"
       x="444.3978"
       style="font-variant:normal;font-weight:bold;font-size:9.11999989px;font-family:TimesNewRomanPS-BoldMT;-inkscape-font-specification:TimesNewRomanPS-BoldMT;writing-mode:lr-tb;fill:#000000;fill-opacity:1;fill-rule:nonzero;stroke:none"
       id="text134"><tspan
         x="444.3978 449.44116 454.4845 459.99298 464.55298 467.6629 471.98578 474.39346 478.70724"
         y="167.98488"
         id="tspan132">SSP5-8.5 </tspan></text>
<path
       d="m 94.238,156.223 h 0.48 v 3.363 h -0.48 z"
       style="fill:#000000;fill-opacity:1;fill-rule:nonzero;stroke:none"
       id="path136" /><path
       d="m 94.238,156.223 h 0.48 v 0.48 h -0.48 z"
       style="fill:#000000;fill-opacity:1;fill-rule:nonzero;stroke:none"
       id="path138" /><path
       d="m 94.719,156.223 h 70.078 v 0.48 H 94.719 Z"
       style="fill:#000000;fill-opacity:1;fill-rule:nonzero;stroke:none"
       id="path140" /><path
       d="m 94.719,156.703 h 70.078 v 2.883 H 94.719 Z"
       style="fill:#deeaf6;fill-opacity:1;fill-rule:evenodd;stroke:none"
       id="path142" /><path
       d="m 164.797,156.703 h 0.48 v 2.883 h -0.48 z"
       style="fill:#000000;fill-opacity:1;fill-rule:nonzero;stroke:none"
       id="path144" /><path
       d="m 164.797,156.223 h 0.48 v 0.48 h -0.48 z"
       style="fill:#000000;fill-opacity:1;fill-rule:nonzero;stroke:none"
       id="path146" /><path
       d="m 165.277,156.223 h 67.68 v 0.48 h -67.68 z"
       style="fill:#000000;fill-opacity:1;fill-rule:nonzero;stroke:none"
       id="path148" /><path
       d="m 165.277,156.703 h 67.68 v 2.883 h -67.68 z"
       style="fill:#deeaf6;fill-opacity:1;fill-rule:evenodd;stroke:none"
       id="path150" /><path
       d="m 232.957,156.703 h 0.48 v 2.883 h -0.48 z"
       style="fill:#000000;fill-opacity:1;fill-rule:nonzero;stroke:none"
       id="path152" /><path
       d="m 232.957,156.223 h 0.48 v 0.48 h -0.48 z"
       style="fill:#000000;fill-opacity:1;fill-rule:nonzero;stroke:none"
       id="path154" /><path
       d="m 233.438,156.223 h 58.801 v 0.48 h -58.801 z"
       style="fill:#000000;fill-opacity:1;fill-rule:nonzero;stroke:none"
       id="path156" /><path
       d="m 233.438,156.703 h 58.801 v 2.883 h -58.801 z"
       style="fill:#deeaf6;fill-opacity:1;fill-rule:evenodd;stroke:none"
       id="path158" /><path
       d="m 292.238,156.703 h 0.48 v 2.883 h -0.48 z"
       style="fill:#000000;fill-opacity:1;fill-rule:nonzero;stroke:none"
       id="path160" /><path
       d="m 292.238,156.223 h 0.48 v 0.48 h -0.48 z"
       style="fill:#000000;fill-opacity:1;fill-rule:nonzero;stroke:none"
       id="path162" /><path
       d="m 292.719,156.223 h 58.801 v 0.48 h -58.801 z"
       style="fill:#000000;fill-opacity:1;fill-rule:nonzero;stroke:none"
       id="path164" /><path
       d="m 292.719,156.703 h 58.801 v 2.883 h -58.801 z"
       style="fill:#deeaf6;fill-opacity:1;fill-rule:evenodd;stroke:none"
       id="path166" /><path
       d="m 351.52,156.703 h 0.477 v 2.883 h -0.477 z"
       style="fill:#000000;fill-opacity:1;fill-rule:nonzero;stroke:none"
       id="path168" /><path
       d="m 351.52,156.223 h 0.477 v 0.48 h -0.477 z"
       style="fill:#000000;fill-opacity:1;fill-rule:nonzero;stroke:none"
       id="path170" /><path
       d="m 351.996,156.223 h 70.324 v 0.48 h -70.324 z"
       style="fill:#000000;fill-opacity:1;fill-rule:nonzero;stroke:none"
       id="path172" /><path
       d="m 351.996,156.703 h 70.32 v 2.883 h -70.32 z"
       style="fill:#deeaf6;fill-opacity:1;fill-rule:evenodd;stroke:none"
       id="path174" /><path
       d="m 422.316,156.703 h 0.48 v 2.883 h -0.48 z"
       style="fill:#000000;fill-opacity:1;fill-rule:nonzero;stroke:none"
       id="path176" /><path
       d="m 422.316,156.223 h 0.48 v 0.48 h -0.48 z"
       style="fill:#000000;fill-opacity:1;fill-rule:nonzero;stroke:none"
       id="path178" /><path
       d="m 422.797,156.223 h 78 v 0.48 h -78 z"
       style="fill:#000000;fill-opacity:1;fill-rule:nonzero;stroke:none"
       id="path180" /><path
       d="m 422.797,156.703 h 78 v 2.883 h -78 z"
       style="fill:#deeaf6;fill-opacity:1;fill-rule:evenodd;stroke:none"
       id="path182" /><path
       d="m 500.797,156.223 h 0.48 v 3.363 h -0.48 z"
       style="fill:#000000;fill-opacity:1;fill-rule:nonzero;stroke:none"
       id="path184" /><path
       d="m 500.797,156.223 h 0.48 v 0.48 h -0.48 z"
       style="fill:#000000;fill-opacity:1;fill-rule:nonzero;stroke:none"
       id="path186" /><path
       d="m 94.477,169.906 h 70.562 v 2.879 H 94.477 Z"
       style="fill:#deeaf6;fill-opacity:1;fill-rule:evenodd;stroke:none"
       id="path188" /><path
       d="m 94.238,159.586 h 0.48 v 13.199 h -0.48 z"
       style="fill:#000000;fill-opacity:1;fill-rule:nonzero;stroke:none"
       id="path190" /><path
       d="m 165.039,169.906 h 68.16 v 2.879 h -68.16 z"
       style="fill:#deeaf6;fill-opacity:1;fill-rule:evenodd;stroke:none"
       id="path192" /><path
       d="m 164.797,159.586 h 0.48 v 13.199 h -0.48 z"
       style="fill:#000000;fill-opacity:1;fill-rule:nonzero;stroke:none"
       id="path194" /><path
       d="m 233.199,169.906 h 59.277 v 2.879 h -59.277 z"
       style="fill:#deeaf6;fill-opacity:1;fill-rule:evenodd;stroke:none"
       id="path196" /><path
       d="m 232.957,159.586 h 0.48 v 13.199 h -0.48 z"
       style="fill:#000000;fill-opacity:1;fill-rule:nonzero;stroke:none"
       id="path198" /><path
       d="m 292.477,169.906 h 59.281 v 2.879 h -59.281 z"
       style="fill:#deeaf6;fill-opacity:1;fill-rule:evenodd;stroke:none"
       id="path200" /><path
       d="m 292.238,159.586 h 0.48 v 13.199 h -0.48 z"
       style="fill:#000000;fill-opacity:1;fill-rule:nonzero;stroke:none"
       id="path202" /><path
       d="m 351.758,169.906 h 70.801 v 2.879 h -70.801 z"
       style="fill:#deeaf6;fill-opacity:1;fill-rule:evenodd;stroke:none"
       id="path204" /><path
       d="m 351.52,159.586 h 0.477 v 13.199 h -0.477 z"
       style="fill:#000000;fill-opacity:1;fill-rule:nonzero;stroke:none"
       id="path206" /><path
       d="m 422.559,169.906 h 78.48 v 2.879 h -78.48 z"
       style="fill:#deeaf6;fill-opacity:1;fill-rule:evenodd;stroke:none"
       id="path208" /><path
       d="m 422.316,159.586 h 0.48 v 13.199 h -0.48 z"
       style="fill:#000000;fill-opacity:1;fill-rule:nonzero;stroke:none"
       id="path210" /><path
       d="m 500.797,159.586 h 0.48 v 13.199 h -0.48 z"
       style="fill:#000000;fill-opacity:1;fill-rule:nonzero;stroke:none"
       id="path212" /><path
       d="m 94.719,172.785 h 70.078 v 26.398 H 94.719 Z"
       style="fill:#fff2cc;fill-opacity:1;fill-rule:evenodd;stroke:none"
       id="path214" /><path
       d="m 99.758,175.664 h 60 v 10.32 h -60 z"
       style="fill:#fff2cc;fill-opacity:1;fill-rule:nonzero;stroke:none"
       id="path216" /><text
       y="183.82487"
       x="99.757797"
       style="font-variant:normal;font-weight:normal;font-size:9.11999989px;font-family:TimesNewRomanPSMT;-inkscape-font-specification:TimesNewRomanPSMT;writing-mode:lr-tb;fill:#000000;fill-opacity:1;fill-rule:nonzero;stroke:none"
       id="text220"><tspan
         x="99.757797 106.23299 110.30963 114.37715 117.25907 119.65763 122.0562 126.12371 129.24275 135.95508"
         y="183.82487"
         id="tspan218">Near term </tspan></text>
<path
       d="m 99.758,185.984 h 60 v 10.32 h -60 z"
       style="fill:#fff2cc;fill-opacity:1;fill-rule:nonzero;stroke:none"
       id="path222" /><g
       id="g224"><g
         clip-path="url(#clipPath230)"
         id="g226"><text
           id="text234"
           style="font-variant:normal;font-weight:normal;font-size:9.11999989px;font-family:TimesNewRomanPSMT;-inkscape-font-specification:TimesNewRomanPSMT;writing-mode:lr-tb;fill:#000000;fill-opacity:1;fill-rule:nonzero;stroke:none"
           transform="translate(99.757795,194.14488)"><tspan
             id="tspan232"
             y="0"
             x="0">(</tspan></text>
</g></g><g
       id="g236"><text
         id="text240"
         style="font-variant:normal;font-weight:normal;font-size:9.11999989px;font-family:TimesNewRomanPSMT;-inkscape-font-specification:TimesNewRomanPSMT;writing-mode:lr-tb;fill:#000000;fill-opacity:1;fill-rule:nonzero;stroke:none"
         transform="translate(102.87779,194.14488)"><tspan
           id="tspan238"
           y="0"
           x="0 4.5599999 9.1199999 13.44288 18.00288 22.56288 27.122881 31.43664 35.996639">2021–2040</tspan></text>
</g><g
       id="g242"><g
         clip-path="url(#clipPath248)"
         id="g244"><text
           id="text252"
           style="font-variant:normal;font-weight:normal;font-size:9.11999989px;font-family:TimesNewRomanPSMT;-inkscape-font-specification:TimesNewRomanPSMT;writing-mode:lr-tb;fill:#000000;fill-opacity:1;fill-rule:nonzero;stroke:none"
           transform="translate(143.43779,194.14488)"><tspan
             id="tspan250"
             y="0"
             x="0 2.8819201">) </tspan></text>
</g></g><g
       id="g254"><path
         id="path256"
         style="fill:#fff2cc;fill-opacity:1;fill-rule:evenodd;stroke:none"
         d="m 165.277,172.785 h 67.68 v 26.398 h -67.68 z" /><path
         id="path258"
         style="fill:#fff2cc;fill-opacity:1;fill-rule:nonzero;stroke:none"
         d="m 170.559,175.664 h 57.121 v 10.32 h -57.121 z" /><text
         id="text262"
         style="font-variant:normal;font-weight:normal;font-size:9.11999989px;font-family:TimesNewRomanPSMT;-inkscape-font-specification:TimesNewRomanPSMT;writing-mode:lr-tb;fill:#000000;fill-opacity:1;fill-rule:nonzero;stroke:none"
         transform="translate(175.83779,183.82488)"><tspan
           id="tspan260"
           y="0"
           x="0 4.5599999 6.95856 11.28144 13.68 16.56192 21.12192 23.520479 27.843361 30.004801 32.403358 36.726238 39.124802 43.684799 46.557598">0.2 (0.1, 0.3) </tspan></text>
<path
         id="path264"
         style="fill:#fff2cc;fill-opacity:1;fill-rule:evenodd;stroke:none"
         d="m 233.438,172.785 h 58.801 v 26.398 h -58.801 z" /><path
         id="path266"
         style="fill:#fff2cc;fill-opacity:1;fill-rule:nonzero;stroke:none"
         d="m 238.477,175.664 h 48.48 v 10.32 h -48.48 z" /><text
         id="text270"
         style="font-variant:normal;font-weight:normal;font-size:9.11999989px;font-family:TimesNewRomanPSMT;-inkscape-font-specification:TimesNewRomanPSMT;writing-mode:lr-tb;fill:#000000;fill-opacity:1;fill-rule:nonzero;stroke:none"
         transform="translate(239.43779,183.82488)"><tspan
           id="tspan268"
           y="0"
           x="0 4.5599999 6.95856 11.28144 13.68 16.56192 21.12192 23.520479 27.843361 30.004801 32.403358 36.726238 39.124802 43.684799 46.557598">0.2 (0.1, 0.3) </tspan></text>
<path
         id="path272"
         style="fill:#fff2cc;fill-opacity:1;fill-rule:evenodd;stroke:none"
         d="m 292.719,172.785 h 58.801 v 26.398 h -58.801 z" /><path
         id="path274"
         style="fill:#fff2cc;fill-opacity:1;fill-rule:nonzero;stroke:none"
         d="m 297.758,175.664 h 48.48 v 10.32 h -48.48 z" /><text
         id="text278"
         style="font-variant:normal;font-weight:normal;font-size:9.11999989px;font-family:TimesNewRomanPSMT;-inkscape-font-specification:TimesNewRomanPSMT;writing-mode:lr-tb;fill:#000000;fill-opacity:1;fill-rule:nonzero;stroke:none"
         transform="translate(298.71779,183.82488)"><tspan
           id="tspan276"
           y="0"
           x="0 4.5599999 6.95856 11.28144 13.68 16.56192 21.12192 23.520479 27.843361 30.004801 32.403358 36.726238 39.124802 43.684799 46.557598">0.2 (0.1, 0.3) </tspan></text>
<path
         id="path280"
         style="fill:#fff2cc;fill-opacity:1;fill-rule:evenodd;stroke:none"
         d="m 351.996,172.785 h 70.082 v 26.398 h -70.082 z" /><path
         id="path282"
         style="fill:#fff2cc;fill-opacity:1;fill-rule:nonzero;stroke:none"
         d="m 357.039,175.664 h 60 v 10.32 h -60 z" /><text
         id="text286"
         style="font-variant:normal;font-weight:normal;font-size:9.11999989px;font-family:TimesNewRomanPSMT;-inkscape-font-specification:TimesNewRomanPSMT;writing-mode:lr-tb;fill:#000000;fill-opacity:1;fill-rule:nonzero;stroke:none"
         transform="translate(363.75779,183.82488)"><tspan
           id="tspan284"
           y="0"
           x="0 4.5599999 6.95856 11.28144 13.68 16.56192 21.12192 23.520479 27.843361 30.004801 32.403358 36.726238 39.124802 43.684799 46.557598">0.2 (0.1, 0.3) </tspan></text>
<path
         id="path288"
         style="fill:#fff2cc;fill-opacity:1;fill-rule:evenodd;stroke:none"
         d="m 422.559,172.785 h 78 v 26.398 h -78 z" /><path
         id="path290"
         style="fill:#fff2cc;fill-opacity:1;fill-rule:nonzero;stroke:none"
         d="m 427.836,175.664 h 67.684 v 10.32 h -67.684 z" /><text
         id="text294"
         style="font-variant:normal;font-weight:normal;font-size:9.11999989px;font-family:TimesNewRomanPSMT;-inkscape-font-specification:TimesNewRomanPSMT;writing-mode:lr-tb;fill:#000000;fill-opacity:1;fill-rule:nonzero;stroke:none"
         transform="translate(438.39779,183.82488)"><tspan
           id="tspan292"
           y="0"
           x="0 4.5599999 6.95856 11.28144 13.68 16.56192 21.12192 23.520479 27.843361 30.004801 32.403358 36.726238 39.124802 43.684799 46.557598">0.3 (0.2, 0.4) </tspan></text>
<path
         id="path296"
         style="fill:#000000;fill-opacity:1;fill-rule:nonzero;stroke:none"
         d="m 94.238,172.785 h 0.48 v 2.879 h -0.48 z" /><path
         id="path298"
         style="fill:#fff2cc;fill-opacity:1;fill-rule:evenodd;stroke:none"
         d="m 94.719,172.785 h 70.078 v 2.879 H 94.719 Z" /><path
         id="path300"
         style="fill:#000000;fill-opacity:1;fill-rule:nonzero;stroke:none"
         d="m 164.797,172.785 h 0.48 v 2.879 h -0.48 z" /><path
         id="path302"
         style="fill:#fff2cc;fill-opacity:1;fill-rule:evenodd;stroke:none"
         d="m 165.277,172.785 h 67.68 v 2.879 h -67.68 z" /><path
         id="path304"
         style="fill:#000000;fill-opacity:1;fill-rule:nonzero;stroke:none"
         d="m 232.957,172.785 h 0.48 v 2.879 h -0.48 z" /><path
         id="path306"
         style="fill:#fff2cc;fill-opacity:1;fill-rule:evenodd;stroke:none"
         d="m 233.438,172.785 h 58.801 v 2.879 h -58.801 z" /><path
         id="path308"
         style="fill:#000000;fill-opacity:1;fill-rule:nonzero;stroke:none"
         d="m 292.238,172.785 h 0.48 v 2.879 h -0.48 z" /><path
         id="path310"
         style="fill:#fff2cc;fill-opacity:1;fill-rule:evenodd;stroke:none"
         d="m 292.719,172.785 h 58.801 v 2.879 h -58.801 z" /><path
         id="path312"
         style="fill:#000000;fill-opacity:1;fill-rule:nonzero;stroke:none"
         d="m 351.52,172.785 h 0.477 v 2.879 h -0.477 z" /><path
         id="path314"
         style="fill:#fff2cc;fill-opacity:1;fill-rule:evenodd;stroke:none"
         d="m 351.996,172.785 h 70.32 v 2.879 h -70.32 z" /><path
         id="path316"
         style="fill:#000000;fill-opacity:1;fill-rule:nonzero;stroke:none"
         d="m 422.316,172.785 h 0.48 v 2.879 h -0.48 z" /><path
         id="path318"
         style="fill:#fff2cc;fill-opacity:1;fill-rule:evenodd;stroke:none"
         d="m 422.797,172.785 h 78 v 2.879 h -78 z" /><path
         id="path320"
         style="fill:#000000;fill-opacity:1;fill-rule:nonzero;stroke:none"
         d="m 500.797,172.785 h 0.48 v 2.879 h -0.48 z" /><path
         id="path322"
         style="fill:#fff2cc;fill-opacity:1;fill-rule:evenodd;stroke:none"
         d="m 94.477,196.305 h 70.562 v 2.879 H 94.477 Z" /><path
         id="path324"
         style="fill:#000000;fill-opacity:1;fill-rule:nonzero;stroke:none"
         d="m 94.238,175.664 h 0.48 v 23.52 h -0.48 z" /><path
         id="path326"
         style="fill:#fff2cc;fill-opacity:1;fill-rule:evenodd;stroke:none"
         d="m 165.039,196.305 h 68.16 v 2.879 h -68.16 z" /><path
         id="path328"
         style="fill:#000000;fill-opacity:1;fill-rule:nonzero;stroke:none"
         d="m 164.797,175.664 h 0.48 v 23.52 h -0.48 z" /><path
         id="path330"
         style="fill:#fff2cc;fill-opacity:1;fill-rule:evenodd;stroke:none"
         d="m 233.199,196.305 h 59.277 v 2.879 h -59.277 z" /><path
         id="path332"
         style="fill:#000000;fill-opacity:1;fill-rule:nonzero;stroke:none"
         d="m 232.957,175.664 h 0.48 v 23.52 h -0.48 z" /><path
         id="path334"
         style="fill:#fff2cc;fill-opacity:1;fill-rule:evenodd;stroke:none"
         d="m 292.477,196.305 h 59.281 v 2.879 h -59.281 z" /><path
         id="path336"
         style="fill:#000000;fill-opacity:1;fill-rule:nonzero;stroke:none"
         d="m 292.238,175.664 h 0.48 v 23.52 h -0.48 z" /><path
         id="path338"
         style="fill:#fff2cc;fill-opacity:1;fill-rule:evenodd;stroke:none"
         d="m 351.758,196.305 h 70.801 v 2.879 h -70.801 z" /><path
         id="path340"
         style="fill:#000000;fill-opacity:1;fill-rule:nonzero;stroke:none"
         d="m 351.52,175.664 h 0.477 v 23.52 h -0.477 z" /><path
         id="path342"
         style="fill:#fff2cc;fill-opacity:1;fill-rule:evenodd;stroke:none"
         d="m 422.559,196.305 h 78.48 v 2.879 h -78.48 z" /><path
         id="path344"
         style="fill:#000000;fill-opacity:1;fill-rule:nonzero;stroke:none"
         d="m 422.316,175.664 h 0.48 v 23.52 h -0.48 z" /><path
         id="path346"
         style="fill:#000000;fill-opacity:1;fill-rule:nonzero;stroke:none"
         d="m 500.797,175.664 h 0.48 v 23.52 h -0.48 z" /><text
         id="text350"
         style="font-variant:normal;font-weight:normal;font-size:9.11999989px;font-family:TimesNewRomanPSMT;-inkscape-font-specification:TimesNewRomanPSMT;writing-mode:lr-tb;fill:#000000;fill-opacity:1;fill-rule:nonzero;stroke:none"
         transform="translate(99.757795,210.22488)"><tspan
           id="tspan348"
           y="0"
           x="0 8.1624002 10.79808 15.35808 17.993759 20.620319 24.69696 27.816 34.52832">Mid-term </tspan></text>
</g><g
       id="g352"><g
         clip-path="url(#clipPath358)"
         id="g354"><text
           id="text362"
           style="font-variant:normal;font-weight:normal;font-size:9.11999989px;font-family:TimesNewRomanPSMT;-inkscape-font-specification:TimesNewRomanPSMT;writing-mode:lr-tb;fill:#000000;fill-opacity:1;fill-rule:nonzero;stroke:none"
           transform="translate(99.757795,220.54488)"><tspan
             id="tspan360"
             y="0"
             x="0">(</tspan></text>
</g></g><g
       id="g364"><text
         id="text368"
         style="font-variant:normal;font-weight:normal;font-size:9.11999989px;font-family:TimesNewRomanPSMT;-inkscape-font-specification:TimesNewRomanPSMT;writing-mode:lr-tb;fill:#000000;fill-opacity:1;fill-rule:nonzero;stroke:none"
         transform="translate(102.87779,220.54488)"><tspan
           id="tspan366"
           y="0"
           x="0 4.5599999 9.1199999 13.44288 18.00288 22.56288 27.122881 31.43664 35.996639">2041–2060</tspan></text>
</g><g
       id="g370"><g
         clip-path="url(#clipPath376)"
         id="g372"><text
           id="text380"
           style="font-variant:normal;font-weight:normal;font-size:9.11999989px;font-family:TimesNewRomanPSMT;-inkscape-font-specification:TimesNewRomanPSMT;writing-mode:lr-tb;fill:#000000;fill-opacity:1;fill-rule:nonzero;stroke:none"
           transform="translate(143.43779,220.54488)"><tspan
             id="tspan378"
             y="0"
             x="0 2.8819201">) </tspan></text>
</g></g><text
       y="210.22488"
       x="175.83778"
       style="font-variant:normal;font-weight:normal;font-size:9.11999989px;font-family:TimesNewRomanPSMT;-inkscape-font-specification:TimesNewRomanPSMT;writing-mode:lr-tb;fill:#000000;fill-opacity:1;fill-rule:nonzero;stroke:none"
       id="text386"><tspan
         x="175.83778 180.3978 182.79636 187.11923 189.51779 192.3997 196.95972 199.35828 203.68115 205.84259 208.24115 212.56403 214.96259 219.52258 222.39539 239.44067 244.00067 246.39923 250.72211 253.12067 256.00259 260.56259 262.96115 267.28403 269.44547 271.84402 276.1669 278.56546 283.12546 285.99826 298.72067 303.28067 305.67923 310.00211 312.40067 315.28259 319.84259 322.24115 326.56403 328.72546 331.12402 335.4469 337.84546 342.40546 345.27826 363.7554 368.3154 370.71396 375.03683 377.43539 380.31732 384.87732 387.27588 391.59875 393.76019 396.15875 400.48163 402.88931 407.44931 410.31299 438.39349 442.95349 445.36115 449.68405 452.08261 454.95541 459.51541 461.92307 466.24597 468.40741 470.80597 475.12885 477.5274 482.0874 484.96021"
         y="210.22488"
         id="tspan384">0.2 (0.0, 0.4) 0.2 (0.0, 0.4) 0.3 (0.2, 0.4) 0.3 (0.2, 0.4) 0.5 (0.3, 0.7) </tspan></text>
<path
       d="m 94.238,199.184 h 0.48 v 2.883 h -0.48 z"
       style="fill:#000000;fill-opacity:1;fill-rule:nonzero;stroke:none"
       id="path388" /><path
       d="m 164.797,199.184 h 0.48 v 2.883 h -0.48 z"
       style="fill:#000000;fill-opacity:1;fill-rule:nonzero;stroke:none"
       id="path390" /><path
       d="m 232.957,199.184 h 0.48 v 2.883 h -0.48 z"
       style="fill:#000000;fill-opacity:1;fill-rule:nonzero;stroke:none"
       id="path392" /><path
       d="m 292.238,199.184 h 0.48 v 2.883 h -0.48 z"
       style="fill:#000000;fill-opacity:1;fill-rule:nonzero;stroke:none"
       id="path394" /><path
       d="m 351.52,199.184 h 0.477 v 2.883 h -0.477 z"
       style="fill:#000000;fill-opacity:1;fill-rule:nonzero;stroke:none"
       id="path396" /><path
       d="m 422.316,199.184 h 0.48 v 2.883 h -0.48 z"
       style="fill:#000000;fill-opacity:1;fill-rule:nonzero;stroke:none"
       id="path398" /><path
       d="m 500.797,199.184 h 0.48 v 2.883 h -0.48 z"
       style="fill:#000000;fill-opacity:1;fill-rule:nonzero;stroke:none"
       id="path400" /><path
       d="m 94.238,202.066 h 0.48 v 23.52 h -0.48 z"
       style="fill:#000000;fill-opacity:1;fill-rule:nonzero;stroke:none"
       id="path402" /><path
       d="m 164.797,202.066 h 0.48 v 23.52 h -0.48 z"
       style="fill:#000000;fill-opacity:1;fill-rule:nonzero;stroke:none"
       id="path404" /><path
       d="m 232.957,202.066 h 0.48 v 23.52 h -0.48 z"
       style="fill:#000000;fill-opacity:1;fill-rule:nonzero;stroke:none"
       id="path406" /><path
       d="m 292.238,202.066 h 0.48 v 23.52 h -0.48 z"
       style="fill:#000000;fill-opacity:1;fill-rule:nonzero;stroke:none"
       id="path408" /><path
       d="m 351.52,202.066 h 0.477 v 23.52 h -0.477 z"
       style="fill:#000000;fill-opacity:1;fill-rule:nonzero;stroke:none"
       id="path410" /><path
       d="m 422.316,202.066 h 0.48 v 23.52 h -0.48 z"
       style="fill:#000000;fill-opacity:1;fill-rule:nonzero;stroke:none"
       id="path412" /><path
       d="m 500.797,202.066 h 0.48 v 23.52 h -0.48 z"
       style="fill:#000000;fill-opacity:1;fill-rule:nonzero;stroke:none"
       id="path414" /><path
       d="m 94.719,225.586 h 70.078 v 26.398 H 94.719 Z"
       style="fill:#fff2cc;fill-opacity:1;fill-rule:evenodd;stroke:none"
       id="path416" /><path
       d="m 99.758,228.465 h 60 v 10.32 h -60 z"
       style="fill:#fff2cc;fill-opacity:1;fill-rule:nonzero;stroke:none"
       id="path418" /><text
       y="236.62488"
       x="99.757797"
       style="font-variant:normal;font-weight:normal;font-size:9.11999989px;font-family:TimesNewRomanPSMT;-inkscape-font-specification:TimesNewRomanPSMT;writing-mode:lr-tb;fill:#000000;fill-opacity:1;fill-rule:nonzero;stroke:none"
       id="text422"><tspan
         x="99.757797 105.26627 109.58916 114.14915 118.47203 120.8706 123.50627 127.57379 130.69284 137.64227"
         y="236.62488"
         id="tspan420">Long term </tspan></text>
<path
       d="m 99.758,238.785 h 60 v 10.32 h -60 z"
       style="fill:#fff2cc;fill-opacity:1;fill-rule:nonzero;stroke:none"
       id="path424" /><text
       y="246.94489"
       x="99.757797"
       style="font-variant:normal;font-weight:normal;font-size:9.11999989px;font-family:TimesNewRomanPSMT;-inkscape-font-specification:TimesNewRomanPSMT;writing-mode:lr-tb;fill:#000000;fill-opacity:1;fill-rule:nonzero;stroke:none"
       id="text428"><tspan
         x="99.757797 102.87684 107.43684 111.99683 116.31972 120.87971 125.43971 129.99971 134.31348 138.87347 143.43347 146.3154"
         y="246.94489"
         id="tspan426">(2081–2100) </tspan></text>
<path
       d="m 165.277,225.586 h 67.68 v 26.398 h -67.68 z"
       style="fill:#fff2cc;fill-opacity:1;fill-rule:evenodd;stroke:none"
       id="path430" /><path
       d="m 170.559,228.465 h 57.121 v 10.32 h -57.121 z"
       style="fill:#fff2cc;fill-opacity:1;fill-rule:nonzero;stroke:none"
       id="path432" /><text
       y="236.62488"
       x="174.3978"
       style="font-variant:normal;font-weight:normal;font-size:9.11999989px;font-family:TimesNewRomanPSMT;-inkscape-font-specification:TimesNewRomanPSMT;writing-mode:lr-tb;fill:#000000;fill-opacity:1;fill-rule:nonzero;stroke:none"
       id="text436"><tspan
         x="174.3978 178.95779 181.35635 185.67923 188.07779 191.19682 194.07875 198.40163 200.80019 205.12308 207.52164 209.9202 214.24307 216.64163 220.96451 223.83731"
         y="236.62488"
         id="tspan434">0.1 (-0.1, 0.4) </tspan></text>
<path
       d="m 233.438,225.586 h 58.801 v 26.398 h -58.801 z"
       style="fill:#fff2cc;fill-opacity:1;fill-rule:evenodd;stroke:none"
       id="path438" /><path
       d="m 238.477,228.465 h 48.48 v 10.32 h -48.48 z"
       style="fill:#fff2cc;fill-opacity:1;fill-rule:nonzero;stroke:none"
       id="path440" /><text
       y="236.62488"
       x="239.43779"
       style="font-variant:normal;font-weight:normal;font-size:9.11999989px;font-family:TimesNewRomanPSMT;-inkscape-font-specification:TimesNewRomanPSMT;writing-mode:lr-tb;fill:#000000;fill-opacity:1;fill-rule:nonzero;stroke:none"
       id="text444"><tspan
         x="239.43779 243.99779 246.39635 250.71922 253.1178 255.99971 260.55972 262.95828 267.28116 269.4426 271.84116 276.16403 278.56259 283.12259 285.99539"
         y="236.62488"
         id="tspan442">0.2 (0.0, 0.4) </tspan></text>
<path
       d="m 292.719,225.586 h 58.801 v 26.398 h -58.801 z"
       style="fill:#fff2cc;fill-opacity:1;fill-rule:evenodd;stroke:none"
       id="path446" /><path
       d="m 297.758,228.465 h 48.48 v 10.32 h -48.48 z"
       style="fill:#fff2cc;fill-opacity:1;fill-rule:nonzero;stroke:none"
       id="path448" /><text
       y="236.62488"
       x="298.7178"
       style="font-variant:normal;font-weight:normal;font-size:9.11999989px;font-family:TimesNewRomanPSMT;-inkscape-font-specification:TimesNewRomanPSMT;writing-mode:lr-tb;fill:#000000;fill-opacity:1;fill-rule:nonzero;stroke:none"
       id="text452"><tspan
         x="298.7178 303.2778 305.67636 309.99924 312.3978 315.27972 319.83972 322.23828 326.56116 328.7226 331.12115 335.44403 337.84259 342.40259 345.27539"
         y="236.62488"
         id="tspan450">0.3 (0.1, 0.6) </tspan></text>
<path
       d="m 351.996,225.586 h 70.082 v 26.398 h -70.082 z"
       style="fill:#fff2cc;fill-opacity:1;fill-rule:evenodd;stroke:none"
       id="path454" /><path
       d="m 357.039,228.465 h 60 v 10.32 h -60 z"
       style="fill:#fff2cc;fill-opacity:1;fill-rule:nonzero;stroke:none"
       id="path456" /><text
       y="236.62488"
       x="363.75778"
       style="font-variant:normal;font-weight:normal;font-size:9.11999989px;font-family:TimesNewRomanPSMT;-inkscape-font-specification:TimesNewRomanPSMT;writing-mode:lr-tb;fill:#000000;fill-opacity:1;fill-rule:nonzero;stroke:none"
       id="text460"><tspan
         x="363.75778 368.31778 370.71634 375.03922 377.43781 380.3197 384.8797 387.27826 391.60117 393.7626 396.16116 400.48404 402.8826 407.4426 410.3154"
         y="236.62488"
         id="tspan458">0.5 (0.4, 0.8) </tspan></text>
<path
       d="m 422.559,225.586 h 78 v 26.398 h -78 z"
       style="fill:#fff2cc;fill-opacity:1;fill-rule:evenodd;stroke:none"
       id="path462" /><path
       d="m 427.836,228.465 h 67.684 v 10.32 h -67.684 z"
       style="fill:#fff2cc;fill-opacity:1;fill-rule:nonzero;stroke:none"
       id="path464" /><text
       y="236.62488"
       x="438.3978"
       style="font-variant:normal;font-weight:normal;font-size:9.11999989px;font-family:TimesNewRomanPSMT;-inkscape-font-specification:TimesNewRomanPSMT;writing-mode:lr-tb;fill:#000000;fill-opacity:1;fill-rule:nonzero;stroke:none"
       id="text468"><tspan
         x="438.3978 442.95779 445.35635 449.67923 452.07779 454.95972 459.51971 461.91827 466.24115 468.39346 470.80115 475.12402 477.52258 482.08258 484.95538"
         y="236.62488"
         id="tspan466">0.7 (0.4, 1.0) </tspan></text>
<path
       d="m 94.238,225.586 h 0.48 v 2.879 h -0.48 z"
       style="fill:#000000;fill-opacity:1;fill-rule:nonzero;stroke:none"
       id="path470" /><path
       d="m 94.719,225.586 h 70.078 v 2.879 H 94.719 Z"
       style="fill:#fff2cc;fill-opacity:1;fill-rule:evenodd;stroke:none"
       id="path472" /><path
       d="m 164.797,225.586 h 0.48 v 2.879 h -0.48 z"
       style="fill:#000000;fill-opacity:1;fill-rule:nonzero;stroke:none"
       id="path474" /><path
       d="m 165.277,225.586 h 67.68 v 2.879 h -67.68 z"
       style="fill:#fff2cc;fill-opacity:1;fill-rule:evenodd;stroke:none"
       id="path476" /><path
       d="m 232.957,225.586 h 0.48 v 2.879 h -0.48 z"
       style="fill:#000000;fill-opacity:1;fill-rule:nonzero;stroke:none"
       id="path478" /><path
       d="m 233.438,225.586 h 58.801 v 2.879 h -58.801 z"
       style="fill:#fff2cc;fill-opacity:1;fill-rule:evenodd;stroke:none"
       id="path480" /><path
       d="m 292.238,225.586 h 0.48 v 2.879 h -0.48 z"
       style="fill:#000000;fill-opacity:1;fill-rule:nonzero;stroke:none"
       id="path482" /><path
       d="m 292.719,225.586 h 58.801 v 2.879 h -58.801 z"
       style="fill:#fff2cc;fill-opacity:1;fill-rule:evenodd;stroke:none"
       id="path484" /><path
       d="m 351.52,225.586 h 0.477 v 2.879 h -0.477 z"
       style="fill:#000000;fill-opacity:1;fill-rule:nonzero;stroke:none"
       id="path486" /><path
       d="m 351.996,225.586 h 70.32 v 2.879 h -70.32 z"
       style="fill:#fff2cc;fill-opacity:1;fill-rule:evenodd;stroke:none"
       id="path488" /><path
       d="m 422.316,225.586 h 0.48 v 2.879 h -0.48 z"
       style="fill:#000000;fill-opacity:1;fill-rule:nonzero;stroke:none"
       id="path490" /><path
       d="m 422.797,225.586 h 78 v 2.879 h -78 z"
       style="fill:#fff2cc;fill-opacity:1;fill-rule:evenodd;stroke:none"
       id="path492" /><path
       d="m 500.797,225.586 h 0.48 v 2.879 h -0.48 z"
       style="fill:#000000;fill-opacity:1;fill-rule:nonzero;stroke:none"
       id="path494" /><path
       d="m 94.477,249.105 h 70.562 v 2.879 H 94.477 Z"
       style="fill:#fff2cc;fill-opacity:1;fill-rule:evenodd;stroke:none"
       id="path496" /><path
       d="m 94.238,228.465 h 0.48 v 23.52 h -0.48 z"
       style="fill:#000000;fill-opacity:1;fill-rule:nonzero;stroke:none"
       id="path498" /><path
       d="m 94.238,251.984 h 0.48 v 0.48 h -0.48 z"
       style="fill:#000000;fill-opacity:1;fill-rule:nonzero;stroke:none"
       id="path500" /><path
       d="m 94.238,251.984 h 0.48 v 0.48 h -0.48 z"
       style="fill:#000000;fill-opacity:1;fill-rule:nonzero;stroke:none"
       id="path502" /><path
       d="m 94.719,251.984 h 70.078 v 0.48 H 94.719 Z"
       style="fill:#000000;fill-opacity:1;fill-rule:nonzero;stroke:none"
       id="path504" /><path
       d="m 165.039,249.105 h 68.16 v 2.879 h -68.16 z"
       style="fill:#fff2cc;fill-opacity:1;fill-rule:evenodd;stroke:none"
       id="path506" /><path
       d="m 164.797,228.465 h 0.48 v 23.52 h -0.48 z"
       style="fill:#000000;fill-opacity:1;fill-rule:nonzero;stroke:none"
       id="path508" /><path
       d="m 164.797,251.984 h 0.48 v 0.48 h -0.48 z"
       style="fill:#000000;fill-opacity:1;fill-rule:nonzero;stroke:none"
       id="path510" /><path
       d="m 165.277,251.984 h 67.68 v 0.48 h -67.68 z"
       style="fill:#000000;fill-opacity:1;fill-rule:nonzero;stroke:none"
       id="path512" /><path
       d="m 233.199,249.105 h 59.277 v 2.879 h -59.277 z"
       style="fill:#fff2cc;fill-opacity:1;fill-rule:evenodd;stroke:none"
       id="path514" /><path
       d="m 232.957,228.465 h 0.48 v 23.52 h -0.48 z"
       style="fill:#000000;fill-opacity:1;fill-rule:nonzero;stroke:none"
       id="path516" /><path
       d="m 232.957,251.984 h 0.48 v 0.48 h -0.48 z"
       style="fill:#000000;fill-opacity:1;fill-rule:nonzero;stroke:none"
       id="path518" /><path
       d="m 233.438,251.984 h 58.801 v 0.48 h -58.801 z"
       style="fill:#000000;fill-opacity:1;fill-rule:nonzero;stroke:none"
       id="path520" /><path
       d="m 292.477,249.105 h 59.281 v 2.879 h -59.281 z"
       style="fill:#fff2cc;fill-opacity:1;fill-rule:evenodd;stroke:none"
       id="path522" /><path
       d="m 292.238,228.465 h 0.48 v 23.52 h -0.48 z"
       style="fill:#000000;fill-opacity:1;fill-rule:nonzero;stroke:none"
       id="path524" /><path
       d="m 292.238,251.984 h 0.48 v 0.48 h -0.48 z"
       style="fill:#000000;fill-opacity:1;fill-rule:nonzero;stroke:none"
       id="path526" /><path
       d="m 292.719,251.984 h 58.801 v 0.48 h -58.801 z"
       style="fill:#000000;fill-opacity:1;fill-rule:nonzero;stroke:none"
       id="path528" /><path
       d="m 351.758,249.105 h 70.801 v 2.879 h -70.801 z"
       style="fill:#fff2cc;fill-opacity:1;fill-rule:evenodd;stroke:none"
       id="path530" /><path
       d="m 351.52,228.465 h 0.477 v 23.52 h -0.477 z"
       style="fill:#000000;fill-opacity:1;fill-rule:nonzero;stroke:none"
       id="path532" /><path
       d="m 351.52,251.984 h 0.477 v 0.48 h -0.477 z"
       style="fill:#000000;fill-opacity:1;fill-rule:nonzero;stroke:none"
       id="path534" /><path
       d="m 351.996,251.984 h 70.324 v 0.48 h -70.324 z"
       style="fill:#000000;fill-opacity:1;fill-rule:nonzero;stroke:none"
       id="path536" /><path
       d="m 422.559,249.105 h 78.48 v 2.879 h -78.48 z"
       style="fill:#fff2cc;fill-opacity:1;fill-rule:evenodd;stroke:none"
       id="path538" /><path
       d="m 422.316,228.465 h 0.48 v 23.52 h -0.48 z"
       style="fill:#000000;fill-opacity:1;fill-rule:nonzero;stroke:none"
       id="path540" /><path
       d="m 422.316,251.984 h 0.48 v 0.48 h -0.48 z"
       style="fill:#000000;fill-opacity:1;fill-rule:nonzero;stroke:none"
       id="path542" /><path
       d="m 422.797,251.984 h 78 v 0.48 h -78 z"
       style="fill:#000000;fill-opacity:1;fill-rule:nonzero;stroke:none"
       id="path544" /><path
       d="m 500.797,228.465 h 0.48 v 23.52 h -0.48 z"
       style="fill:#000000;fill-opacity:1;fill-rule:nonzero;stroke:none"
       id="path546" /><path
       d="m 500.797,251.984 h 0.48 v 0.48 h -0.48 z"
       style="fill:#000000;fill-opacity:1;fill-rule:nonzero;stroke:none"
       id="path548" /><path
       d="m 500.797,251.984 h 0.48 v 0.48 h -0.48 z"
       style="fill:#000000;fill-opacity:1;fill-rule:nonzero;stroke:none"
       id="path550" /></g></svg>