<?xml version="1.0" encoding="UTF-8" standalone="no"?>
<svg
   xmlns:dc="http://purl.org/dc/elements/1.1/"
   xmlns:cc="http://creativecommons.org/ns#"
   xmlns:rdf="http://www.w3.org/1999/02/22-rdf-syntax-ns#"
   xmlns:svg="http://www.w3.org/2000/svg"
   xmlns="http://www.w3.org/2000/svg"
   viewBox="0 0 649.44159 382.8365"
   height="382.83649"
   width="649.44159"
   xml:space="preserve"
   id="svg2"
   version="1.1"><metadata
     id="metadata8"><rdf:RDF><cc:Work
         rdf:about=""><dc:format>image/svg+xml</dc:format><dc:type
           rdf:resource="http://purl.org/dc/dcmitype/StillImage" /><dc:title></dc:title></cc:Work></rdf:RDF></metadata><defs
     id="defs6"><clipPath
       id="clipPath20"
       clipPathUnits="userSpaceOnUse"><path
         id="path18"
         d="M 0.156,0 H 595 V 841 H 0.156 Z" /></clipPath><clipPath
       id="clipPath56"
       clipPathUnits="userSpaceOnUse"><path
         id="path54"
         d="m 155,103 h 14 v 10.285 h -14 z" /></clipPath><clipPath
       id="clipPath136"
       clipPathUnits="userSpaceOnUse"><path
         id="path134"
         d="m 62,139 h 26 v 10.645 H 62 Z" /></clipPath><clipPath
       id="clipPath206"
       clipPathUnits="userSpaceOnUse"><path
         id="path204"
         d="m 62,188 h 18 v 10.605 H 62 Z" /></clipPath><clipPath
       id="clipPath264"
       clipPathUnits="userSpaceOnUse"><path
         id="path262"
         d="m 117,224 h 4 v 10.875 h -4 z" /></clipPath><clipPath
       id="clipPath328"
       clipPathUnits="userSpaceOnUse"><path
         id="path326"
         d="m 151,245.914 h 69 V 259 h -69 z" /></clipPath><clipPath
       id="clipPath346"
       clipPathUnits="userSpaceOnUse"><path
         id="path344"
         d="m 229,245.914 h 67 V 259 h -67 z" /></clipPath><clipPath
       id="clipPath364"
       clipPathUnits="userSpaceOnUse"><path
         id="path362"
         d="m 305,245.914 h 90 V 259 h -90 z" /></clipPath><clipPath
       id="clipPath654"
       clipPathUnits="userSpaceOnUse"><path
         id="path652"
         d="M 97,381 H 303 V 585 H 97 Z" /></clipPath><clipPath
       id="clipPath660"
       clipPathUnits="userSpaceOnUse"><path
         id="path658"
         d="M 110.504,688.602 565.297,233.809 484.773,153.285 29.98,608.078 Z" /></clipPath><clipPath
       id="clipPath672"
       clipPathUnits="userSpaceOnUse"><path
         id="path670"
         d="M 287,223 H 462 V 394 H 287 Z" /></clipPath><clipPath
       id="clipPath678"
       clipPathUnits="userSpaceOnUse"><path
         id="path676"
         d="M 110.504,688.602 565.297,233.809 484.773,153.285 29.98,608.078 Z" /></clipPath><clipPath
       id="clipPath690"
       clipPathUnits="userSpaceOnUse"><path
         id="path688"
         d="M 80,506 H 256 V 681 H 80 Z" /></clipPath><clipPath
       id="clipPath696"
       clipPathUnits="userSpaceOnUse"><path
         id="path694"
         d="M 110.504,688.602 565.297,233.809 484.773,153.285 29.98,608.078 Z" /></clipPath><clipPath
       id="clipPath708"
       clipPathUnits="userSpaceOnUse"><path
         id="path706"
         d="m 241,451 h 70 v 69 h -70 z" /></clipPath><clipPath
       id="clipPath714"
       clipPathUnits="userSpaceOnUse"><path
         id="path712"
         d="M 110.504,688.602 565.297,233.809 484.773,153.285 29.98,608.078 Z" /></clipPath><clipPath
       id="clipPath726"
       clipPathUnits="userSpaceOnUse"><path
         id="path724"
         d="M 298,348 H 415 V 463 H 298 Z" /></clipPath><clipPath
       id="clipPath732"
       clipPathUnits="userSpaceOnUse"><path
         id="path730"
         d="M 110.504,688.602 565.297,233.809 484.773,153.285 29.98,608.078 Z" /></clipPath><clipPath
       id="clipPath744"
       clipPathUnits="userSpaceOnUse"><path
         id="path742"
         d="M 402,204 H 557 V 360 H 402 Z" /></clipPath><clipPath
       id="clipPath750"
       clipPathUnits="userSpaceOnUse"><path
         id="path748"
         d="M 110.504,688.602 565.297,233.809 484.773,153.285 29.98,608.078 Z" /></clipPath></defs><g
     transform="matrix(1.3333333,0,0,1.3333333,-51.730391,-75.499998)"
     id="g10"><g
       id="g12" /><text
       y="72.824883"
       x="62.341797"
       id="text48"
       style="font-variant:normal;font-weight:bold;font-size:11.03999996px;font-family:'Nimbus Roman';-inkscape-font-specification:NimbusRoman-Bold;writing-mode:lr-tb;fill:#000000;fill-opacity:1;fill-rule:nonzero;stroke:none"><tspan
         id="tspan40"
         y="72.824883"
         x="62.341797 68.480034 72.156357 78.294594 84.432838 89.820358 151.37939 158.69891 164.21892 167.92836 173.44835 176.56163">Study Total </tspan><tspan
         id="tspan42"
         y="85.564888"
         x="151.37779 159.29347 165.43172 170.33347 179.56291 182.5658 187.46756 192.98755 196.11188">Chemical </tspan><tspan
         id="tspan44"
         y="98.164886"
         x="151.37779 158.69731 161.81059 165.52003 170.32243 174.03188 177.03476 186.26419 191.13284">Lifetime </tspan><tspan
         id="tspan46"
         y="110.88488"
         x="151.37779">(</tspan></text>
<g
       id="g50"><g
         clip-path="url(#clipPath56)"
         id="g52"><text
           id="text60"
           style="font-variant:normal;font-weight:bold;font-size:11.03999996px;font-family:'Nimbus Roman';-inkscape-font-specification:NimbusRoman-Bold;writing-mode:lr-tb;fill:#000000;fill-opacity:1;fill-rule:nonzero;stroke:none"
           transform="translate(155.08721,110.88488)"><tspan
             id="tspan58"
             y="0"
             x="0 5.52 10.42176">yr)</tspan></text>
</g></g><g
       id="g62"><text
         id="text78"
         style="font-variant:normal;font-weight:bold;font-size:11.03999996px;font-family:'Nimbus Roman';-inkscape-font-specification:NimbusRoman-Bold;writing-mode:lr-tb;fill:#000000;fill-opacity:1;fill-rule:nonzero;stroke:none"
         transform="translate(229.04779,72.824879)"><tspan
           id="tspan64"
           y="0"
           x="0 6.1382399 11.65824 14.72736 17.87376 20.63376 27.831841 30.94512 34.65456 39.456959 43.166401 46.169281 55.39872 60.256321">Soil Lifetime </tspan><tspan
           id="tspan66"
           y="12.740005"
           x="0 3.70944 9.2294397 14.1312 17.763359">(yr) </tspan><tspan
           id="tspan68"
           y="0"
           x="76.82 84.139519 89.659515 93.368958 98.888954 102.00224 104.76224 112.56751 116.27695 125.50639 130.90495 135.19952 141.33775 147.476 152.37776 157.18016 160.29344 165.19519">Total Atmospheric </tspan><tspan
           id="tspan70"
           y="12.740005"
           x="76.82 84.139519 87.2528 90.962234 95.764633 99.474075 102.47696 111.7064 116.54192">Lifetime </tspan><tspan
           id="tspan72"
           y="25.340002"
           x="76.82 80.529434 86.049438 90.951195 94.583359">(yr) </tspan><tspan
           id="tspan74"
           y="-4.9027449e-15"
           x="175.85001 183.76569 189.90392 199.10023 205.23848 210.14024 215.07512 217.83511 223.23367 226.94312">Number of </tspan><tspan
           id="tspan76"
           y="12.740005"
           x="175.85001 185.09048 190.61047 196.74872 201.52904 204.64232 208.83752 211.95081 215.06409 221.20232 226.5788 231.48056 236.38232 240.59959 243.71288 249.23288 255.37112 259.63257">models/inversions </tspan></text>
<path
         id="path80"
         style="fill:#000000;fill-opacity:1;fill-rule:evenodd;stroke:none"
         d="m 56.82,56.625 h 0.961 v 6 H 56.82 Z" /><path
         id="path82"
         style="fill:#000000;fill-opacity:1;fill-rule:evenodd;stroke:none"
         d="m 56.82,56.625 h 0.961 v 0.961 H 56.82 Z" /><path
         id="path84"
         style="fill:#000000;fill-opacity:1;fill-rule:evenodd;stroke:none"
         d="m 57.781,56.625 h 88.082 v 0.961 H 57.781 Z" /><path
         id="path86"
         style="fill:#000000;fill-opacity:1;fill-rule:evenodd;stroke:none"
         d="m 145.859,57.586 h 0.957 v 5.039 h -0.957 z" /><path
         id="path88"
         style="fill:#000000;fill-opacity:1;fill-rule:evenodd;stroke:none"
         d="m 145.859,56.625 h 0.957 v 0.961 h -0.957 z" /><path
         id="path90"
         style="fill:#000000;fill-opacity:1;fill-rule:evenodd;stroke:none"
         d="m 146.816,56.625 h 76.707 v 0.961 h -76.707 z" /><path
         id="path92"
         style="fill:#000000;fill-opacity:1;fill-rule:evenodd;stroke:none"
         d="m 223.527,57.586 h 0.961 v 5.039 h -0.961 z" /><path
         id="path94"
         style="fill:#000000;fill-opacity:1;fill-rule:evenodd;stroke:none"
         d="m 223.527,56.625 h 0.961 v 0.961 h -0.961 z" /><path
         id="path96"
         style="fill:#000000;fill-opacity:1;fill-rule:evenodd;stroke:none"
         d="m 224.488,56.625 h 75.863 v 0.961 h -75.863 z" /><path
         id="path98"
         style="fill:#000000;fill-opacity:1;fill-rule:evenodd;stroke:none"
         d="m 300.348,57.586 h 0.961 v 5.039 h -0.961 z" /><path
         id="path100"
         style="fill:#000000;fill-opacity:1;fill-rule:evenodd;stroke:none"
         d="m 300.348,56.625 h 0.961 v 0.961 h -0.961 z" /><path
         id="path102"
         style="fill:#000000;fill-opacity:1;fill-rule:evenodd;stroke:none"
         d="m 301.309,56.625 h 98.062 v 0.961 h -98.062 z" /><path
         id="path104"
         style="fill:#000000;fill-opacity:1;fill-rule:evenodd;stroke:none"
         d="m 399.379,57.586 h 0.957 v 5.039 h -0.957 z" /><path
         id="path106"
         style="fill:#000000;fill-opacity:1;fill-rule:evenodd;stroke:none"
         d="m 399.379,56.625 h 0.957 v 0.961 h -0.957 z" /><path
         id="path108"
         style="fill:#000000;fill-opacity:1;fill-rule:evenodd;stroke:none"
         d="m 400.336,56.625 h 124.582 v 0.961 H 400.336 Z" /><path
         id="path110"
         style="fill:#000000;fill-opacity:1;fill-rule:evenodd;stroke:none"
         d="m 524.918,56.625 h 0.961 v 6 h -0.961 z" /><path
         id="path112"
         style="fill:#000000;fill-opacity:1;fill-rule:evenodd;stroke:none"
         d="m 524.918,56.625 h 0.961 v 0.961 h -0.961 z" /><path
         id="path114"
         style="fill:#000000;fill-opacity:1;fill-rule:evenodd;stroke:none"
         d="m 56.82,62.621 h 0.961 v 55.703 H 56.82 Z" /><path
         id="path116"
         style="fill:#000000;fill-opacity:1;fill-rule:evenodd;stroke:none"
         d="m 145.859,62.621 h 0.957 v 55.703 h -0.957 z" /><path
         id="path118"
         style="fill:#000000;fill-opacity:1;fill-rule:evenodd;stroke:none"
         d="m 223.527,62.621 h 0.961 v 55.703 h -0.961 z" /><path
         id="path120"
         style="fill:#000000;fill-opacity:1;fill-rule:evenodd;stroke:none"
         d="m 300.348,62.621 h 0.961 v 55.703 h -0.961 z" /><path
         id="path122"
         style="fill:#000000;fill-opacity:1;fill-rule:evenodd;stroke:none"
         d="m 399.379,62.621 h 0.957 v 55.703 h -0.957 z" /><path
         id="path124"
         style="fill:#000000;fill-opacity:1;fill-rule:evenodd;stroke:none"
         d="m 524.918,62.621 h 0.961 v 55.703 h -0.961 z" /><text
         id="text128"
         style="font-variant:normal;font-weight:normal;font-size:11.03999996px;font-family:'Nimbus Roman';-inkscape-font-specification:NimbusRoman-Regular;writing-mode:lr-tb;fill:#000000;fill-opacity:1;fill-rule:nonzero;stroke:none"
         transform="translate(62.341795,134.52488)"><tspan
           id="tspan126"
           y="0"
           x="0 3.70944 9.8476801 12.9168 17.86272 23.26128 28.16304 33.683041 38.010719 43.409279 48.929279 51.689281 56.49168 59.604961 62.36496 67.266724 70.28064 73.040642 75.800636">(Stevenson et al., </tspan></text>
</g><g
       id="g130"><g
         clip-path="url(#clipPath136)"
         id="g132"><text
           id="text140"
           style="font-variant:normal;font-weight:normal;font-size:11.03999996px;font-family:'Nimbus Roman';-inkscape-font-specification:NimbusRoman-Regular;writing-mode:lr-tb;fill:#000000;fill-opacity:1;fill-rule:nonzero;stroke:none"
           transform="translate(62.341795,147.12488)"><tspan
             id="tspan138"
             y="0"
             x="0 5.52 11.04 16.559999 22.08">2020)</tspan></text>
</g></g><g
       id="g142"><text
         id="text146"
         style="font-variant:normal;font-weight:normal;font-size:6.96000004px;font-family:'Nimbus Roman';-inkscape-font-specification:NimbusRoman-Regular;writing-mode:lr-tb;fill:#000000;fill-opacity:1;fill-rule:nonzero;stroke:none"
         transform="translate(88.141795,143.16488)"><tspan
           id="tspan144"
           y="0"
           x="0">a</tspan></text>
<text
         id="text150"
         style="font-variant:normal;font-weight:normal;font-size:11.03999996px;font-family:'Nimbus Roman';-inkscape-font-specification:NimbusRoman-Regular;writing-mode:lr-tb;fill:#000000;fill-opacity:1;fill-rule:nonzero;stroke:none"
         transform="translate(151.37779,134.52489)"><tspan
           id="tspan148"
           y="0"
           x="0 5.52 8.2799997 13.8 16.559999 20.26944 25.78944 28.54944 34.113602 37.712639 43.232639 45.992641 51.391201">8.3 (8.1-8.6)</tspan></text>
<text
         id="text154"
         style="font-variant:normal;font-weight:normal;font-size:6.96000004px;font-family:'Nimbus Roman';-inkscape-font-specification:NimbusRoman-Regular;writing-mode:lr-tb;fill:#000000;fill-opacity:1;fill-rule:nonzero;stroke:none"
         transform="translate(206.48779,130.56488)"><tspan
           id="tspan152"
           y="0"
           x="0">b</tspan></text>
<text
         id="text158"
         style="font-variant:normal;font-weight:normal;font-size:11.03999996px;font-family:'Nimbus Roman';-inkscape-font-specification:NimbusRoman-Regular;writing-mode:lr-tb;fill:#000000;fill-opacity:1;fill-rule:nonzero;stroke:none"
         transform="translate(229.04635,134.52488)"><tspan
           id="tspan156"
           y="0"
           x="0 5.52 11.04 16.559999 76.816322 82.336319 85.096321 90.616318 93.37632 97.085762 102.60576 105.36576 110.88576 114.50688 120.02688 122.78688 128.18544 131.78448 175.85144 181.37143 184.13144 191.45096 201.26552 204.88664 211.02487 216.54488 219.30487 226.00615 232.14439 241.95895 246.17624">160 8.0 (7.7-8.2) 3 CMIP6 ESMs </tspan></text>
<path
         id="path160"
         style="fill:#000000;fill-opacity:1;fill-rule:evenodd;stroke:none"
         d="m 56.82,118.324 h 0.961 v 6 H 56.82 Z" /><path
         id="path162"
         style="fill:#000000;fill-opacity:1;fill-rule:evenodd;stroke:none"
         d="m 57.781,118.324 h 88.082 v 0.961 H 57.781 Z" /><path
         id="path164"
         style="fill:#000000;fill-opacity:1;fill-rule:evenodd;stroke:none"
         d="m 145.859,118.324 h 0.957 v 6 h -0.957 z" /><path
         id="path166"
         style="fill:#000000;fill-opacity:1;fill-rule:evenodd;stroke:none"
         d="m 146.816,118.324 h 76.707 v 0.961 h -76.707 z" /><path
         id="path168"
         style="fill:#000000;fill-opacity:1;fill-rule:evenodd;stroke:none"
         d="m 223.527,118.324 h 0.961 v 6 h -0.961 z" /><path
         id="path170"
         style="fill:#000000;fill-opacity:1;fill-rule:evenodd;stroke:none"
         d="m 224.488,118.324 h 75.863 v 0.961 h -75.863 z" /><path
         id="path172"
         style="fill:#000000;fill-opacity:1;fill-rule:evenodd;stroke:none"
         d="m 300.348,118.324 h 0.961 v 6 h -0.961 z" /><path
         id="path174"
         style="fill:#000000;fill-opacity:1;fill-rule:evenodd;stroke:none"
         d="m 301.309,118.324 h 98.062 v 0.961 h -98.062 z" /><path
         id="path176"
         style="fill:#000000;fill-opacity:1;fill-rule:evenodd;stroke:none"
         d="m 399.379,118.324 h 0.957 v 6 h -0.957 z" /><path
         id="path178"
         style="fill:#000000;fill-opacity:1;fill-rule:evenodd;stroke:none"
         d="m 400.336,118.324 h 124.582 v 0.961 H 400.336 Z" /><path
         id="path180"
         style="fill:#000000;fill-opacity:1;fill-rule:evenodd;stroke:none"
         d="m 524.918,118.324 h 0.961 v 6 h -0.961 z" /><path
         id="path182"
         style="fill:#000000;fill-opacity:1;fill-rule:evenodd;stroke:none"
         d="m 56.82,124.324 h 0.961 v 30.242 H 56.82 Z" /><path
         id="path184"
         style="fill:#000000;fill-opacity:1;fill-rule:evenodd;stroke:none"
         d="m 145.859,124.324 h 0.957 v 30.242 h -0.957 z" /><path
         id="path186"
         style="fill:#000000;fill-opacity:1;fill-rule:evenodd;stroke:none"
         d="m 223.527,124.324 h 0.961 v 30.242 h -0.961 z" /><path
         id="path188"
         style="fill:#000000;fill-opacity:1;fill-rule:evenodd;stroke:none"
         d="m 300.348,124.324 h 0.961 v 30.242 h -0.961 z" /><path
         id="path190"
         style="fill:#000000;fill-opacity:1;fill-rule:evenodd;stroke:none"
         d="m 399.379,124.324 h 0.957 v 30.242 h -0.957 z" /><path
         id="path192"
         style="fill:#000000;fill-opacity:1;fill-rule:evenodd;stroke:none"
         d="m 524.918,124.324 h 0.961 v 30.242 h -0.961 z" /><text
         id="text198"
         style="font-variant:normal;font-weight:normal;font-size:11.03999996px;font-family:'Nimbus Roman';-inkscape-font-specification:NimbusRoman-Regular;writing-mode:lr-tb;fill:#000000;fill-opacity:1;fill-rule:nonzero;stroke:none"
         transform="translate(62.341795,170.76488)"><tspan
           id="tspan194"
           y="0"
           x="0 7.31952 12.83952 15.9528 19.06608 24.46464 33.119999 36.71904 42.23904 47.759041">Bottom-up </tspan><tspan
           id="tspan196"
           y="12.720001"
           x="0 3.70944 9.2294397 14.1312 18.34848 23.25024 28.770241 31.530239 37.05024 42.57024 45.330238 51.943199 56.844959 62.36496 65.378883 70.28064">(based on Table </tspan></text>
</g><g
       id="g200"><g
         clip-path="url(#clipPath206)"
         id="g202"><text
           id="text210"
           style="font-variant:normal;font-weight:normal;font-size:11.03999996px;font-family:'Nimbus Roman';-inkscape-font-specification:NimbusRoman-Regular;writing-mode:lr-tb;fill:#000000;fill-opacity:1;fill-rule:nonzero;stroke:none"
           transform="translate(62.341795,196.08488)"><tspan
             id="tspan208"
             y="0"
             x="0 5.52 8.2799997 13.8 17.39904">5.2) </tspan></text>
</g></g><g
       id="g212"><text
         id="text216"
         style="font-variant:normal;font-weight:normal;font-size:11.03999996px;font-family:'Nimbus Roman';-inkscape-font-specification:NimbusRoman-Regular;writing-mode:lr-tb;fill:#000000;fill-opacity:1;fill-rule:nonzero;stroke:none"
         transform="translate(151.37779,170.76488)"><tspan
           id="tspan214"
           y="0"
           x="0 5.52 8.2799997 13.8 16.559999 20.26944 25.78944 28.54944 34.113602 37.712639 43.232639 45.992641 51.391201 54.990238 77.666397 83.186401 88.706398 94.226402 96.986397 100.69584 106.21584 111.6144 117.16752 120.76656 126.28656 131.80656 137.32655 140.9256 154.49376 160.01376 162.77376 168.29376 171.05376 174.7632 180.2832 183.0432 188.5632 192.17328 197.69328 203.21329 205.97328 211.37184 214.97089 253.52255 259.04257 261.80255 269.12207 276.44159 286.25616 289.87729 292.63727 299.95679 307.27631 317.09088 321.4296 324.54288 331.8624 338.60785 348.30096 352.54031">8.3 (6.2-9.8) 166 (102-453) 8.0 (6.3-10.0) 7 CCMI CCMs/CTMs </tspan></text>
<path
         id="path218"
         style="fill:#000000;fill-opacity:1;fill-rule:evenodd;stroke:none"
         d="m 56.82,154.566 h 0.961 v 6 H 56.82 Z" /><path
         id="path220"
         style="fill:#000000;fill-opacity:1;fill-rule:evenodd;stroke:none"
         d="m 57.781,154.566 h 88.082 v 0.957 H 57.781 Z" /><path
         id="path222"
         style="fill:#000000;fill-opacity:1;fill-rule:evenodd;stroke:none"
         d="m 145.859,154.566 h 0.957 v 6 h -0.957 z" /><path
         id="path224"
         style="fill:#000000;fill-opacity:1;fill-rule:evenodd;stroke:none"
         d="m 146.816,154.566 h 76.707 v 0.957 h -76.707 z" /><path
         id="path226"
         style="fill:#000000;fill-opacity:1;fill-rule:evenodd;stroke:none"
         d="m 223.527,154.566 h 0.961 v 6 h -0.961 z" /><path
         id="path228"
         style="fill:#000000;fill-opacity:1;fill-rule:evenodd;stroke:none"
         d="m 224.488,154.566 h 75.863 v 0.957 h -75.863 z" /><path
         id="path230"
         style="fill:#000000;fill-opacity:1;fill-rule:evenodd;stroke:none"
         d="m 300.348,154.566 h 0.961 v 6 h -0.961 z" /><path
         id="path232"
         style="fill:#000000;fill-opacity:1;fill-rule:evenodd;stroke:none"
         d="m 301.309,154.566 h 98.062 v 0.957 h -98.062 z" /><path
         id="path234"
         style="fill:#000000;fill-opacity:1;fill-rule:evenodd;stroke:none"
         d="m 399.379,154.566 h 0.957 v 6 h -0.957 z" /><path
         id="path236"
         style="fill:#000000;fill-opacity:1;fill-rule:evenodd;stroke:none"
         d="m 400.336,154.566 h 124.582 v 0.957 H 400.336 Z" /><path
         id="path238"
         style="fill:#000000;fill-opacity:1;fill-rule:evenodd;stroke:none"
         d="m 524.918,154.566 h 0.961 v 6 h -0.961 z" /><path
         id="path240"
         style="fill:#000000;fill-opacity:1;fill-rule:evenodd;stroke:none"
         d="m 56.82,160.566 h 0.961 v 42.957 H 56.82 Z" /><path
         id="path242"
         style="fill:#000000;fill-opacity:1;fill-rule:evenodd;stroke:none"
         d="m 145.859,160.566 h 0.957 v 42.957 h -0.957 z" /><path
         id="path244"
         style="fill:#000000;fill-opacity:1;fill-rule:evenodd;stroke:none"
         d="m 223.527,160.566 h 0.961 v 42.957 h -0.961 z" /><path
         id="path246"
         style="fill:#000000;fill-opacity:1;fill-rule:evenodd;stroke:none"
         d="m 300.348,160.566 h 0.961 v 42.957 h -0.961 z" /><path
         id="path248"
         style="fill:#000000;fill-opacity:1;fill-rule:evenodd;stroke:none"
         d="m 399.379,160.566 h 0.957 v 42.957 h -0.957 z" /><path
         id="path250"
         style="fill:#000000;fill-opacity:1;fill-rule:evenodd;stroke:none"
         d="m 524.918,160.566 h 0.961 v 42.957 h -0.961 z" /><text
         id="text256"
         style="font-variant:normal;font-weight:normal;font-size:11.03999996px;font-family:'Nimbus Roman';-inkscape-font-specification:NimbusRoman-Regular;writing-mode:lr-tb;fill:#000000;fill-opacity:1;fill-rule:nonzero;stroke:none"
         transform="translate(62.341795,219.72488)"><tspan
           id="tspan252"
           y="0"
           x="0 6.74544 12.26544 17.78544 21.3624 26.882401 32.402401 40.318081 45.838081 48.59808 52.307522 57.827518 62.729279 66.946564 71.84832 77.368317">Top-down (based </tspan><tspan
           id="tspan254"
           y="12.720001"
           x="0 5.52 11.04 13.8 20.545441 25.447201 30.967199 33.959042 38.860802 41.6208 47.1408 49.900799">on Table 5.2</tspan></text>
</g><g
       id="g258"><g
         clip-path="url(#clipPath264)"
         id="g260"><text
           id="text268"
           style="font-variant:normal;font-weight:normal;font-size:11.03999996px;font-family:'Nimbus Roman';-inkscape-font-specification:NimbusRoman-Regular;writing-mode:lr-tb;fill:#000000;fill-opacity:1;fill-rule:nonzero;stroke:none"
           transform="translate(117.66327,232.44488)"><tspan
             id="tspan266"
             y="0"
             x="0">)</tspan></text>
</g></g><g
       id="g270"><text
         id="text274"
         style="font-variant:normal;font-weight:normal;font-size:11.03999996px;font-family:'Nimbus Roman';-inkscape-font-specification:NimbusRoman-Regular;writing-mode:lr-tb;fill:#000000;fill-opacity:1;fill-rule:nonzero;stroke:none"
         transform="translate(151.3778,219.72488)"><tspan
           id="tspan272"
           y="0"
           x="0 5.52 8.2799997 13.8 16.559999 20.26944 25.78944 28.54944 34.113602 37.712639 43.232639 48.75264 51.512642 56.911201 60.510239 77.666397 83.186401 88.706398 94.226402 96.986397 100.69584 106.21584 111.6144 117.16752 120.76656 126.28656 131.80656 137.32655 140.9256 154.49376 160.01376 162.77376 168.29376 171.05376 174.7632 180.2832 183.0432 188.5632 192.17328 197.69328 203.21329 205.97328 211.37184 214.97089 253.52255 259.04257 261.80255 264.91583 270.43585 275.95584 280.75824 284.46768 288.66287 291.77615 297.29617 302.81616 305.57617 309.77136 315.29135 319.58591 322.61087 327.51263 336.04657 340.29697">9.7 (9.4-10.5) 135 (116-185) 9.1 (8.7-10.0) 7 inversion systems </tspan></text>
<path
         id="path276"
         style="fill:#000000;fill-opacity:1;fill-rule:evenodd;stroke:none"
         d="m 56.82,203.523 h 0.961 v 6 H 56.82 Z" /><path
         id="path278"
         style="fill:#000000;fill-opacity:1;fill-rule:evenodd;stroke:none"
         d="m 57.781,203.523 h 88.082 v 0.961 H 57.781 Z" /><path
         id="path280"
         style="fill:#000000;fill-opacity:1;fill-rule:evenodd;stroke:none"
         d="m 145.859,203.523 h 0.957 v 6 h -0.957 z" /><path
         id="path282"
         style="fill:#000000;fill-opacity:1;fill-rule:evenodd;stroke:none"
         d="m 146.816,203.523 h 76.707 v 0.961 h -76.707 z" /><path
         id="path284"
         style="fill:#000000;fill-opacity:1;fill-rule:evenodd;stroke:none"
         d="m 223.527,203.523 h 0.961 v 6 h -0.961 z" /><path
         id="path286"
         style="fill:#000000;fill-opacity:1;fill-rule:evenodd;stroke:none"
         d="m 224.488,203.523 h 75.863 v 0.961 h -75.863 z" /><path
         id="path288"
         style="fill:#000000;fill-opacity:1;fill-rule:evenodd;stroke:none"
         d="m 300.348,203.523 h 0.961 v 6 h -0.961 z" /><path
         id="path290"
         style="fill:#000000;fill-opacity:1;fill-rule:evenodd;stroke:none"
         d="m 301.309,203.523 h 98.062 v 0.961 h -98.062 z" /><path
         id="path292"
         style="fill:#000000;fill-opacity:1;fill-rule:evenodd;stroke:none"
         d="m 399.379,203.523 h 0.957 v 6 h -0.957 z" /><path
         id="path294"
         style="fill:#000000;fill-opacity:1;fill-rule:evenodd;stroke:none"
         d="m 400.336,203.523 h 124.582 v 0.961 H 400.336 Z" /><path
         id="path296"
         style="fill:#000000;fill-opacity:1;fill-rule:evenodd;stroke:none"
         d="m 524.918,203.523 h 0.961 v 6 h -0.961 z" /><path
         id="path298"
         style="fill:#000000;fill-opacity:1;fill-rule:evenodd;stroke:none"
         d="m 56.82,209.531 h 0.961 v 30.383 H 56.82 Z" /><path
         id="path300"
         style="fill:#000000;fill-opacity:1;fill-rule:evenodd;stroke:none"
         d="m 145.859,209.531 h 0.957 v 30.383 h -0.957 z" /><path
         id="path302"
         style="fill:#000000;fill-opacity:1;fill-rule:evenodd;stroke:none"
         d="m 223.527,209.531 h 0.961 v 30.383 h -0.961 z" /><path
         id="path304"
         style="fill:#000000;fill-opacity:1;fill-rule:evenodd;stroke:none"
         d="m 300.348,209.531 h 0.961 v 30.383 h -0.961 z" /><path
         id="path306"
         style="fill:#000000;fill-opacity:1;fill-rule:evenodd;stroke:none"
         d="m 399.379,209.531 h 0.957 v 30.383 h -0.957 z" /><path
         id="path308"
         style="fill:#000000;fill-opacity:1;fill-rule:evenodd;stroke:none"
         d="m 524.918,209.531 h 0.961 v 30.383 h -0.961 z" /><text
         id="text314"
         style="font-variant:normal;font-weight:normal;font-size:11.03999996px;font-family:'Nimbus Roman';-inkscape-font-specification:NimbusRoman-Regular;writing-mode:lr-tb;fill:#000000;fill-opacity:1;fill-rule:nonzero;stroke:none"
         transform="translate(62.341795,256.11488)"><tspan
           id="tspan310"
           y="0"
           x="0 7.9156799 15.2352 20.755199 23.5152 28.41696 32.74464 37.0392 41.974079 46.169281 50.46384 55.39872 60.91872">AR6 assessed </tspan><tspan
           id="tspan312"
           y="12.599996"
           x="0 5.52 10.42176 13.54608 19.06608">value</tspan></text>
<text
         id="text318"
         style="font-variant:normal;font-weight:normal;font-size:6.96000004px;font-family:'Nimbus Roman';-inkscape-font-specification:NimbusRoman-Regular;writing-mode:lr-tb;fill:#000000;fill-opacity:1;fill-rule:nonzero;stroke:none"
         transform="translate(88.024435,264.75488)"><tspan
           id="tspan316"
           y="0"
           x="0">c</tspan></text>
<path
         id="path320"
         style="fill:#ffffff;fill-opacity:1;fill-rule:evenodd;stroke:none"
         d="m 146.938,240.875 h 76.703 v 48 h -76.703 z" /></g><g
       id="g322"><g
         clip-path="url(#clipPath328)"
         id="g324"><path
           id="path330"
           style="fill:#ffffff;fill-opacity:1;fill-rule:evenodd;stroke:none"
           d="m 151.379,245.914 h 67.703 v 12.602 h -67.703 z" /><text
           id="text334"
           style="font-variant:normal;font-weight:normal;font-size:11.03999996px;font-family:'Nimbus Roman';-inkscape-font-specification:NimbusRoman-Regular;writing-mode:lr-tb;fill:#000000;fill-opacity:1;fill-rule:nonzero;stroke:none"
           transform="translate(151.37779,256.11488)"><tspan
             id="tspan332"
             y="0"
             x="0 5.52 8.2799997 13.8 16.559999 22.665119 25.425119 30.823681 33.583679 39.026402">9.7 ± 1.1 </tspan></text>
</g></g><g
       id="g336"><path
         id="path338"
         style="fill:#ffffff;fill-opacity:1;fill-rule:evenodd;stroke:none"
         d="m 224.609,240.875 h 75.863 v 48 h -75.863 z" /></g><g
       id="g340"><g
         clip-path="url(#clipPath346)"
         id="g342"><path
           id="path348"
           style="fill:#ffffff;fill-opacity:1;fill-rule:evenodd;stroke:none"
           d="m 229.047,245.914 h 66.863 v 12.602 h -66.863 z" /><text
           id="text352"
           style="font-variant:normal;font-weight:normal;font-size:11.03999996px;font-family:'Nimbus Roman';-inkscape-font-specification:NimbusRoman-Regular;writing-mode:lr-tb;fill:#000000;fill-opacity:1;fill-rule:nonzero;stroke:none"
           transform="translate(229.04779,256.11488)"><tspan
             id="tspan350"
             y="0"
             x="0 5.52 11.04 16.559999 19.32 25.425119 28.063681 33.583679 39.015362">135 ± 44 </tspan></text>
</g></g><g
       id="g354"><path
         id="path356"
         style="fill:#ffffff;fill-opacity:1;fill-rule:evenodd;stroke:none"
         d="m 301.43,240.875 h 98.062 v 48 H 301.43 Z" /></g><g
       id="g358"><g
         clip-path="url(#clipPath364)"
         id="g360"><path
           id="path366"
           style="fill:#ffffff;fill-opacity:1;fill-rule:evenodd;stroke:none"
           d="m 305.867,245.914 h 89.066 v 12.602 h -89.066 z" /><text
           id="text370"
           style="font-variant:normal;font-weight:normal;font-size:11.03999996px;font-family:'Nimbus Roman';-inkscape-font-specification:NimbusRoman-Regular;writing-mode:lr-tb;fill:#000000;fill-opacity:1;fill-rule:nonzero;stroke:none"
           transform="translate(305.86779,256.11488)"><tspan
             id="tspan368"
             y="0"
             x="0 5.52 8.2799997 13.8 16.559999 22.665119 25.425119 30.823681 33.583679 39.004318">9.1 ± 0.9 </tspan></text>
</g></g><text
       y="256.11487"
       x="404.8978"
       style="font-variant:normal;font-weight:normal;font-size:11.03999996px;font-family:'Nimbus Roman';-inkscape-font-specification:NimbusRoman-Regular;writing-mode:lr-tb;fill:#000000;fill-opacity:1;fill-rule:nonzero;stroke:none"
       id="text380"><tspan
         x="404.8978 412.21732 417.11908 421.44675 426.34851 431.8685 434.62851 440.1485 445.66852 448.4285 455.04147 460.56146 466.08148 469.70261 475.2226 480.74258 488.65826 494.17828 496.93826 504.85394 507.96722 510.97012 516.49011"
         y="256.11487"
         id="tspan374">Based on Top-down with </tspan><tspan
         x="404.8978 410.41779 415.93781 420.83954 425.7413 429.36243 432.47571 437.27811 440.39139 445.91138 448.91428 454.43427 457.19427 462.09604 466.31332 469.42661 472.42947 481.06274 485.86514 488.97842 493.88019 496.54083 500.25027 503.95972 509.35828 517.99158"
         y="268.71487"
         id="tspan376">uncertainty estimate from </tspan><tspan
         x="404.8978 412.81348 420.133 425.65298"
         y="281.31488"
         id="tspan378">AR5 </tspan></text>
<path
       d="m 56.82,239.914 h 0.961 v 6 H 56.82 Z"
       style="fill:#000000;fill-opacity:1;fill-rule:evenodd;stroke:none"
       id="path382" /><path
       d="m 57.781,239.914 h 88.082 v 0.961 H 57.781 Z"
       style="fill:#000000;fill-opacity:1;fill-rule:evenodd;stroke:none"
       id="path384" /><path
       d="m 145.859,239.914 h 0.957 v 6 h -0.957 z"
       style="fill:#000000;fill-opacity:1;fill-rule:evenodd;stroke:none"
       id="path386" /><path
       d="m 146.816,239.914 h 76.707 v 0.961 h -76.707 z"
       style="fill:#000000;fill-opacity:1;fill-rule:evenodd;stroke:none"
       id="path388" /><path
       d="m 146.816,240.875 h 76.707 v 5.039 h -76.707 z"
       style="fill:#ffffff;fill-opacity:1;fill-rule:evenodd;stroke:none"
       id="path390" /><path
       d="m 223.527,239.914 h 0.961 v 6 h -0.961 z"
       style="fill:#000000;fill-opacity:1;fill-rule:evenodd;stroke:none"
       id="path392" /><path
       d="m 224.488,239.914 h 75.863 v 0.961 h -75.863 z"
       style="fill:#000000;fill-opacity:1;fill-rule:evenodd;stroke:none"
       id="path394" /><path
       d="m 224.488,240.875 h 75.863 v 5.039 h -75.863 z"
       style="fill:#ffffff;fill-opacity:1;fill-rule:evenodd;stroke:none"
       id="path396" /><path
       d="m 300.348,239.914 h 0.961 v 6 h -0.961 z"
       style="fill:#000000;fill-opacity:1;fill-rule:evenodd;stroke:none"
       id="path398" /><path
       d="m 301.309,239.914 h 98.062 v 0.961 h -98.062 z"
       style="fill:#000000;fill-opacity:1;fill-rule:evenodd;stroke:none"
       id="path400" /><path
       d="m 301.309,240.875 h 98.062 v 5.039 h -98.062 z"
       style="fill:#ffffff;fill-opacity:1;fill-rule:evenodd;stroke:none"
       id="path402" /><path
       d="m 399.379,239.914 h 0.957 v 6 h -0.957 z"
       style="fill:#000000;fill-opacity:1;fill-rule:evenodd;stroke:none"
       id="path404" /><path
       d="m 400.336,239.914 h 124.582 v 0.961 H 400.336 Z"
       style="fill:#000000;fill-opacity:1;fill-rule:evenodd;stroke:none"
       id="path406" /><path
       d="m 524.918,239.914 h 0.961 v 6 h -0.961 z"
       style="fill:#000000;fill-opacity:1;fill-rule:evenodd;stroke:none"
       id="path408" /><path
       d="m 56.82,245.914 h 0.961 v 42.961 H 56.82 Z"
       style="fill:#000000;fill-opacity:1;fill-rule:evenodd;stroke:none"
       id="path410" /><path
       d="m 56.82,288.875 h 0.961 v 0.961 H 56.82 Z"
       style="fill:#000000;fill-opacity:1;fill-rule:evenodd;stroke:none"
       id="path412" /><path
       d="m 56.82,288.875 h 0.961 v 0.961 H 56.82 Z"
       style="fill:#000000;fill-opacity:1;fill-rule:evenodd;stroke:none"
       id="path414" /><path
       d="m 57.781,288.875 h 88.082 v 0.961 H 57.781 Z"
       style="fill:#000000;fill-opacity:1;fill-rule:evenodd;stroke:none"
       id="path416" /><path
       d="M 146.336,283.836 H 224 v 5.039 h -77.664 z"
       style="fill:#ffffff;fill-opacity:1;fill-rule:evenodd;stroke:none"
       id="path418" /><path
       d="m 145.859,245.914 h 0.957 v 42.961 h -0.957 z"
       style="fill:#000000;fill-opacity:1;fill-rule:evenodd;stroke:none"
       id="path420" /><path
       d="m 145.859,288.875 h 0.957 v 0.961 h -0.957 z"
       style="fill:#000000;fill-opacity:1;fill-rule:evenodd;stroke:none"
       id="path422" /><path
       d="m 146.816,288.875 h 76.707 v 0.961 h -76.707 z"
       style="fill:#000000;fill-opacity:1;fill-rule:evenodd;stroke:none"
       id="path424" /><path
       d="m 224.008,283.836 h 76.824 v 5.039 h -76.824 z"
       style="fill:#ffffff;fill-opacity:1;fill-rule:evenodd;stroke:none"
       id="path426" /><path
       d="m 223.527,245.914 h 0.961 v 42.961 h -0.961 z"
       style="fill:#000000;fill-opacity:1;fill-rule:evenodd;stroke:none"
       id="path428" /><path
       d="m 223.527,288.875 h 0.961 v 0.961 h -0.961 z"
       style="fill:#000000;fill-opacity:1;fill-rule:evenodd;stroke:none"
       id="path430" /><path
       d="m 224.488,288.875 h 75.863 v 0.961 h -75.863 z"
       style="fill:#000000;fill-opacity:1;fill-rule:evenodd;stroke:none"
       id="path432" /><path
       d="m 300.828,283.836 h 99.023 v 5.039 h -99.023 z"
       style="fill:#ffffff;fill-opacity:1;fill-rule:evenodd;stroke:none"
       id="path434" /><path
       d="m 300.348,245.914 h 0.961 v 42.961 h -0.961 z"
       style="fill:#000000;fill-opacity:1;fill-rule:evenodd;stroke:none"
       id="path436" /><path
       d="m 300.348,288.875 h 0.961 v 0.961 h -0.961 z"
       style="fill:#000000;fill-opacity:1;fill-rule:evenodd;stroke:none"
       id="path438" /><path
       d="m 301.309,288.875 h 98.062 v 0.961 h -98.062 z"
       style="fill:#000000;fill-opacity:1;fill-rule:evenodd;stroke:none"
       id="path440" /><path
       d="m 399.379,245.914 h 0.957 v 42.961 h -0.957 z"
       style="fill:#000000;fill-opacity:1;fill-rule:evenodd;stroke:none"
       id="path442" /><path
       d="m 399.379,288.875 h 0.957 v 0.961 h -0.957 z"
       style="fill:#000000;fill-opacity:1;fill-rule:evenodd;stroke:none"
       id="path444" /><path
       d="m 400.336,288.875 h 124.582 v 0.961 H 400.336 Z"
       style="fill:#000000;fill-opacity:1;fill-rule:evenodd;stroke:none"
       id="path446" /><path
       d="m 524.918,245.914 h 0.961 v 42.961 h -0.961 z"
       style="fill:#000000;fill-opacity:1;fill-rule:evenodd;stroke:none"
       id="path448" /><path
       d="m 524.918,288.875 h 0.961 v 0.961 h -0.961 z"
       style="fill:#000000;fill-opacity:1;fill-rule:evenodd;stroke:none"
       id="path450" /><path
       d="m 524.918,288.875 h 0.961 v 0.961 h -0.961 z"
       style="fill:#000000;fill-opacity:1;fill-rule:evenodd;stroke:none"
       id="path452" /><text
       y="296.07489"
       x="56.821796"
       style="font-variant:normal;font-weight:normal;font-size:6.96000004px;font-family:'Nimbus Roman';-inkscape-font-specification:NimbusRoman-Regular;writing-mode:lr-tb;fill:#000000;fill-opacity:1;fill-rule:nonzero;stroke:none"
       id="text456"><tspan
         x="56.821796 59.939877"
         y="296.07489"
         id="tspan454">a </tspan></text>
<text
       y="300.03488"
       x="61.741795"
       style="font-variant:normal;font-weight:normal;font-size:11.03999996px;font-family:'Nimbus Roman';-inkscape-font-specification:NimbusRoman-Regular;writing-mode:lr-tb;fill:#000000;fill-opacity:1;fill-rule:nonzero;stroke:none"
       id="text460"><tspan
         x="61.741795 70.264671 75.166435 80.068199 85.588196 88.348198 93.868195 99.288834 104.1906 107.92212 110.68211 116.08067 121.60068 127.12068 132.64067 136.2618 141.7818 147.30179 152.82179 158.24243 38.797794"
         y="300.03488"
         id="tspan458">mean over 2005-2014  </tspan></text>
<text
       y="308.67487"
       x="56.821796"
       style="font-variant:normal;font-weight:normal;font-size:6.96000004px;font-family:'Nimbus Roman';-inkscape-font-specification:NimbusRoman-Regular;writing-mode:lr-tb;fill:#000000;fill-opacity:1;fill-rule:nonzero;stroke:none"
       id="text464"><tspan
         x="56.821796"
         y="308.67487"
         id="tspan462">b</tspan></text>
<text
       y="312.63489"
       x="63.061794"
       style="font-variant:normal;font-weight:normal;font-size:11.03999996px;font-family:'Nimbus Roman';-inkscape-font-specification:NimbusRoman-Regular;writing-mode:lr-tb;fill:#000000;fill-opacity:1;fill-rule:nonzero;stroke:none"
       id="text468"><tspan
         x="63.061794 68.581795 74.101791 79.003555 83.331238 86.091232 91.611237 97.009796 100.12308 102.88308 105.88596 111.40595 116.30772 119.32163 124.84164 130.36163 135.2634 137.92404 141.03731 144.04019 147.74963 152.55203 155.66531 158.6682 167.30147 172.20323 174.86388 180.38388 185.90387 190.80563 193.56564 196.68996 202.20996 204.84851 207.96179 211.56084 217.08084 222.60085 228.12083 232.41541 237.83604 243.35603 248.2578 251.87892 254.9922 259.89395 262.5546 268.07458 272.97635 275.99026 281.51028 287.03027 291.93204 297.35266 300.11267 303.22595 308.74594 313.0405 317.39026 38.797794"
         y="312.63489"
         id="tspan466">does not include lifetime due to tropospheric halogen loss  </tspan></text>
<text
       y="321.39487"
       x="56.821796"
       style="font-variant:normal;font-weight:normal;font-size:6.96000004px;font-family:'Nimbus Roman';-inkscape-font-specification:NimbusRoman-Regular;writing-mode:lr-tb;fill:#000000;fill-opacity:1;fill-rule:nonzero;stroke:none"
       id="text472"><tspan
         x="56.821796"
         y="321.39487"
         id="tspan470">c</tspan></text>
<text
       y="325.35489"
       x="62.701794"
       style="font-variant:normal;font-weight:normal;font-size:11.03999996px;font-family:'Nimbus Roman';-inkscape-font-specification:NimbusRoman-Regular;writing-mode:lr-tb;fill:#000000;fill-opacity:1;fill-rule:nonzero;stroke:none"
       id="text478"><tspan
         x="62.701794 68.221794 73.741798 78.643555 83.456993 87.166435 90.279716 95.082115 98.195396 103.59396 106.70724 109.71011 114.61188 118.93955 121.69955 124.70244 130.22243 135.74243 138.74532 143.64708 148.54883 151.57379 156.47556 159.20244 165.32964 168.08963 173.60963 177.20868 181.50323 184.6386 189.54036 195.06036 200.481 205.38275 209.11427 214.51283 217.27284 222.79283 227.6946 233.11523 236.22852 241.03091 244.1442 247.25748 252.77748 258.20914 38.797798"
         y="325.35489"
         id="tspan474">uncertainties indicate ± 1-standard deviation  </tspan><tspan
         y="340.00238"
         x="62.701794"
         id="tspan476"> </tspan></text>
</g></svg>