<?xml version="1.0" encoding="UTF-8" standalone="no"?>
<svg
   xmlns:dc="http://purl.org/dc/elements/1.1/"
   xmlns:cc="http://creativecommons.org/ns#"
   xmlns:rdf="http://www.w3.org/1999/02/22-rdf-syntax-ns#"
   xmlns:svg="http://www.w3.org/2000/svg"
   xmlns="http://www.w3.org/2000/svg"
   viewBox="0 0 674.23896 398.71752"
   height="398.7175"
   width="674.23895"
   xml:space="preserve"
   id="svg2"
   version="1.1"><metadata
     id="metadata8"><rdf:RDF><cc:Work
         rdf:about=""><dc:format>image/svg+xml</dc:format><dc:type
           rdf:resource="http://purl.org/dc/dcmitype/StillImage" /><dc:title></dc:title></cc:Work></rdf:RDF></metadata><defs
     id="defs6"><clipPath
       id="clipPath20"
       clipPathUnits="userSpaceOnUse"><path
         id="path18"
         d="M 0.156,0 H 595 V 841 H 0.156 Z" /></clipPath><clipPath
       id="clipPath74"
       clipPathUnits="userSpaceOnUse"><path
         id="path72"
         d="m 389,122 h 13 v 10.703 h -13 z" /></clipPath><clipPath
       id="clipPath92"
       clipPathUnits="userSpaceOnUse"><path
         id="path90"
         d="m 413,122 h 4 v 10.703 h -4 z" /></clipPath><clipPath
       id="clipPath366"
       clipPathUnits="userSpaceOnUse"><path
         id="path364"
         d="m 62,327 h 26 v 10.906 H 62 Z" /></clipPath><clipPath
       id="clipPath386"
       clipPathUnits="userSpaceOnUse"><path
         id="path384"
         d="m 222,327 h 24 v 10.906 h -24 z" /></clipPath><clipPath
       id="clipPath406"
       clipPathUnits="userSpaceOnUse"><path
         id="path404"
         d="m 346,327 h 8 v 10.906 h -8 z" /></clipPath><clipPath
       id="clipPath424"
       clipPathUnits="userSpaceOnUse"><path
         id="path422"
         d="m 391,327 h 3 v 10.906 h -3 z" /></clipPath><clipPath
       id="clipPath628"
       clipPathUnits="userSpaceOnUse"><path
         id="path626"
         d="M 97,381 H 303 V 585 H 97 Z" /></clipPath><clipPath
       id="clipPath634"
       clipPathUnits="userSpaceOnUse"><path
         id="path632"
         d="M 110.504,688.602 565.297,233.809 484.773,153.285 29.98,608.078 Z" /></clipPath><clipPath
       id="clipPath646"
       clipPathUnits="userSpaceOnUse"><path
         id="path644"
         d="M 287,223 H 462 V 394 H 287 Z" /></clipPath><clipPath
       id="clipPath652"
       clipPathUnits="userSpaceOnUse"><path
         id="path650"
         d="M 110.504,688.602 565.297,233.809 484.773,153.285 29.98,608.078 Z" /></clipPath><clipPath
       id="clipPath664"
       clipPathUnits="userSpaceOnUse"><path
         id="path662"
         d="M 80,506 H 256 V 681 H 80 Z" /></clipPath><clipPath
       id="clipPath670"
       clipPathUnits="userSpaceOnUse"><path
         id="path668"
         d="M 110.504,688.602 565.297,233.809 484.773,153.285 29.98,608.078 Z" /></clipPath><clipPath
       id="clipPath682"
       clipPathUnits="userSpaceOnUse"><path
         id="path680"
         d="m 241,451 h 70 v 69 h -70 z" /></clipPath><clipPath
       id="clipPath688"
       clipPathUnits="userSpaceOnUse"><path
         id="path686"
         d="M 110.504,688.602 565.297,233.809 484.773,153.285 29.98,608.078 Z" /></clipPath><clipPath
       id="clipPath700"
       clipPathUnits="userSpaceOnUse"><path
         id="path698"
         d="M 298,348 H 415 V 463 H 298 Z" /></clipPath><clipPath
       id="clipPath706"
       clipPathUnits="userSpaceOnUse"><path
         id="path704"
         d="M 110.504,688.602 565.297,233.809 484.773,153.285 29.98,608.078 Z" /></clipPath><clipPath
       id="clipPath718"
       clipPathUnits="userSpaceOnUse"><path
         id="path716"
         d="M 402,204 H 557 V 360 H 402 Z" /></clipPath><clipPath
       id="clipPath724"
       clipPathUnits="userSpaceOnUse"><path
         id="path722"
         d="M 110.504,688.602 565.297,233.809 484.773,153.285 29.98,608.078 Z" /></clipPath></defs><g
     transform="matrix(1.3333333,0,0,1.3333333,-44.370391,-103.97984)"
     id="g10"><g
       id="g12" /><text
       y="77.984879"
       x="33.277794"
       id="text66"
       style="font-variant:normal;font-weight:normal;font-size:11.03999996px;font-family:TimesNewRomanPSMT;-inkscape-font-specification:TimesNewRomanPSMT;writing-mode:lr-tb;fill:#000000;fill-opacity:1;fill-rule:nonzero;stroke:none"><tspan
         y="77.984879"
         id="tspan56"
         x="33.277794"> </tspan><tspan
         y="91.784882"
         id="tspan58"
         x="33.277794"> </tspan><tspan
         id="tspan60"
         y="104.38488"
         x="62.557796 68.795395 71.908676 77.42868 82.705795 88.2258 147.26772 154.21188 162.61333 167.1618 171.00372 176.52373 181.31508 186.59221 189.70547 192.58693 197.61012 203.13013 208.40724 212.73492 215.83716 219.67908 224.71332 227.58372 232.86084 235.97412 238.85556 244.37556 248.92404 253.2186 258.03204 261.87396 264.74435 270.26434 273.62051 276.49091 282.01093 287.53091 345.75781 351.99539 357.51541 363.0354 365.90579 368.77621 373.33572 378.85571 383.64709 388.92419 391.80563 397.32565 401.87411 406.20181 409.30405">Study Emergent constraint description Published best </tspan><tspan
         id="tspan62"
         y="117.10487"
         x="345.75781 350.30627 354.60083 357.9791 361.09238 369.2399 374.27411 377.61923 382.16772 385.04916 390.0834 395.36053 400.64868">estimate and </tspan><tspan
         id="tspan64"
         y="129.82487"
         x="345.75781 351.2778 356.55493 361.58917 366.13763 369.97955 373.08182 378.11606 380.98645 386.26355">uncertaint</tspan></text>
<g
       id="g68"><g
         clip-path="url(#clipPath74)"
         id="g70"><text
           id="text78"
           style="font-variant:normal;font-weight:normal;font-size:11.03999996px;font-family:TimesNewRomanPSMT;-inkscape-font-specification:TimesNewRomanPSMT;writing-mode:lr-tb;fill:#000000;fill-opacity:1;fill-rule:nonzero;stroke:none"
           transform="translate(389.67271,129.82488)"><tspan
             id="tspan76"
             y="0"
             x="0 5.2771201 8.1585598">y (</tspan></text>
</g></g><g
       id="g80"><text
         id="text84"
         style="font-variant:normal;font-weight:normal;font-size:11.03999996px;font-family:TimesNewRomanPSMT;-inkscape-font-specification:TimesNewRomanPSMT;writing-mode:lr-tb;fill:#000000;fill-opacity:1;fill-rule:nonzero;stroke:none"
         transform="translate(401.43141,129.82488)"><tspan
           id="tspan82"
           y="0"
           x="0 4.3056002">°C</tspan></text>
</g><g
       id="g86"><g
         clip-path="url(#clipPath92)"
         id="g88"><text
           id="text96"
           style="font-variant:normal;font-weight:normal;font-size:11.03999996px;font-family:TimesNewRomanPSMT;-inkscape-font-specification:TimesNewRomanPSMT;writing-mode:lr-tb;fill:#000000;fill-opacity:1;fill-rule:nonzero;stroke:none"
           transform="translate(413.19122,129.82488)"><tspan
             id="tspan94"
             y="0"
             x="0">)</tspan></text>
</g></g><g
       id="g98"><text
         id="text102"
         style="font-variant:normal;font-weight:normal;font-size:11.03999996px;font-family:TimesNewRomanPSMT;-inkscape-font-specification:TimesNewRomanPSMT;writing-mode:lr-tb;fill:#000000;fill-opacity:1;fill-rule:nonzero;stroke:none"
         transform="translate(430.71779,104.38488)"><tspan
           id="tspan100"
           y="0"
           x="0 7.9156799 13.1928 18.227039 22.77552 26.617439 29.730721 34.764961 37.878239 43.155361 46.279678 51.556801 54.681122 59.229599 63.524158 66.659523 69.783836 77.931358 82.965599 86.310722 91.102081 94.160156">Uncertainty estimate: </tspan></text>
<path
         id="path104"
         style="fill:#000000;fill-opacity:1;fill-rule:nonzero;stroke:none"
         d="m 56.797,94.066 h 0.48 v 0.477 h -0.48 z" /><path
         id="path106"
         style="fill:#000000;fill-opacity:1;fill-rule:nonzero;stroke:none"
         d="m 56.797,94.066 h 0.48 v 0.477 h -0.48 z" /><path
         id="path108"
         style="fill:#000000;fill-opacity:1;fill-rule:nonzero;stroke:none"
         d="m 57.277,94.066 h 84.242 v 0.477 H 57.277 Z" /><path
         id="path110"
         style="fill:#000000;fill-opacity:1;fill-rule:nonzero;stroke:none"
         d="m 141.52,94.066 h 0.477 v 0.477 h -0.477 z" /><path
         id="path112"
         style="fill:#000000;fill-opacity:1;fill-rule:nonzero;stroke:none"
         d="m 141.996,94.066 h 198 v 0.477 h -198 z" /><path
         id="path114"
         style="fill:#000000;fill-opacity:1;fill-rule:nonzero;stroke:none"
         d="m 339.996,94.066 h 0.48 v 0.477 h -0.48 z" /><path
         id="path116"
         style="fill:#000000;fill-opacity:1;fill-rule:nonzero;stroke:none"
         d="M 340.477,94.066 H 425.2 v 0.477 h -84.723 z" /><path
         id="path118"
         style="fill:#000000;fill-opacity:1;fill-rule:nonzero;stroke:none"
         d="m 425.199,94.066 h 0.48 v 0.477 h -0.48 z" /><path
         id="path120"
         style="fill:#000000;fill-opacity:1;fill-rule:nonzero;stroke:none"
         d="m 425.68,94.066 h 112.797 v 0.477 H 425.68 Z" /><path
         id="path122"
         style="fill:#000000;fill-opacity:1;fill-rule:nonzero;stroke:none"
         d="m 538.477,94.066 h 0.48 v 0.477 h -0.48 z" /><path
         id="path124"
         style="fill:#000000;fill-opacity:1;fill-rule:nonzero;stroke:none"
         d="m 538.477,94.066 h 0.48 v 0.477 h -0.48 z" /><path
         id="path126"
         style="fill:#000000;fill-opacity:1;fill-rule:nonzero;stroke:none"
         d="m 56.797,94.543 h 0.48 v 38.16 h -0.48 z" /><path
         id="path128"
         style="fill:#000000;fill-opacity:1;fill-rule:nonzero;stroke:none"
         d="m 141.52,94.543 h 0.477 v 38.16 h -0.477 z" /><path
         id="path130"
         style="fill:#000000;fill-opacity:1;fill-rule:nonzero;stroke:none"
         d="m 339.996,94.543 h 0.48 v 38.16 h -0.48 z" /><path
         id="path132"
         style="fill:#000000;fill-opacity:1;fill-rule:nonzero;stroke:none"
         d="m 425.199,94.543 h 0.48 v 38.16 h -0.48 z" /><path
         id="path134"
         style="fill:#000000;fill-opacity:1;fill-rule:nonzero;stroke:none"
         d="m 538.477,94.543 h 0.48 v 38.16 h -0.48 z" /><text
         id="text152"
         style="font-variant:normal;font-weight:normal;font-size:11.03999996px;font-family:TimesNewRomanPSMT;-inkscape-font-specification:TimesNewRomanPSMT;writing-mode:lr-tb;fill:#000000;fill-opacity:1;fill-rule:nonzero;stroke:none"
         transform="translate(62.557795,143.02488)"><tspan
           id="tspan136"
           y="0"
           x="0 3.59904 11.02896 15.82032 21.340321 26.860319 31.4088 35.250721 38.13216 42.680641 45.793919 48.675362 53.698559 56.580002 59.450401 62.331841">(Bender et al., </tspan><tspan
           id="tspan138"
           y="12.480002"
           x="0 5.52 11.04 16.559999 22.08 25.679041">2010) </tspan><tspan
           id="tspan140"
           y="0"
           x="84.720001 90.957596 93.828003 99.105118 104.13936 107.25264 112.77264 118.29264 123.56976 126.4512 129.55344 134.83057 138.18672 142.97807 148.2552 152.09712 157.12032 160.2336 165.02496 170.30208 173.18352 176.78256 182.05968 185.9016 190.93584 193.80624 199.32623 204.60336 207.71664 213.23663 218.51376 222.59856 230.74608 235.78032 238.65073 241.76399 246.7872 251.57855 256.85568 259.73712 265.25711 270.53424">Pinatubo integrated forcing normalized by </tspan><tspan
           id="tspan142"
           y="12.480002"
           x="84.720001 92.149918 101.96448 105.5856 111.8232 117.11136 119.9928 128.38319 133.9032 139.4232 144.21455 147.08496 151.37952 154.28304 159.80304 167.71872 172.99583 175.87727 179.71919 184.99632 188.83824 193.62959 196.74287 202.26288 207.53999 210.42143 215.94144 220.48991 224.33183 228.6264 234.14639 238.48512">CMIP3 models own forcing versus </tspan><tspan
           id="tspan144"
           y="25.200003"
           x="84.720001 87.833282 92.624641 101.01504 106.76688 111.3264 115.16832 120.19152 123.3048 128.58192 132.42384 136.97232 139.85376 144.888 150.16512 155.18832 160.70831 166.22832 170.78784 173.66928 177.50015 182.29152 187.56863 191.65344 196.20192 200.49648 205.07808 209.86945 215.14656 218.028 223.06224 228.33936 233.3736 236.244 241.52112 245.81567 248.94 251.82144 258.55585 265.96368 271.96945">temperature change regressed against ECS </tspan><tspan
           id="tspan146"
           y="0"
           x="283.20001 288.72 291.60144 296.87857">2.4 </tspan><tspan
           id="tspan148"
           y="12.480002"
           x="283.20001 286.79904 292.31903 295.20047 300.72049 303.60193 306.71521 311.99231 314.87375 320.15088 323.03232 328.55231 332.15137">[1.7 to 4.1] </tspan><tspan
           id="tspan150"
           y="0"
           x="368.16 373.67999 382.79904 385.68048 388.79376 394.07089 396.95233 402.47232 407.99231 417.11136">5% to 95% </tspan></text>
<path
         id="path154"
         style="fill:#000000;fill-opacity:1;fill-rule:nonzero;stroke:none"
         d="m 56.797,132.703 h 0.48 v 0.48 h -0.48 z" /><path
         id="path156"
         style="fill:#000000;fill-opacity:1;fill-rule:nonzero;stroke:none"
         d="m 57.277,132.703 h 84.242 v 0.48 H 57.277 Z" /><path
         id="path158"
         style="fill:#000000;fill-opacity:1;fill-rule:nonzero;stroke:none"
         d="m 141.52,132.703 h 0.477 v 0.48 h -0.477 z" /><path
         id="path160"
         style="fill:#000000;fill-opacity:1;fill-rule:nonzero;stroke:none"
         d="m 141.996,132.703 h 198 v 0.48 h -198 z" /><path
         id="path162"
         style="fill:#000000;fill-opacity:1;fill-rule:nonzero;stroke:none"
         d="m 339.996,132.703 h 0.48 v 0.48 h -0.48 z" /><path
         id="path164"
         style="fill:#000000;fill-opacity:1;fill-rule:nonzero;stroke:none"
         d="M 340.477,132.703 H 425.2 v 0.48 h -84.723 z" /><path
         id="path166"
         style="fill:#000000;fill-opacity:1;fill-rule:nonzero;stroke:none"
         d="m 425.199,132.703 h 0.48 v 0.48 h -0.48 z" /><path
         id="path168"
         style="fill:#000000;fill-opacity:1;fill-rule:nonzero;stroke:none"
         d="m 425.68,132.703 h 112.797 v 0.48 H 425.68 Z" /><path
         id="path170"
         style="fill:#000000;fill-opacity:1;fill-rule:nonzero;stroke:none"
         d="m 538.477,132.703 h 0.48 v 0.48 h -0.48 z" /><path
         id="path172"
         style="fill:#000000;fill-opacity:1;fill-rule:nonzero;stroke:none"
         d="m 56.797,133.184 h 0.48 v 37.922 h -0.48 z" /><path
         id="path174"
         style="fill:#000000;fill-opacity:1;fill-rule:nonzero;stroke:none"
         d="m 141.52,133.184 h 0.477 v 37.922 h -0.477 z" /><path
         id="path176"
         style="fill:#000000;fill-opacity:1;fill-rule:nonzero;stroke:none"
         d="m 339.996,133.184 h 0.48 v 37.922 h -0.48 z" /><path
         id="path178"
         style="fill:#000000;fill-opacity:1;fill-rule:nonzero;stroke:none"
         d="m 425.199,133.184 h 0.48 v 37.922 h -0.48 z" /><path
         id="path180"
         style="fill:#000000;fill-opacity:1;fill-rule:nonzero;stroke:none"
         d="m 538.477,133.184 h 0.48 v 37.922 h -0.48 z" /><text
         id="text198"
         style="font-variant:normal;font-weight:normal;font-size:11.03999996px;font-family:TimesNewRomanPSMT;-inkscape-font-specification:TimesNewRomanPSMT;writing-mode:lr-tb;fill:#000000;fill-opacity:1;fill-rule:nonzero;stroke:none"
         transform="translate(62.557795,181.42488)"><tspan
           id="tspan182"
           y="0"
           x="0 3.59904 11.7576 16.30608 20.600639 24.93936 28.052641 32.60112 36.443039 39.324478 44.358719 49.635841 54.91296">(Dessler and </tspan><tspan
           id="tspan184"
           y="12.720001"
           x="0 6.2375998 11.51472 15.35664 19.651199 22.78656 27.335039 31.17696 34.058399 36.939838 42.459839 47.736961 53.256962 58.776958 62.375999">Forster, 2018) </tspan><tspan
           id="tspan186"
           y="0"
           x="84.720001 91.675201 100.0656 104.61408 108.456 113.976 118.76736 124.04448 127.14672 130.02815 135.06239 140.5824 145.85951 150.15408 153.28944 157.13136 162.1656 165.036 170.31313 173.42641 176.30785 181.82784 187.10497 189.9864 196.93056 204.84624 212.53008 215.41151 219.01056 224.0448 229.32191 232.19232 237.21552 240.3288 243.44208 248.96208 254.2392">Emergent constraint on TOA radiation </tspan><tspan
           id="tspan188"
           y="12.720001"
           x="84.720001 89.997116 95.031357 98.862236 101.74368 106.76688 109.88016 112.75056 118.27056 123.54768 127.84224 130.74576 133.85904 136.97232 142.24944 147.76944 152.56081 157.83792 160.71936 164.06448 169.3416 172.46593 180.85632 183.9696 189.24672 192.8568 195.95905 199.80096 205.07808 210.84096 216.11807 220.41264 225.93263 231.45264 236.02319 240.108 242.97839 247.76976">variations linked to mid-tropospheric </tspan><tspan
           id="tspan190"
           y="25.200003"
           x="84.720001 87.833282 92.624641 101.01504 106.76688 111.3264 115.16832 120.19152 123.3048 128.58192 132.42384 136.97232 139.85376 142.96704 148.24416 151.1256 158.55553 168.37009 171.9912 178.23984 183.75984 186.64128 194.7888 200.30879 205.8288 210.62016 213.49055 218.03903">temperature in CMIP5 models </tspan><tspan
           id="tspan192"
           y="0"
           x="283.20001 288.72 291.60144 296.87857">3.3 </tspan><tspan
           id="tspan194"
           y="12.720001"
           x="283.20001 286.79904 292.31903 295.20047 300.72049 303.60193 306.71521 311.99231 314.87375 320.15088 323.03232 328.55231 332.15137">[2.4 to 4.5] </tspan><tspan
           id="tspan196"
           y="0"
           x="368.16 373.67999 379.20001 388.31903 391.20047 394.31375 399.59088 402.47232 407.99231 413.51233 422.63135">17% to 83% </tspan></text>
<path
         id="path200"
         style="fill:#000000;fill-opacity:1;fill-rule:nonzero;stroke:none"
         d="m 56.797,171.105 h 0.48 v 0.48 h -0.48 z" /><path
         id="path202"
         style="fill:#000000;fill-opacity:1;fill-rule:nonzero;stroke:none"
         d="m 57.277,171.105 h 84.242 v 0.48 H 57.277 Z" /><path
         id="path204"
         style="fill:#000000;fill-opacity:1;fill-rule:nonzero;stroke:none"
         d="m 141.52,171.105 h 0.477 v 0.48 h -0.477 z" /><path
         id="path206"
         style="fill:#000000;fill-opacity:1;fill-rule:nonzero;stroke:none"
         d="m 141.996,171.105 h 198 v 0.48 h -198 z" /><path
         id="path208"
         style="fill:#000000;fill-opacity:1;fill-rule:nonzero;stroke:none"
         d="m 339.996,171.105 h 0.48 v 0.48 h -0.48 z" /><path
         id="path210"
         style="fill:#000000;fill-opacity:1;fill-rule:nonzero;stroke:none"
         d="M 340.477,171.105 H 425.2 v 0.48 h -84.723 z" /><path
         id="path212"
         style="fill:#000000;fill-opacity:1;fill-rule:nonzero;stroke:none"
         d="m 425.199,171.105 h 0.48 v 0.48 h -0.48 z" /><path
         id="path214"
         style="fill:#000000;fill-opacity:1;fill-rule:nonzero;stroke:none"
         d="m 425.68,171.105 h 112.797 v 0.48 H 425.68 Z" /><path
         id="path216"
         style="fill:#000000;fill-opacity:1;fill-rule:nonzero;stroke:none"
         d="m 538.477,171.105 h 0.48 v 0.48 h -0.48 z" /><path
         id="path218"
         style="fill:#000000;fill-opacity:1;fill-rule:nonzero;stroke:none"
         d="m 56.797,171.586 h 0.48 v 37.918 h -0.48 z" /><path
         id="path220"
         style="fill:#000000;fill-opacity:1;fill-rule:nonzero;stroke:none"
         d="m 141.52,171.586 h 0.477 v 37.918 h -0.477 z" /><path
         id="path222"
         style="fill:#000000;fill-opacity:1;fill-rule:nonzero;stroke:none"
         d="m 339.996,171.586 h 0.48 v 37.918 h -0.48 z" /><path
         id="path224"
         style="fill:#000000;fill-opacity:1;fill-rule:nonzero;stroke:none"
         d="m 425.199,171.586 h 0.48 v 37.918 h -0.48 z" /><path
         id="path226"
         style="fill:#000000;fill-opacity:1;fill-rule:nonzero;stroke:none"
         d="m 538.477,171.586 h 0.48 v 37.918 h -0.48 z" /><text
         id="text242"
         style="font-variant:normal;font-weight:normal;font-size:11.03999996px;font-family:TimesNewRomanPSMT;-inkscape-font-specification:TimesNewRomanPSMT;writing-mode:lr-tb;fill:#000000;fill-opacity:1;fill-rule:nonzero;stroke:none"
         transform="translate(62.557795,219.82488)"><tspan
           id="tspan228"
           y="0"
           x="0 3.59904 11.51472 16.54896 20.390881 25.667999 29.50992 34.058399 39.09264 44.61264 49.161121 53.455681 56.602081 61.150558 64.26384">(Hargreaves et </tspan><tspan
           id="tspan230"
           y="12.720001"
           x="0 5.0342398 7.9046402 10.78608 13.42464 16.30608 21.82608 27.346081 32.866081 38.386082 41.742241">al., 2012) </tspan><tspan
           id="tspan232"
           y="0"
           x="84.720001 91.454399 96.46656 100.76112 103.6536 106.53504 114.45072 117.32112 122.35536 127.14672 130.01712 135.05136 137.92175 140.80319 150.61775 155.67407 161.19408 164.06448 172.21201 177.97488 186.36528 189.24672 192.36 196.20192 201.47903 206.99904 209.86945 214.6608 219.69504 222.56544 225.44688 231.68448 237.92207 244.87727 248.95103 251.83247 254.70288 259.98001">Last Glacial Maximum tropical SSTs in </tspan><tspan
           id="tspan234"
           y="12.720001"
           x="84.720001 90.957596 100.77216 104.39328 110.63088 115.91904 118.80048 127.19088 132.71088 138.23088 143.02223 145.89264 150.44112">PMIP2 models </tspan><tspan
           id="tspan236"
           y="0"
           x="283.20001 288.72 291.60144 297.12143">2.5 </tspan><tspan
           id="tspan238"
           y="12.720001"
           x="283.20001 286.79904 292.31903 295.20047 300.72049 303.60193 306.71521 311.99231 314.87375 320.15088 323.03232 328.55231 332.15137">[1.3 to 4.2] </tspan><tspan
           id="tspan240"
           y="0"
           x="368.16 373.67999 382.79904 385.68048 388.79376 394.07089 396.95233 402.47232 407.99231 417.11136">5% to 95% </tspan></text>
<path
         id="path244"
         style="fill:#000000;fill-opacity:1;fill-rule:nonzero;stroke:none"
         d="m 56.797,209.504 h 0.48 v 0.48 h -0.48 z" /><path
         id="path246"
         style="fill:#000000;fill-opacity:1;fill-rule:nonzero;stroke:none"
         d="m 57.277,209.504 h 84.242 v 0.48 H 57.277 Z" /><path
         id="path248"
         style="fill:#000000;fill-opacity:1;fill-rule:nonzero;stroke:none"
         d="m 141.52,209.504 h 0.477 v 0.48 h -0.477 z" /><path
         id="path250"
         style="fill:#000000;fill-opacity:1;fill-rule:nonzero;stroke:none"
         d="m 141.996,209.504 h 198 v 0.48 h -198 z" /><path
         id="path252"
         style="fill:#000000;fill-opacity:1;fill-rule:nonzero;stroke:none"
         d="m 339.996,209.504 h 0.48 v 0.48 h -0.48 z" /><path
         id="path254"
         style="fill:#000000;fill-opacity:1;fill-rule:nonzero;stroke:none"
         d="M 340.477,209.504 H 425.2 v 0.48 h -84.723 z" /><path
         id="path256"
         style="fill:#000000;fill-opacity:1;fill-rule:nonzero;stroke:none"
         d="m 425.199,209.504 h 0.48 v 0.48 h -0.48 z" /><path
         id="path258"
         style="fill:#000000;fill-opacity:1;fill-rule:nonzero;stroke:none"
         d="m 425.68,209.504 h 112.797 v 0.48 H 425.68 Z" /><path
         id="path260"
         style="fill:#000000;fill-opacity:1;fill-rule:nonzero;stroke:none"
         d="m 538.477,209.504 h 0.48 v 0.48 h -0.48 z" /><path
         id="path262"
         style="fill:#000000;fill-opacity:1;fill-rule:nonzero;stroke:none"
         d="m 56.797,209.984 h 0.48 v 25.199 h -0.48 z" /><path
         id="path264"
         style="fill:#000000;fill-opacity:1;fill-rule:nonzero;stroke:none"
         d="m 141.52,209.984 h 0.477 v 25.199 h -0.477 z" /><path
         id="path266"
         style="fill:#000000;fill-opacity:1;fill-rule:nonzero;stroke:none"
         d="m 339.996,209.984 h 0.48 v 25.199 h -0.48 z" /><path
         id="path268"
         style="fill:#000000;fill-opacity:1;fill-rule:nonzero;stroke:none"
         d="m 425.199,209.984 h 0.48 v 25.199 h -0.48 z" /><path
         id="path270"
         style="fill:#000000;fill-opacity:1;fill-rule:nonzero;stroke:none"
         d="m 538.477,209.984 h 0.48 v 25.199 h -0.48 z" /><text
         id="text278"
         style="font-variant:normal;font-weight:normal;font-size:11.03999996px;font-family:TimesNewRomanPSMT;-inkscape-font-specification:TimesNewRomanPSMT;writing-mode:lr-tb;fill:#000000;fill-opacity:1;fill-rule:nonzero;stroke:none"
         transform="translate(62.557795,245.74488)"><tspan
           id="tspan272"
           y="0"
           x="0 3.59904 11.51472 16.54896 20.390881 25.667999 29.50992 34.058399 39.09264 44.61264 49.161121 53.455681 56.3592 61.39344 66.913437 72.190559">(Hargreaves and </tspan><tspan
           id="tspan274"
           y="12.480002"
           x="0 7.9156799 13.43568 18.723841 23.74704 29.02416 31.9056 34.787041 40.307041 45.827042 51.347038 56.867039 60.46608">Annan, 2016) </tspan><tspan
           id="tspan276"
           y="0"
           x="84.720001 90.957596 93.828003 96.941277 102.2184 107.25264 112.044 117.564 122.11248 124.99392 128.11824 131.93808 137.22624 142.97807 145.85951 150.63985 155.67407 158.54448 161.42592 167.66351 173.90112 180.63551 184.93008 187.81152 190.69296 195.97008 198.85152 205.08913 207.95952 211.0728 216.34991 226.16447 229.7856 236.02319 238.90463 247.29504 252.81503 258.33505 263.1264 265.9968 270.54529 283.03152 286.63055 292.15057 295.03201 300.552 303.43344 306.53568 311.81281 314.69424 319.97137 322.85281 328.3728 331.98288 367.98431 373.50433 382.62335 385.50479 388.60703 393.8952 396.77664 402.29663 407.81665 416.92465">Pliocene tropical SSTs in PlioMIP models [1.9 to 3.7] 5% to 95% </tspan></text>
<path
         id="path280"
         style="fill:#000000;fill-opacity:1;fill-rule:nonzero;stroke:none"
         d="m 56.797,235.184 h 0.48 v 0.48 h -0.48 z" /><path
         id="path282"
         style="fill:#000000;fill-opacity:1;fill-rule:nonzero;stroke:none"
         d="m 57.277,235.184 h 84.242 v 0.48 H 57.277 Z" /><path
         id="path284"
         style="fill:#000000;fill-opacity:1;fill-rule:nonzero;stroke:none"
         d="m 141.52,235.184 h 0.477 v 0.48 h -0.477 z" /><path
         id="path286"
         style="fill:#000000;fill-opacity:1;fill-rule:nonzero;stroke:none"
         d="m 141.996,235.184 h 198 v 0.48 h -198 z" /><path
         id="path288"
         style="fill:#000000;fill-opacity:1;fill-rule:nonzero;stroke:none"
         d="m 339.996,235.184 h 0.48 v 0.48 h -0.48 z" /><path
         id="path290"
         style="fill:#000000;fill-opacity:1;fill-rule:nonzero;stroke:none"
         d="M 340.477,235.184 H 425.2 v 0.48 h -84.723 z" /><path
         id="path292"
         style="fill:#000000;fill-opacity:1;fill-rule:nonzero;stroke:none"
         d="m 425.199,235.184 h 0.48 v 0.48 h -0.48 z" /><path
         id="path294"
         style="fill:#000000;fill-opacity:1;fill-rule:nonzero;stroke:none"
         d="m 425.68,235.184 h 112.797 v 0.48 H 425.68 Z" /><path
         id="path296"
         style="fill:#000000;fill-opacity:1;fill-rule:nonzero;stroke:none"
         d="m 538.477,235.184 h 0.48 v 0.48 h -0.48 z" /><path
         id="path298"
         style="fill:#000000;fill-opacity:1;fill-rule:nonzero;stroke:none"
         d="m 56.797,235.664 h 0.48 v 25.441 h -0.48 z" /><path
         id="path300"
         style="fill:#000000;fill-opacity:1;fill-rule:nonzero;stroke:none"
         d="m 141.52,235.664 h 0.477 v 25.441 h -0.477 z" /><path
         id="path302"
         style="fill:#000000;fill-opacity:1;fill-rule:nonzero;stroke:none"
         d="m 339.996,235.664 h 0.48 v 25.441 h -0.48 z" /><path
         id="path304"
         style="fill:#000000;fill-opacity:1;fill-rule:nonzero;stroke:none"
         d="m 425.199,235.664 h 0.48 v 25.441 h -0.48 z" /><path
         id="path306"
         style="fill:#000000;fill-opacity:1;fill-rule:nonzero;stroke:none"
         d="m 538.477,235.664 h 0.48 v 25.441 h -0.48 z" /><text
         id="text326"
         style="font-variant:normal;font-weight:normal;font-size:11.03999996px;font-family:TimesNewRomanPSMT;-inkscape-font-specification:TimesNewRomanPSMT;writing-mode:lr-tb;fill:#000000;fill-opacity:1;fill-rule:nonzero;stroke:none"
         transform="translate(62.557795,271.42488)"><tspan
           id="tspan308"
           y="0"
           x="0 3.59904 7.8936 11.02896 19.419359 24.21072 29.730721 34.522079 39.55632 43.387199 48.9072 53.466721 57.2976 60.179039 65.20224">(Jiménez-de-la-</tspan><tspan
           id="tspan310"
           y="12.720001"
           x="0 7.4299202 12.94992 17.4984 21.792959 24.92832 29.962561 32.844002 37.867199 43.144321 48.42144">Cuesta and </tspan><tspan
           id="tspan312"
           y="25.195202"
           x="0 9.8145599 14.87088 20.148001 23.98992 26.860319 29.962561 34.290241 39.0816 44.358719 47.229118">Mauritsen, </tspan><tspan
           id="tspan314"
           y="37.920006"
           x="0 5.52 11.04 16.559999 22.08 25.679041">2019) </tspan><tspan
           id="tspan316"
           y="4.9027449e-15"
           x="84.720001 90.957596 96.234718 100.52928 103.66464 109.18464 114.70464 120.22464 125.74464 131.26463 135.5592 138.46272 143.75089 146.62128 151.89841 157.4184 162.45264 165.32304 168.43633 176.12016 181.14336 184.98528 193.37569 196.48895 202.00896 207.28609 210.16753 213.04897 218.56895 224.08896 229.60896 235.12895 240.64896 246.16896 251.68896 257.20895 262.48608">Post–1970s global warming, 1995–2005 </tspan><tspan
           id="tspan318"
           y="12.720001"
           x="84.720001 88.56192 93.110397 95.980797 101.01504 104.12832 107.23056 112.75056 117.29904 120.18048 123.29376 128.58192 131.46336 136.98335 142.50336 148.02336 153.54337 159.06335 164.58336 170.10336 175.62335 181.14336 184.01376 186.8952 194.09328 203.90784 207.52896 213.76656 219.28656 222.168 230.31552 235.83553 241.35551 246.14688 249.01727 253.56577">relative to 1970–1989, CMIP5 models </tspan><tspan
           id="tspan320"
           y="4.9027449e-15"
           x="283.20001 288.72 291.60144 297.12143 302.39856">2.83 </tspan><tspan
           id="tspan322"
           y="12.720001"
           x="283.20001 286.79904 292.31903 295.20047 300.72049 306.24048 309.12192 312.2352 317.51233 320.39377 325.67087 328.55231 334.07233 339.59232 342.94849">[1.72 to 4.12] </tspan><tspan
           id="tspan324"
           y="4.9027449e-15"
           x="368.16 373.67999 382.79904 385.68048 388.79376 394.07089 396.95233 402.47232 407.99231 417.11136">5% to 95% </tspan></text>
<path
         id="path328"
         style="fill:#000000;fill-opacity:1;fill-rule:nonzero;stroke:none"
         d="m 56.797,261.105 h 0.48 v 0.48 h -0.48 z" /><path
         id="path330"
         style="fill:#000000;fill-opacity:1;fill-rule:nonzero;stroke:none"
         d="m 57.277,261.105 h 84.242 v 0.48 H 57.277 Z" /><path
         id="path332"
         style="fill:#000000;fill-opacity:1;fill-rule:nonzero;stroke:none"
         d="m 141.52,261.105 h 0.477 v 0.48 h -0.477 z" /><path
         id="path334"
         style="fill:#000000;fill-opacity:1;fill-rule:nonzero;stroke:none"
         d="m 141.996,261.105 h 198 v 0.48 h -198 z" /><path
         id="path336"
         style="fill:#000000;fill-opacity:1;fill-rule:nonzero;stroke:none"
         d="m 339.996,261.105 h 0.48 v 0.48 h -0.48 z" /><path
         id="path338"
         style="fill:#000000;fill-opacity:1;fill-rule:nonzero;stroke:none"
         d="M 340.477,261.105 H 425.2 v 0.48 h -84.723 z" /><path
         id="path340"
         style="fill:#000000;fill-opacity:1;fill-rule:nonzero;stroke:none"
         d="m 425.199,261.105 h 0.48 v 0.48 h -0.48 z" /><path
         id="path342"
         style="fill:#000000;fill-opacity:1;fill-rule:nonzero;stroke:none"
         d="m 425.68,261.105 h 112.797 v 0.48 H 425.68 Z" /><path
         id="path344"
         style="fill:#000000;fill-opacity:1;fill-rule:nonzero;stroke:none"
         d="m 538.477,261.105 h 0.48 v 0.48 h -0.48 z" /><path
         id="path346"
         style="fill:#000000;fill-opacity:1;fill-rule:nonzero;stroke:none"
         d="m 56.797,261.586 h 0.48 v 50.641 h -0.48 z" /><path
         id="path348"
         style="fill:#000000;fill-opacity:1;fill-rule:nonzero;stroke:none"
         d="m 141.52,261.586 h 0.477 v 50.641 h -0.477 z" /><path
         id="path350"
         style="fill:#000000;fill-opacity:1;fill-rule:nonzero;stroke:none"
         d="m 339.996,261.586 h 0.48 v 50.641 h -0.48 z" /><path
         id="path352"
         style="fill:#000000;fill-opacity:1;fill-rule:nonzero;stroke:none"
         d="m 425.199,261.586 h 0.48 v 50.641 h -0.48 z" /><path
         id="path354"
         style="fill:#000000;fill-opacity:1;fill-rule:nonzero;stroke:none"
         d="m 538.477,261.586 h 0.48 v 50.641 h -0.48 z" /><text
         id="text358"
         style="font-variant:normal;font-weight:normal;font-size:11.03999996px;font-family:TimesNewRomanPSMT;-inkscape-font-specification:TimesNewRomanPSMT;writing-mode:lr-tb;fill:#000000;fill-opacity:1;fill-rule:nonzero;stroke:none"
         transform="translate(62.557795,322.54488)"><tspan
           id="tspan356"
           y="0"
           x="0 3.59904 11.51472 14.628 17.4984 21.792959 26.374559 30.92304 34.047359 38.59584 41.709122 44.590561 49.624802 52.495201 55.37664 58.015202">(Nijsse et al., </tspan></text>
</g><g
       id="g360"><g
         clip-path="url(#clipPath366)"
         id="g362"><text
           id="text370"
           style="font-variant:normal;font-weight:normal;font-size:11.03999996px;font-family:TimesNewRomanPSMT;-inkscape-font-specification:TimesNewRomanPSMT;writing-mode:lr-tb;fill:#000000;fill-opacity:1;fill-rule:nonzero;stroke:none"
           transform="translate(62.557795,335.26488)"><tspan
             id="tspan368"
             y="0"
             x="0 5.52 11.04 16.559999 22.08">2020)</tspan></text>
</g></g><g
       id="g372"><text
         id="text378"
         style="font-variant:normal;font-weight:normal;font-size:11.03999996px;font-family:TimesNewRomanPSMT;-inkscape-font-specification:TimesNewRomanPSMT;writing-mode:lr-tb;fill:#000000;fill-opacity:1;fill-rule:nonzero;stroke:none"
         transform="translate(147.27779,322.54488)"><tspan
           id="tspan374"
           y="0"
           x="0 6.2375998 11.51472 15.80928 18.944639 24.46464 29.98464 35.504639 41.024639 46.54464 50.839199 53.742722 59.03088 61.901279 67.178398 72.698402 77.732643 80.603043 83.716316 91.400162 96.423363 100.26528 108.65568 111.76896 117.28896 122.56608 125.44752 128.32896 133.84895 139.36896 144.88896 150.40897 155.92896 161.44896 166.96896 172.48895 177.76608">Post–1970s global warming, 2009–2019 </tspan><tspan
           id="tspan376"
           y="12.720001"
           x="0 3.8419199 8.3903999 11.2608 16.29504 19.408319 22.510559 28.03056 32.579041 35.46048 38.573761 43.861919 46.743359 52.263359 57.78336 63.30336 68.823357">relative to 1975–</tspan></text>
</g><g
       id="g380"><g
         clip-path="url(#clipPath386)"
         id="g382"><text
           id="text390"
           style="font-variant:normal;font-weight:normal;font-size:11.03999996px;font-family:TimesNewRomanPSMT;-inkscape-font-specification:TimesNewRomanPSMT;writing-mode:lr-tb;fill:#000000;fill-opacity:1;fill-rule:nonzero;stroke:none"
           transform="translate(221.67779,335.26488)"><tspan
             id="tspan388"
             y="0"
             x="0 5.52 11.04 16.559999 22.08">1985,</tspan></text>
</g></g><g
       id="g392"><text
         id="text398"
         style="font-variant:normal;font-weight:normal;font-size:11.03999996px;font-family:TimesNewRomanPSMT;-inkscape-font-specification:TimesNewRomanPSMT;writing-mode:lr-tb;fill:#000000;fill-opacity:1;fill-rule:nonzero;stroke:none"
         transform="translate(249.51957,335.26488)"><tspan
           id="tspan394"
           y="0"
           x="0 7.1870399 17.0016 20.622721 26.860319 32.380322 35.261761 43.420319 48.940319 54.46032 59.251678 62.122082 66.670563">CMIP6 models </tspan><tspan
           id="tspan396"
           y="-12.720001"
           x="96.23822 101.75822 104.63966 109.91678">2.6 </tspan></text>
</g><g
       id="g400"><g
         clip-path="url(#clipPath406)"
         id="g402"><text
           id="text410"
           style="font-variant:normal;font-weight:normal;font-size:11.03999996px;font-family:TimesNewRomanPSMT;-inkscape-font-specification:TimesNewRomanPSMT;writing-mode:lr-tb;fill:#000000;fill-opacity:1;fill-rule:nonzero;stroke:none"
           transform="translate(345.75779,335.26488)"><tspan
             id="tspan408"
             y="0"
             x="0 3.59904">[1</tspan></text>
</g></g><g
       id="g412"><text
         id="text416"
         style="font-variant:normal;font-weight:normal;font-size:11.03999996px;font-family:TimesNewRomanPSMT;-inkscape-font-specification:TimesNewRomanPSMT;writing-mode:lr-tb;fill:#000000;fill-opacity:1;fill-rule:nonzero;stroke:none"
         transform="translate(354.87683,335.26488)"><tspan
           id="tspan414"
           y="0"
           x="0 2.8814399 8.4014397 11.28288 14.39616 19.673281 22.55472 27.831841 30.71328">.5 to 4.0</tspan></text>
</g><g
       id="g418"><g
         clip-path="url(#clipPath424)"
         id="g420"><text
           id="text428"
           style="font-variant:normal;font-weight:normal;font-size:11.03999996px;font-family:TimesNewRomanPSMT;-inkscape-font-specification:TimesNewRomanPSMT;writing-mode:lr-tb;fill:#000000;fill-opacity:1;fill-rule:nonzero;stroke:none"
           transform="translate(391.11415,335.26488)"><tspan
             id="tspan426"
             y="0"
             x="0">]</tspan></text>
</g></g><text
       y="322.54489"
       x="430.7178"
       style="font-variant:normal;font-weight:normal;font-size:11.03999996px;font-family:TimesNewRomanPSMT;-inkscape-font-specification:TimesNewRomanPSMT;writing-mode:lr-tb;fill:#000000;fill-opacity:1;fill-rule:nonzero;stroke:none"
       id="text434"><tspan
         x="430.7178 436.23779 445.35684 448.23828 451.35156 456.62869 459.51013 465.03012 470.55011 479.66916"
         y="322.54489"
         id="tspan432">5% to 95% </tspan></text>
<path
       d="m 56.797,312.227 h 0.48 v 0.477 h -0.48 z"
       style="fill:#000000;fill-opacity:1;fill-rule:nonzero;stroke:none"
       id="path436" /><path
       d="m 57.277,312.227 h 84.242 v 0.477 H 57.277 Z"
       style="fill:#000000;fill-opacity:1;fill-rule:nonzero;stroke:none"
       id="path438" /><path
       d="m 141.52,312.227 h 0.477 v 0.477 h -0.477 z"
       style="fill:#000000;fill-opacity:1;fill-rule:nonzero;stroke:none"
       id="path440" /><path
       d="m 141.996,312.227 h 198 v 0.477 h -198 z"
       style="fill:#000000;fill-opacity:1;fill-rule:nonzero;stroke:none"
       id="path442" /><path
       d="m 339.996,312.227 h 0.48 v 0.477 h -0.48 z"
       style="fill:#000000;fill-opacity:1;fill-rule:nonzero;stroke:none"
       id="path444" /><path
       d="M 340.477,312.227 H 425.2 v 0.477 h -84.723 z"
       style="fill:#000000;fill-opacity:1;fill-rule:nonzero;stroke:none"
       id="path446" /><path
       d="m 425.199,312.227 h 0.48 v 0.477 h -0.48 z"
       style="fill:#000000;fill-opacity:1;fill-rule:nonzero;stroke:none"
       id="path448" /><path
       d="m 425.68,312.227 h 112.797 v 0.477 H 425.68 Z"
       style="fill:#000000;fill-opacity:1;fill-rule:nonzero;stroke:none"
       id="path450" /><path
       d="m 538.477,312.227 h 0.48 v 0.477 h -0.48 z"
       style="fill:#000000;fill-opacity:1;fill-rule:nonzero;stroke:none"
       id="path452" /><path
       d="m 56.797,312.703 h 0.48 v 25.203 h -0.48 z"
       style="fill:#000000;fill-opacity:1;fill-rule:nonzero;stroke:none"
       id="path454" /><path
       d="m 141.52,312.703 h 0.477 v 25.203 h -0.477 z"
       style="fill:#000000;fill-opacity:1;fill-rule:nonzero;stroke:none"
       id="path456" /><path
       d="m 339.996,312.703 h 0.48 v 25.203 h -0.48 z"
       style="fill:#000000;fill-opacity:1;fill-rule:nonzero;stroke:none"
       id="path458" /><path
       d="m 425.199,312.703 h 0.48 v 25.203 h -0.48 z"
       style="fill:#000000;fill-opacity:1;fill-rule:nonzero;stroke:none"
       id="path460" /><path
       d="m 538.477,312.703 h 0.48 v 25.203 h -0.48 z"
       style="fill:#000000;fill-opacity:1;fill-rule:nonzero;stroke:none"
       id="path462" /><text
       y="348.22488"
       x="62.557796"
       style="font-variant:normal;font-weight:normal;font-size:11.03999996px;font-family:TimesNewRomanPSMT;-inkscape-font-specification:TimesNewRomanPSMT;writing-mode:lr-tb;fill:#000000;fill-opacity:1;fill-rule:nonzero;stroke:none"
       id="text476"><tspan
         x="62.557796 66.156837 73.586754 78.378113 83.898117 89.175232 94.938118 97.808517 100.92179 103.80324 108.35172 111.465 114.34644 119.38068 122.25108 125.13251 128.01396"
         y="348.22488"
         id="tspan464">(Renoult et al., </tspan><tspan
         x="62.557796 68.077797 73.597794 79.117798 84.637794 88.236839"
         y="360.94489"
         id="tspan466">2020) </tspan><tspan
         x="147.2778 154.70772 160.22772 168.37523 174.13812 177.2514 182.77139 187.56276 192.83987 195.72131 202.45572 207.45683 211.78452 214.88676 217.7682 225.69492 228.56532 233.58852 238.37988 241.25027 246.28452 249.15492 252.03636 261.85092 266.90723 272.42725 275.29764 283.44516 289.20804 297.36658 300.24805 305.27124 310.79123 316.06836"
         y="348.22488"
         id="tspan468">Combined Last Glacial Maximum and </tspan><tspan
         x="147.2778 153.5154 156.3858 159.49907 164.7762 169.81044 174.60179 180.1218 184.67027 187.55171 190.66499 194.50691 199.78404 205.54692 208.41731 213.20868 218.23187 221.11333 223.99477 230.23236 236.46996 243.17123 247.49892 250.38036 253.25076 258.52786 261.4093 267.64691 277.46149 281.08258 287.32019 292.59732 295.47876 298.11731 304.35492 314.16946 317.79059 324.0282 329.30533 332.18677"
         y="360.94489"
         id="tspan470">Pliocene tropical SSTs in PMIP2, PMIP3, </tspan><tspan
         x="147.2778 153.5154 163.32996 166.95108 173.18867 178.46579 181.34723 183.98579 190.2234 193.0938 196.20708 201.48421 211.29877 214.91988 221.15749 224.03893 229.07317 234.35028 239.6274 242.50883 248.74644 251.61684 254.73012 260.00723 269.82178 273.4429 279.68051 285.2005 288.32483 296.71524 301.99234 307.51236 312.30371 315.1741 319.74469"
         y="373.66489"
         id="tspan472">PMIP4, PlioMIP and PlioMIP2 models </tspan><tspan
         x="345.75781 351.2778 354.15924 359.67923 362.56067 366.15973 371.43683 374.31827 379.83829 382.47684 385.59012 390.86725 393.74869 399.26868 402.15012 407.67014 411.02628 430.7106 436.23059 445.34964 448.23108 451.34436 456.62149 459.50293 465.02292 470.54291 479.66196"
         y="348.22488"
         id="tspan474">2.5 [0.8 to 4.0] 5% to 95% </tspan></text>
<path
       d="m 56.797,337.906 h 0.48 v 0.48 h -0.48 z"
       style="fill:#000000;fill-opacity:1;fill-rule:nonzero;stroke:none"
       id="path478" /><path
       d="m 57.277,337.906 h 84.242 v 0.48 H 57.277 Z"
       style="fill:#000000;fill-opacity:1;fill-rule:nonzero;stroke:none"
       id="path480" /><path
       d="m 141.52,337.906 h 0.477 v 0.48 h -0.477 z"
       style="fill:#000000;fill-opacity:1;fill-rule:nonzero;stroke:none"
       id="path482" /><path
       d="m 141.996,337.906 h 198 v 0.48 h -198 z"
       style="fill:#000000;fill-opacity:1;fill-rule:nonzero;stroke:none"
       id="path484" /><path
       d="m 339.996,337.906 h 0.48 v 0.48 h -0.48 z"
       style="fill:#000000;fill-opacity:1;fill-rule:nonzero;stroke:none"
       id="path486" /><path
       d="M 340.477,337.906 H 425.2 v 0.48 h -84.723 z"
       style="fill:#000000;fill-opacity:1;fill-rule:nonzero;stroke:none"
       id="path488" /><path
       d="m 425.199,337.906 h 0.48 v 0.48 h -0.48 z"
       style="fill:#000000;fill-opacity:1;fill-rule:nonzero;stroke:none"
       id="path490" /><path
       d="m 425.68,337.906 h 112.797 v 0.48 H 425.68 Z"
       style="fill:#000000;fill-opacity:1;fill-rule:nonzero;stroke:none"
       id="path492" /><path
       d="m 538.477,337.906 h 0.48 v 0.48 h -0.48 z"
       style="fill:#000000;fill-opacity:1;fill-rule:nonzero;stroke:none"
       id="path494" /><path
       d="m 56.797,338.387 h 0.48 v 38.156 h -0.48 z"
       style="fill:#000000;fill-opacity:1;fill-rule:nonzero;stroke:none"
       id="path496" /><path
       d="m 56.797,376.543 h 0.48 v 0.48 h -0.48 z"
       style="fill:#000000;fill-opacity:1;fill-rule:nonzero;stroke:none"
       id="path498" /><path
       d="m 56.797,376.543 h 0.48 v 0.48 h -0.48 z"
       style="fill:#000000;fill-opacity:1;fill-rule:nonzero;stroke:none"
       id="path500" /><path
       d="m 57.277,376.543 h 84.242 v 0.48 H 57.277 Z"
       style="fill:#000000;fill-opacity:1;fill-rule:nonzero;stroke:none"
       id="path502" /><path
       d="m 141.52,338.387 h 0.477 v 38.156 h -0.477 z"
       style="fill:#000000;fill-opacity:1;fill-rule:nonzero;stroke:none"
       id="path504" /><path
       d="m 141.52,376.543 h 0.477 v 0.48 h -0.477 z"
       style="fill:#000000;fill-opacity:1;fill-rule:nonzero;stroke:none"
       id="path506" /><path
       d="m 141.996,376.543 h 198 v 0.48 h -198 z"
       style="fill:#000000;fill-opacity:1;fill-rule:nonzero;stroke:none"
       id="path508" /><path
       d="m 339.996,338.387 h 0.48 v 38.156 h -0.48 z"
       style="fill:#000000;fill-opacity:1;fill-rule:nonzero;stroke:none"
       id="path510" /><path
       d="m 339.996,376.543 h 0.48 v 0.48 h -0.48 z"
       style="fill:#000000;fill-opacity:1;fill-rule:nonzero;stroke:none"
       id="path512" /><path
       d="M 340.477,376.543 H 425.2 v 0.48 h -84.723 z"
       style="fill:#000000;fill-opacity:1;fill-rule:nonzero;stroke:none"
       id="path514" /><path
       d="m 425.199,338.387 h 0.48 v 38.156 h -0.48 z"
       style="fill:#000000;fill-opacity:1;fill-rule:nonzero;stroke:none"
       id="path516" /><path
       d="m 425.199,376.543 h 0.48 v 0.48 h -0.48 z"
       style="fill:#000000;fill-opacity:1;fill-rule:nonzero;stroke:none"
       id="path518" /><path
       d="m 425.68,376.543 h 112.797 v 0.48 H 425.68 Z"
       style="fill:#000000;fill-opacity:1;fill-rule:nonzero;stroke:none"
       id="path520" /><path
       d="m 538.477,338.387 h 0.48 v 38.156 h -0.48 z"
       style="fill:#000000;fill-opacity:1;fill-rule:nonzero;stroke:none"
       id="path522" /><path
       d="m 538.477,376.543 h 0.48 v 0.48 h -0.48 z"
       style="fill:#000000;fill-opacity:1;fill-rule:nonzero;stroke:none"
       id="path524" /><path
       d="m 538.477,376.543 h 0.48 v 0.48 h -0.48 z"
       style="fill:#000000;fill-opacity:1;fill-rule:nonzero;stroke:none"
       id="path526" /></g></svg>