<?xml version="1.0" encoding="UTF-8" standalone="no"?>
<svg
   xmlns:dc="http://purl.org/dc/elements/1.1/"
   xmlns:cc="http://creativecommons.org/ns#"
   xmlns:rdf="http://www.w3.org/1999/02/22-rdf-syntax-ns#"
   xmlns:svg="http://www.w3.org/2000/svg"
   xmlns="http://www.w3.org/2000/svg"
   viewBox="0 0 672.31891 211.19883"
   height="211.19882"
   width="672.31891"
   xml:space="preserve"
   id="svg2"
   version="1.1"><metadata
     id="metadata8"><rdf:RDF><cc:Work
         rdf:about=""><dc:format>image/svg+xml</dc:format><dc:type
           rdf:resource="http://purl.org/dc/dcmitype/StillImage" /><dc:title></dc:title></cc:Work></rdf:RDF></metadata><defs
     id="defs6"><clipPath
       id="clipPath20"
       clipPathUnits="userSpaceOnUse"><path
         id="path18"
         d="M 0.156,0 H 595 V 841 H 0.156 Z" /></clipPath><clipPath
       id="clipPath280"
       clipPathUnits="userSpaceOnUse"><path
         id="path278"
         d="m 141,478 h 15 v 8.465 h -15 z" /></clipPath><clipPath
       id="clipPath300"
       clipPathUnits="userSpaceOnUse"><path
         id="path298"
         d="m 176,478 h 15 v 8.465 h -15 z" /></clipPath><clipPath
       id="clipPath320"
       clipPathUnits="userSpaceOnUse"><path
         id="path318"
         d="m 219,478 h 14 v 8.465 h -14 z" /></clipPath><clipPath
       id="clipPath344"
       clipPathUnits="userSpaceOnUse"><path
         id="path342"
         d="m 313,478 h 6 v 8.465 h -6 z" /></clipPath><clipPath
       id="clipPath364"
       clipPathUnits="userSpaceOnUse"><path
         id="path362"
         d="m 388,476 h 4 v 10.465 h -4 z" /></clipPath><clipPath
       id="clipPath382"
       clipPathUnits="userSpaceOnUse"><path
         id="path380"
         d="m 442,476 h 4 v 10.465 h -4 z" /></clipPath><clipPath
       id="clipPath400"
       clipPathUnits="userSpaceOnUse"><path
         id="path398"
         d="m 459,476 h 4 v 10.465 h -4 z" /></clipPath><clipPath
       id="clipPath418"
       clipPathUnits="userSpaceOnUse"><path
         id="path416"
         d="m 513,476 h 9 v 10.465 h -9 z" /></clipPath><clipPath
       id="clipPath564"
       clipPathUnits="userSpaceOnUse"><path
         id="path562"
         d="m 63,540 h 3 v 10.785 h -3 z" /></clipPath><clipPath
       id="clipPath576"
       clipPathUnits="userSpaceOnUse"><path
         id="path574"
         d="m 66,540 h 26 v 10.785 H 66 Z" /></clipPath><clipPath
       id="clipPath650"
       clipPathUnits="userSpaceOnUse"><path
         id="path648"
         d="m 63,566 h 3 v 10.465 h -3 z" /></clipPath><clipPath
       id="clipPath662"
       clipPathUnits="userSpaceOnUse"><path
         id="path660"
         d="m 66,566 h 31 v 10.465 H 66 Z" /></clipPath><clipPath
       id="clipPath950"
       clipPathUnits="userSpaceOnUse"><path
         id="path948"
         d="M 97,381 H 303 V 585 H 97 Z" /></clipPath><clipPath
       id="clipPath956"
       clipPathUnits="userSpaceOnUse"><path
         id="path954"
         d="M 110.504,688.602 565.297,233.809 484.773,153.285 29.98,608.078 Z" /></clipPath><clipPath
       id="clipPath968"
       clipPathUnits="userSpaceOnUse"><path
         id="path966"
         d="M 287,223 H 462 V 394 H 287 Z" /></clipPath><clipPath
       id="clipPath974"
       clipPathUnits="userSpaceOnUse"><path
         id="path972"
         d="M 110.504,688.602 565.297,233.809 484.773,153.285 29.98,608.078 Z" /></clipPath><clipPath
       id="clipPath986"
       clipPathUnits="userSpaceOnUse"><path
         id="path984"
         d="M 80,506 H 256 V 681 H 80 Z" /></clipPath><clipPath
       id="clipPath992"
       clipPathUnits="userSpaceOnUse"><path
         id="path990"
         d="M 110.504,688.602 565.297,233.809 484.773,153.285 29.98,608.078 Z" /></clipPath><clipPath
       id="clipPath1004"
       clipPathUnits="userSpaceOnUse"><path
         id="path1002"
         d="m 241,451 h 70 v 69 h -70 z" /></clipPath><clipPath
       id="clipPath1010"
       clipPathUnits="userSpaceOnUse"><path
         id="path1008"
         d="M 110.504,688.602 565.297,233.809 484.773,153.285 29.98,608.078 Z" /></clipPath><clipPath
       id="clipPath1022"
       clipPathUnits="userSpaceOnUse"><path
         id="path1020"
         d="M 298,348 H 415 V 463 H 298 Z" /></clipPath><clipPath
       id="clipPath1028"
       clipPathUnits="userSpaceOnUse"><path
         id="path1026"
         d="M 110.504,688.602 565.297,233.809 484.773,153.285 29.98,608.078 Z" /></clipPath><clipPath
       id="clipPath1040"
       clipPathUnits="userSpaceOnUse"><path
         id="path1038"
         d="M 402,204 H 557 V 360 H 402 Z" /></clipPath><clipPath
       id="clipPath1046"
       clipPathUnits="userSpaceOnUse"><path
         id="path1044"
         d="M 110.504,688.602 565.297,233.809 484.773,153.285 29.98,608.078 Z" /></clipPath></defs><g
     transform="matrix(1.3333333,0,0,1.3333333,-37.010393,-592.61982)"
     id="g10"><g
       id="g12" /><text
       y="444.46487"
       x="27.757795"
       id="text272"
       style="font-variant:normal;font-weight:normal;font-size:11.03999996px;font-family:TimesNewRomanPSMT;-inkscape-font-specification:TimesNewRomanPSMT;writing-mode:lr-tb;fill:#000000;fill-opacity:1;fill-rule:nonzero;stroke:none"><tspan
         y="444.46487"
         id="tspan260"
         x="27.757795"> </tspan><tspan
         y="458.26486"
         id="tspan262"
         x="27.757795"> </tspan><tspan
         id="tspan264"
         y="471.10489"
         x="62.557793 68.795395 73.34388 77.185799 82.220039 87.011398 92.288521 95.401794 100.425 105.945 110.49348">Percentage </tspan><tspan
         id="tspan266"
         y="483.82489"
         x="62.557793 67.834915 71.43396 74.315399 80.552994 88.236839 95.666756 101.90436">of SARF </tspan><tspan
         id="tspan268"
         y="471.10489"
         x="126.15781 132.3954 137.91541 141.75732 145.11348 150.14772">Surfac</tspan><tspan
         id="tspan270"
         y="483.82489"
         x="126.15781 130.70628 133.58772 136.94388">e te</tspan></text>
<g
       id="g274"><g
         clip-path="url(#clipPath280)"
         id="g276"><text
           id="text284"
           style="font-variant:normal;font-weight:normal;font-size:11.03999996px;font-family:TimesNewRomanPSMT;-inkscape-font-specification:TimesNewRomanPSMT;writing-mode:lr-tb;fill:#000000;fill-opacity:1;fill-rule:nonzero;stroke:none"
           transform="translate(141.75842,483.82488)"><tspan
             id="tspan282"
             y="0"
             x="0 8.1475201 13.66752">mp </tspan></text>
</g></g><g
       id="g286"><text
         id="text292"
         style="font-variant:normal;font-weight:normal;font-size:11.03999996px;font-family:TimesNewRomanPSMT;-inkscape-font-specification:TimesNewRomanPSMT;writing-mode:lr-tb;fill:#000000;fill-opacity:1;fill-rule:nonzero;stroke:none"
         transform="translate(168.63779,471.10488)"><tspan
           id="tspan288"
           y="0"
           x="0 6.7343998 10.55424 15.83136 21.35136 24.2328">Trop. </tspan><tspan
           id="tspan290"
           y="12.720001"
           x="0 3.1132801">te</tspan></text>
</g><g
       id="g294"><g
         clip-path="url(#clipPath300)"
         id="g296"><text
           id="text304"
           style="font-variant:normal;font-weight:normal;font-size:11.03999996px;font-family:TimesNewRomanPSMT;-inkscape-font-specification:TimesNewRomanPSMT;writing-mode:lr-tb;fill:#000000;fill-opacity:1;fill-rule:nonzero;stroke:none"
           transform="translate(176.55789,483.82488)"><tspan
             id="tspan302"
             y="0"
             x="0 8.3903999 13.9104">mp </tspan></text>
</g></g><g
       id="g306"><text
         id="text312"
         style="font-variant:normal;font-weight:normal;font-size:11.03999996px;font-family:TimesNewRomanPSMT;-inkscape-font-specification:TimesNewRomanPSMT;writing-mode:lr-tb;fill:#000000;fill-opacity:1;fill-rule:nonzero;stroke:none"
         transform="translate(211.1178,471.10488)"><tspan
           id="tspan308"
           y="0"
           x="0 6.2375998 9.1079998 12.94992 17.984159 20.854561 23.49312">Strat. </tspan><tspan
           id="tspan310"
           y="12.720001"
           x="0 3.1132801">te</tspan></text>
</g><g
       id="g314"><g
         clip-path="url(#clipPath320)"
         id="g316"><text
           id="text324"
           style="font-variant:normal;font-weight:normal;font-size:11.03999996px;font-family:TimesNewRomanPSMT;-inkscape-font-specification:TimesNewRomanPSMT;writing-mode:lr-tb;fill:#000000;fill-opacity:1;fill-rule:nonzero;stroke:none"
           transform="translate(219.03789,483.82488)"><tspan
             id="tspan322"
             y="0"
             x="0 8.3903999">mp</tspan></text>
</g></g><g
       id="g326"><text
         id="text336"
         style="font-variant:normal;font-weight:normal;font-size:11.03999996px;font-family:TimesNewRomanPSMT;-inkscape-font-specification:TimesNewRomanPSMT;writing-mode:lr-tb;fill:#000000;fill-opacity:1;fill-rule:nonzero;stroke:none"
         transform="translate(253.59779,471.10488)"><tspan
           id="tspan328"
           y="0"
           x="0 6.2375998 11.7576 15.59952 18.955681 23.98992 28.781281 33.329762">Surface </tspan><tspan
           id="tspan330"
           y="12.720001"
           x="0 5.0342398 7.9046402 13.42464 18.216 23.736 29.013121">albedo </tspan><tspan
           id="tspan332"
           y="0"
           x="49.68 59.99136 65.025597 68.127838 72.687363 76.518242">Water </tspan><tspan
           id="tspan334"
           y="12.720001"
           x="49.68 54.957119">va</tspan></text>
</g><g
       id="g338"><g
         clip-path="url(#clipPath344)"
         id="g340"><text
           id="text348"
           style="font-variant:normal;font-weight:normal;font-size:11.03999996px;font-family:TimesNewRomanPSMT;-inkscape-font-specification:TimesNewRomanPSMT;writing-mode:lr-tb;fill:#000000;fill-opacity:1;fill-rule:nonzero;stroke:none"
           transform="translate(313.59467,483.82488)"><tspan
             id="tspan346"
             y="0"
             x="0">p</tspan></text>
</g></g><g
       id="g350"><text
         id="text356"
         style="font-variant:normal;font-weight:normal;font-size:11.03999996px;font-family:TimesNewRomanPSMT;-inkscape-font-specification:TimesNewRomanPSMT;writing-mode:lr-tb;fill:#000000;fill-opacity:1;fill-rule:nonzero;stroke:none"
         transform="translate(319.11468,483.82488)"><tspan
           id="tspan352"
           y="0"
           x="0 5.2771201 10.79712 14.63904">our </tspan><tspan
           id="tspan354"
           y="-12.720001"
           x="26.64312 34.07304 36.943439 42.220558 47.98344 53.260559 57.82008 69.102959 75.837357 79.646156 84.923279 90.443275 95.720398 100.04808 105.79992 111.31992 115.87944 119.9532 124.7556">Clouds Troposphere </tspan></text>
</g><g
       id="g358"><g
         clip-path="url(#clipPath364)"
         id="g360"><text
           id="text368"
           style="font-variant:normal;font-weight:normal;font-size:11.03999996px;font-family:TimesNewRomanPSMT;-inkscape-font-specification:TimesNewRomanPSMT;writing-mode:lr-tb;fill:#000000;fill-opacity:1;fill-rule:nonzero;stroke:none"
           transform="translate(388.23779,483.82488)"><tspan
             id="tspan366"
             y="0"
             x="0">(</tspan></text>
</g></g><g
       id="g370"><text
         id="text374"
         style="font-variant:normal;font-weight:normal;font-size:11.03999996px;font-family:TimesNewRomanPSMT;-inkscape-font-specification:TimesNewRomanPSMT;writing-mode:lr-tb;fill:#000000;fill-opacity:1;fill-rule:nonzero;stroke:none"
         transform="translate(391.83794,483.82488)"><tspan
           id="tspan372"
           y="0"
           x="0 3.1132801 8.3903999 13.18176 16.0632 18.944639 23.239201 28.759199 32.623199 36.22224 41.256481 46.04784">inc. surface</tspan></text>
</g><g
       id="g376"><g
         clip-path="url(#clipPath382)"
         id="g378"><text
           id="text386"
           style="font-variant:normal;font-weight:normal;font-size:11.03999996px;font-family:TimesNewRomanPSMT;-inkscape-font-specification:TimesNewRomanPSMT;writing-mode:lr-tb;fill:#000000;fill-opacity:1;fill-rule:nonzero;stroke:none"
           transform="translate(442.48504,483.82488)"><tspan
             id="tspan384"
             y="0"
             x="0">)</tspan></text>
</g></g><g
       id="g388"><text
         id="text392"
         style="font-variant:normal;font-weight:normal;font-size:11.03999996px;font-family:TimesNewRomanPSMT;-inkscape-font-specification:TimesNewRomanPSMT;writing-mode:lr-tb;fill:#000000;fill-opacity:1;fill-rule:nonzero;stroke:none"
         transform="translate(459.0378,471.10488)"><tspan
           id="tspan390"
           y="0"
           x="0 6.7343998 10.55424 15.83136 21.35136 26.628481 30.92304 36.69696 42.216961 46.776482 50.850239 55.652641">Troposphere </tspan></text>
</g><g
       id="g394"><g
         clip-path="url(#clipPath400)"
         id="g396"><text
           id="text404"
           style="font-variant:normal;font-weight:normal;font-size:11.03999996px;font-family:TimesNewRomanPSMT;-inkscape-font-specification:TimesNewRomanPSMT;writing-mode:lr-tb;fill:#000000;fill-opacity:1;fill-rule:nonzero;stroke:none"
           transform="translate(459.03779,483.82488)"><tspan
             id="tspan402"
             y="0"
             x="0">(</tspan></text>
</g></g><g
       id="g406"><text
         id="text410"
         style="font-variant:normal;font-weight:normal;font-size:11.03999996px;font-family:TimesNewRomanPSMT;-inkscape-font-specification:TimesNewRomanPSMT;writing-mode:lr-tb;fill:#000000;fill-opacity:1;fill-rule:nonzero;stroke:none"
         transform="translate(462.87751,483.82488)"><tspan
           id="tspan408"
           y="0"
           x="0 4.54848 10.06848 15.10272 17.97312 20.854561 23.736 28.03056 33.55056 37.414558 40.770721 45.804958">excl. surfac</tspan></text>
</g><g
       id="g412"><g
         clip-path="url(#clipPath418)"
         id="g414"><text
           id="text422"
           style="font-variant:normal;font-weight:normal;font-size:11.03999996px;font-family:TimesNewRomanPSMT;-inkscape-font-specification:TimesNewRomanPSMT;writing-mode:lr-tb;fill:#000000;fill-opacity:1;fill-rule:nonzero;stroke:none"
           transform="translate(513.51909,483.82488)"><tspan
             id="tspan420"
             y="0"
             x="0 4.54848 8.3903999">e) </tspan></text>
</g></g><g
       id="g424"><path
         id="path426"
         style="fill:#000000;fill-opacity:1;fill-rule:nonzero;stroke:none"
         d="m 56.797,460.785 h 0.48 v 0.48 h -0.48 z" /><path
         id="path428"
         style="fill:#000000;fill-opacity:1;fill-rule:nonzero;stroke:none"
         d="m 56.797,460.785 h 0.48 v 0.48 h -0.48 z" /><path
         id="path430"
         style="fill:#000000;fill-opacity:1;fill-rule:nonzero;stroke:none"
         d="m 57.277,460.785 h 63.121 v 0.48 H 57.277 Z" /><path
         id="path432"
         style="fill:#000000;fill-opacity:1;fill-rule:nonzero;stroke:none"
         d="m 120.398,460.785 h 0.48 v 0.48 h -0.48 z" /><path
         id="path434"
         style="fill:#000000;fill-opacity:1;fill-rule:nonzero;stroke:none"
         d="m 120.879,460.785 h 42 v 0.48 h -42 z" /><path
         id="path436"
         style="fill:#000000;fill-opacity:1;fill-rule:nonzero;stroke:none"
         d="m 162.879,460.785 h 0.48 v 0.48 h -0.48 z" /><path
         id="path438"
         style="fill:#000000;fill-opacity:1;fill-rule:nonzero;stroke:none"
         d="m 163.359,460.785 h 42 v 0.48 h -42 z" /><path
         id="path440"
         style="fill:#000000;fill-opacity:1;fill-rule:nonzero;stroke:none"
         d="m 205.359,460.785 h 0.477 v 0.48 h -0.477 z" /><path
         id="path442"
         style="fill:#000000;fill-opacity:1;fill-rule:nonzero;stroke:none"
         d="m 205.836,460.785 h 42.242 v 0.48 h -42.242 z" /><path
         id="path444"
         style="fill:#000000;fill-opacity:1;fill-rule:nonzero;stroke:none"
         d="m 248.078,460.785 h 0.48 v 0.48 h -0.48 z" /><path
         id="path446"
         style="fill:#000000;fill-opacity:1;fill-rule:nonzero;stroke:none"
         d="m 248.559,460.785 h 48.961 v 0.48 h -48.961 z" /><path
         id="path448"
         style="fill:#000000;fill-opacity:1;fill-rule:nonzero;stroke:none"
         d="m 297.52,460.785 h 0.477 v 0.48 h -0.477 z" /><path
         id="path450"
         style="fill:#000000;fill-opacity:1;fill-rule:nonzero;stroke:none"
         d="m 297.996,460.785 h 42 v 0.48 h -42 z" /><path
         id="path452"
         style="fill:#000000;fill-opacity:1;fill-rule:nonzero;stroke:none"
         d="m 339.996,460.785 h 0.48 v 0.48 h -0.48 z" /><path
         id="path454"
         style="fill:#000000;fill-opacity:1;fill-rule:nonzero;stroke:none"
         d="m 340.477,460.785 h 42.242 v 0.48 h -42.242 z" /><path
         id="path456"
         style="fill:#000000;fill-opacity:1;fill-rule:nonzero;stroke:none"
         d="m 382.719,460.785 h 0.48 v 0.48 h -0.48 z" /><path
         id="path458"
         style="fill:#000000;fill-opacity:1;fill-rule:nonzero;stroke:none"
         d="m 383.199,460.785 h 70.32 v 0.48 h -70.32 z" /><path
         id="path460"
         style="fill:#000000;fill-opacity:1;fill-rule:nonzero;stroke:none"
         d="M 453.52,460.785 H 454 v 0.48 h -0.48 z" /><path
         id="path462"
         style="fill:#000000;fill-opacity:1;fill-rule:nonzero;stroke:none"
         d="m 453.996,460.785 h 77.523 v 0.48 h -77.523 z" /><path
         id="path464"
         style="fill:#000000;fill-opacity:1;fill-rule:nonzero;stroke:none"
         d="m 531.52,460.785 h 0.477 v 0.48 h -0.477 z" /><path
         id="path466"
         style="fill:#000000;fill-opacity:1;fill-rule:nonzero;stroke:none"
         d="m 531.52,460.785 h 0.477 v 0.48 h -0.477 z" /><path
         id="path468"
         style="fill:#000000;fill-opacity:1;fill-rule:nonzero;stroke:none"
         d="m 56.797,461.266 h 0.48 v 25.199 h -0.48 z" /><path
         id="path470"
         style="fill:#000000;fill-opacity:1;fill-rule:nonzero;stroke:none"
         d="m 120.398,461.266 h 0.48 v 25.199 h -0.48 z" /><path
         id="path472"
         style="fill:#000000;fill-opacity:1;fill-rule:nonzero;stroke:none"
         d="m 162.879,461.266 h 0.48 v 25.199 h -0.48 z" /><path
         id="path474"
         style="fill:#000000;fill-opacity:1;fill-rule:nonzero;stroke:none"
         d="m 205.359,461.266 h 0.477 v 25.199 h -0.477 z" /><path
         id="path476"
         style="fill:#000000;fill-opacity:1;fill-rule:nonzero;stroke:none"
         d="m 248.078,461.266 h 0.48 v 25.199 h -0.48 z" /><path
         id="path478"
         style="fill:#000000;fill-opacity:1;fill-rule:nonzero;stroke:none"
         d="m 297.52,461.266 h 0.477 v 25.199 h -0.477 z" /><path
         id="path480"
         style="fill:#000000;fill-opacity:1;fill-rule:nonzero;stroke:none"
         d="m 339.996,461.266 h 0.48 v 25.199 h -0.48 z" /><path
         id="path482"
         style="fill:#000000;fill-opacity:1;fill-rule:nonzero;stroke:none"
         d="m 382.719,461.266 h 0.48 v 25.199 h -0.48 z" /><path
         id="path484"
         style="fill:#000000;fill-opacity:1;fill-rule:nonzero;stroke:none"
         d="M 453.52,461.266 H 454 v 25.199 h -0.48 z" /><path
         id="path486"
         style="fill:#000000;fill-opacity:1;fill-rule:nonzero;stroke:none"
         d="m 531.52,461.266 h 0.477 v 25.199 h -0.477 z" /><text
         id="text494"
         style="font-variant:normal;font-weight:normal;font-size:11.03999996px;font-family:TimesNewRomanPSMT;-inkscape-font-specification:TimesNewRomanPSMT;writing-mode:lr-tb;fill:#000000;fill-opacity:1;fill-rule:nonzero;stroke:none"
         transform="translate(62.557795,496.78488)"><tspan
           id="tspan488"
           y="0"
           x="0 7.9156799 10.78608 15.82032 18.69072 21.815041 26.36352 29.476801 32.358238 37.381439 40.262878 43.144321">Vial et al. </tspan><tspan
           id="tspan490"
           y="12.720001"
           x="0 3.59904 9.1190395 14.63904 20.15904 25.679041 29.27808">(2013) </tspan><tspan
           id="tspan492"
           y="0"
           x="87.840004 93.360001 98.880005 104.4 113.51904 203.0424 208.56241 217.68144 249.12001 254.64 263.75903 288.96338 294.48337 300.00336 309.12241 345.59857 351.11856 356.63858 365.7576">–20% 2% 6% 11% –1% </tspan></text>
<path
         id="path496"
         style="fill:#000000;fill-opacity:1;fill-rule:nonzero;stroke:none"
         d="m 56.797,486.465 h 0.48 v 0.48 h -0.48 z" /><path
         id="path498"
         style="fill:#000000;fill-opacity:1;fill-rule:nonzero;stroke:none"
         d="m 57.277,486.465 h 63.121 v 0.48 H 57.277 Z" /><path
         id="path500"
         style="fill:#000000;fill-opacity:1;fill-rule:nonzero;stroke:none"
         d="m 120.398,486.465 h 0.48 v 0.48 h -0.48 z" /><path
         id="path502"
         style="fill:#000000;fill-opacity:1;fill-rule:nonzero;stroke:none"
         d="m 120.879,486.465 h 42 v 0.48 h -42 z" /><path
         id="path504"
         style="fill:#000000;fill-opacity:1;fill-rule:nonzero;stroke:none"
         d="m 162.879,486.465 h 0.48 v 0.48 h -0.48 z" /><path
         id="path506"
         style="fill:#000000;fill-opacity:1;fill-rule:nonzero;stroke:none"
         d="m 163.359,486.465 h 42 v 0.48 h -42 z" /><path
         id="path508"
         style="fill:#000000;fill-opacity:1;fill-rule:nonzero;stroke:none"
         d="m 205.359,486.465 h 0.477 v 0.48 h -0.477 z" /><path
         id="path510"
         style="fill:#000000;fill-opacity:1;fill-rule:nonzero;stroke:none"
         d="m 205.836,486.465 h 42.242 v 0.48 h -42.242 z" /><path
         id="path512"
         style="fill:#000000;fill-opacity:1;fill-rule:nonzero;stroke:none"
         d="m 248.078,486.465 h 0.48 v 0.48 h -0.48 z" /><path
         id="path514"
         style="fill:#000000;fill-opacity:1;fill-rule:nonzero;stroke:none"
         d="m 248.559,486.465 h 48.961 v 0.48 h -48.961 z" /><path
         id="path516"
         style="fill:#000000;fill-opacity:1;fill-rule:nonzero;stroke:none"
         d="m 297.52,486.465 h 0.477 v 0.48 h -0.477 z" /><path
         id="path518"
         style="fill:#000000;fill-opacity:1;fill-rule:nonzero;stroke:none"
         d="m 297.996,486.465 h 42 v 0.48 h -42 z" /><path
         id="path520"
         style="fill:#000000;fill-opacity:1;fill-rule:nonzero;stroke:none"
         d="m 339.996,486.465 h 0.48 v 0.48 h -0.48 z" /><path
         id="path522"
         style="fill:#000000;fill-opacity:1;fill-rule:nonzero;stroke:none"
         d="m 340.477,486.465 h 42.242 v 0.48 h -42.242 z" /><path
         id="path524"
         style="fill:#000000;fill-opacity:1;fill-rule:nonzero;stroke:none"
         d="m 382.719,486.465 h 0.48 v 0.48 h -0.48 z" /><path
         id="path526"
         style="fill:#000000;fill-opacity:1;fill-rule:nonzero;stroke:none"
         d="m 383.199,486.465 h 70.32 v 0.48 h -70.32 z" /><path
         id="path528"
         style="fill:#000000;fill-opacity:1;fill-rule:nonzero;stroke:none"
         d="M 453.52,486.465 H 454 v 0.48 h -0.48 z" /><path
         id="path530"
         style="fill:#000000;fill-opacity:1;fill-rule:nonzero;stroke:none"
         d="m 453.996,486.465 h 77.523 v 0.48 h -77.523 z" /><path
         id="path532"
         style="fill:#000000;fill-opacity:1;fill-rule:nonzero;stroke:none"
         d="m 531.52,486.465 h 0.477 v 0.48 h -0.477 z" /><path
         id="path534"
         style="fill:#000000;fill-opacity:1;fill-rule:nonzero;stroke:none"
         d="m 56.797,486.945 h 0.48 v 25.441 h -0.48 z" /><path
         id="path536"
         style="fill:#000000;fill-opacity:1;fill-rule:nonzero;stroke:none"
         d="m 120.398,486.945 h 0.48 v 25.441 h -0.48 z" /><path
         id="path538"
         style="fill:#000000;fill-opacity:1;fill-rule:nonzero;stroke:none"
         d="m 205.359,486.945 h 0.477 v 25.441 h -0.477 z" /><path
         id="path540"
         style="fill:#000000;fill-opacity:1;fill-rule:nonzero;stroke:none"
         d="m 248.078,486.945 h 0.48 v 25.441 h -0.48 z" /><path
         id="path542"
         style="fill:#000000;fill-opacity:1;fill-rule:nonzero;stroke:none"
         d="m 297.52,486.945 h 0.477 v 25.441 h -0.477 z" /><path
         id="path544"
         style="fill:#000000;fill-opacity:1;fill-rule:nonzero;stroke:none"
         d="m 339.996,486.945 h 0.48 v 25.441 h -0.48 z" /><path
         id="path546"
         style="fill:#000000;fill-opacity:1;fill-rule:nonzero;stroke:none"
         d="m 382.719,486.945 h 0.48 v 25.441 h -0.48 z" /><path
         id="path548"
         style="fill:#000000;fill-opacity:1;fill-rule:nonzero;stroke:none"
         d="M 453.52,486.945 H 454 v 25.441 h -0.48 z" /><path
         id="path550"
         style="fill:#000000;fill-opacity:1;fill-rule:nonzero;stroke:none"
         d="m 531.52,486.945 h 0.477 v 25.441 h -0.477 z" /><text
         id="text556"
         style="font-variant:normal;font-weight:normal;font-size:11.03999996px;font-family:TimesNewRomanPSMT;-inkscape-font-specification:TimesNewRomanPSMT;writing-mode:lr-tb;fill:#000000;fill-opacity:1;fill-rule:nonzero;stroke:none"
         transform="translate(62.557795,522.70488)"><tspan
           id="tspan552"
           y="0"
           x="0 6.7343998 11.98944 17.02368 22.54368 27.820801 30.70224 35.725441 41.245441 46.52256">Zhang and </tspan><tspan
           id="tspan554"
           y="12.720001"
           x="0 7.9156799 13.43568 18.469919 23.74704 29.02416">Huang </tspan></text>
</g><g
       id="g558"><g
         clip-path="url(#clipPath564)"
         id="g560"><text
           id="text568"
           style="font-variant:normal;font-weight:normal;font-size:11.03999996px;font-family:TimesNewRomanPSMT;-inkscape-font-specification:TimesNewRomanPSMT;writing-mode:lr-tb;fill:#000000;fill-opacity:1;fill-rule:nonzero;stroke:none"
           transform="translate(62.557795,547.90488)"><tspan
             id="tspan566"
             y="0"
             x="0">(</tspan></text>
</g></g><g
       id="g570"><g
         clip-path="url(#clipPath576)"
         id="g572"><text
           id="text580"
           style="font-variant:normal;font-weight:normal;font-size:11.03999996px;font-family:TimesNewRomanPSMT;-inkscape-font-specification:TimesNewRomanPSMT;writing-mode:lr-tb;fill:#000000;fill-opacity:1;fill-rule:nonzero;stroke:none"
           transform="translate(66.157939,547.90488)"><tspan
             id="tspan578"
             y="0"
             x="0 5.52 11.04 16.559999 22.08 25.679041">2014) </tspan></text>
</g></g><g
       id="g582"><text
         id="text586"
         style="font-variant:normal;font-weight:normal;font-size:11.03999996px;font-family:TimesNewRomanPSMT;-inkscape-font-specification:TimesNewRomanPSMT;writing-mode:lr-tb;fill:#000000;fill-opacity:1;fill-rule:nonzero;stroke:none"
         transform="translate(150.39779,522.70488)"><tspan
           id="tspan584"
           y="0"
           x="0 5.52 11.04 16.559999 25.679041 66.48288 72.002876 77.522881 86.641922 161.28336 166.80336 175.92239 201.12 206.64 212.16 221.27904 257.75519 263.27521 268.7952 277.92526">–23% 26% 6% 16% –1% </tspan></text>
<path
         id="path588"
         style="fill:#000000;fill-opacity:1;fill-rule:nonzero;stroke:none"
         d="m 56.797,512.387 h 0.48 v 0.477 h -0.48 z" /><path
         id="path590"
         style="fill:#000000;fill-opacity:1;fill-rule:nonzero;stroke:none"
         d="m 57.277,512.387 h 63.121 v 0.477 H 57.277 Z" /><path
         id="path592"
         style="fill:#000000;fill-opacity:1;fill-rule:nonzero;stroke:none"
         d="m 120.398,512.387 h 0.48 v 0.477 h -0.48 z" /><path
         id="path594"
         style="fill:#000000;fill-opacity:1;fill-rule:nonzero;stroke:none"
         d="m 120.879,512.387 h 84.48 v 0.477 h -84.48 z" /><path
         id="path596"
         style="fill:#000000;fill-opacity:1;fill-rule:nonzero;stroke:none"
         d="m 205.359,512.387 h 0.477 v 0.477 h -0.477 z" /><path
         id="path598"
         style="fill:#000000;fill-opacity:1;fill-rule:nonzero;stroke:none"
         d="m 205.836,512.387 h 42.242 v 0.477 h -42.242 z" /><path
         id="path600"
         style="fill:#000000;fill-opacity:1;fill-rule:nonzero;stroke:none"
         d="m 248.078,512.387 h 0.48 v 0.477 h -0.48 z" /><path
         id="path602"
         style="fill:#000000;fill-opacity:1;fill-rule:nonzero;stroke:none"
         d="m 248.559,512.387 h 48.961 v 0.477 h -48.961 z" /><path
         id="path604"
         style="fill:#000000;fill-opacity:1;fill-rule:nonzero;stroke:none"
         d="m 297.52,512.387 h 0.477 v 0.477 h -0.477 z" /><path
         id="path606"
         style="fill:#000000;fill-opacity:1;fill-rule:nonzero;stroke:none"
         d="m 297.996,512.387 h 42 v 0.477 h -42 z" /><path
         id="path608"
         style="fill:#000000;fill-opacity:1;fill-rule:nonzero;stroke:none"
         d="m 339.996,512.387 h 0.48 v 0.477 h -0.48 z" /><path
         id="path610"
         style="fill:#000000;fill-opacity:1;fill-rule:nonzero;stroke:none"
         d="m 340.477,512.387 h 42.242 v 0.477 h -42.242 z" /><path
         id="path612"
         style="fill:#000000;fill-opacity:1;fill-rule:nonzero;stroke:none"
         d="m 382.719,512.387 h 0.48 v 0.477 h -0.48 z" /><path
         id="path614"
         style="fill:#000000;fill-opacity:1;fill-rule:nonzero;stroke:none"
         d="m 383.199,512.387 h 70.32 v 0.477 h -70.32 z" /><path
         id="path616"
         style="fill:#000000;fill-opacity:1;fill-rule:nonzero;stroke:none"
         d="M 453.52,512.387 H 454 v 0.477 h -0.48 z" /><path
         id="path618"
         style="fill:#000000;fill-opacity:1;fill-rule:nonzero;stroke:none"
         d="m 453.996,512.387 h 77.523 v 0.477 h -77.523 z" /><path
         id="path620"
         style="fill:#000000;fill-opacity:1;fill-rule:nonzero;stroke:none"
         d="m 531.52,512.387 h 0.477 v 0.477 h -0.477 z" /><path
         id="path622"
         style="fill:#000000;fill-opacity:1;fill-rule:nonzero;stroke:none"
         d="m 56.797,512.863 h 0.48 v 37.922 h -0.48 z" /><path
         id="path624"
         style="fill:#000000;fill-opacity:1;fill-rule:nonzero;stroke:none"
         d="m 120.398,512.863 h 0.48 v 37.922 h -0.48 z" /><path
         id="path626"
         style="fill:#000000;fill-opacity:1;fill-rule:nonzero;stroke:none"
         d="m 205.359,512.863 h 0.477 v 37.922 h -0.477 z" /><path
         id="path628"
         style="fill:#000000;fill-opacity:1;fill-rule:nonzero;stroke:none"
         d="m 248.078,512.863 h 0.48 v 37.922 h -0.48 z" /><path
         id="path630"
         style="fill:#000000;fill-opacity:1;fill-rule:nonzero;stroke:none"
         d="m 297.52,512.863 h 0.477 v 37.922 h -0.477 z" /><path
         id="path632"
         style="fill:#000000;fill-opacity:1;fill-rule:nonzero;stroke:none"
         d="m 339.996,512.863 h 0.48 v 37.922 h -0.48 z" /><path
         id="path634"
         style="fill:#000000;fill-opacity:1;fill-rule:nonzero;stroke:none"
         d="m 382.719,512.863 h 0.48 v 37.922 h -0.48 z" /><path
         id="path636"
         style="fill:#000000;fill-opacity:1;fill-rule:nonzero;stroke:none"
         d="M 453.52,512.863 H 454 v 37.922 h -0.48 z" /><path
         id="path638"
         style="fill:#000000;fill-opacity:1;fill-rule:nonzero;stroke:none"
         d="m 531.52,512.863 h 0.477 v 37.922 h -0.477 z" /><text
         id="text642"
         style="font-variant:normal;font-weight:normal;font-size:11.03999996px;font-family:TimesNewRomanPSMT;-inkscape-font-specification:TimesNewRomanPSMT;writing-mode:lr-tb;fill:#000000;fill-opacity:1;fill-rule:nonzero;stroke:none"
         transform="translate(62.557795,561.10488)"><tspan
           id="tspan640"
           y="0"
           x="0 6.2375998 14.628 17.4984 20.854561 26.13168 29.013121 33.572639 36.674881 39.55632 44.590561 47.46096 50.3424">Smith et al. </tspan></text>
</g><g
       id="g644"><g
         clip-path="url(#clipPath650)"
         id="g646"><text
           id="text654"
           style="font-variant:normal;font-weight:normal;font-size:11.03999996px;font-family:TimesNewRomanPSMT;-inkscape-font-specification:TimesNewRomanPSMT;writing-mode:lr-tb;fill:#000000;fill-opacity:1;fill-rule:nonzero;stroke:none"
           transform="translate(62.557795,573.82488)"><tspan
             id="tspan652"
             y="0"
             x="0">(</tspan></text>
</g></g><g
       id="g656"><g
         clip-path="url(#clipPath662)"
         id="g658"><text
           id="text666"
           style="font-variant:normal;font-weight:normal;font-size:11.03999996px;font-family:TimesNewRomanPSMT;-inkscape-font-specification:TimesNewRomanPSMT;writing-mode:lr-tb;fill:#000000;fill-opacity:1;fill-rule:nonzero;stroke:none"
           transform="translate(66.157939,573.82488)"><tspan
             id="tspan664"
             y="0"
             x="0 5.52 11.04 16.559999 22.08 27.6">2018b)</tspan></text>
</g></g><text
       y="561.10486"
       x="131.9178"
       style="font-variant:normal;font-weight:normal;font-size:11.03999996px;font-family:TimesNewRomanPSMT;-inkscape-font-specification:TimesNewRomanPSMT;writing-mode:lr-tb;fill:#000000;fill-opacity:1;fill-rule:nonzero;stroke:none"
       id="text672"><tspan
         x="131.9178 137.43781 142.95779 152.07684 171.51828 177.03828 182.55827 188.07828 197.19731 216.88164 222.40164 227.92163 237.04068 265.60117 271.12115 280.2402 311.6821 317.20212 326.32117 351.51443 357.03442 362.55444 371.67346 408.15778 413.6778 419.19778 428.31683 482.08163 488.29715 493.81714 502.94724"
         y="561.10486"
         id="tspan670">–6% –16% 30% 3% 6% 12% –1% +5% </tspan></text>
<path
       d="m 56.797,550.785 h 0.48 v 0.48 h -0.48 z"
       style="fill:#000000;fill-opacity:1;fill-rule:nonzero;stroke:none"
       id="path674" /><path
       d="m 57.277,550.785 h 63.121 v 0.48 H 57.277 Z"
       style="fill:#000000;fill-opacity:1;fill-rule:nonzero;stroke:none"
       id="path676" /><path
       d="m 120.398,550.785 h 0.48 v 0.48 h -0.48 z"
       style="fill:#000000;fill-opacity:1;fill-rule:nonzero;stroke:none"
       id="path678" /><path
       d="m 120.879,550.785 h 42 v 0.48 h -42 z"
       style="fill:#000000;fill-opacity:1;fill-rule:nonzero;stroke:none"
       id="path680" /><path
       d="m 162.879,550.785 h 0.48 v 0.48 h -0.48 z"
       style="fill:#000000;fill-opacity:1;fill-rule:nonzero;stroke:none"
       id="path682" /><path
       d="m 163.359,550.785 h 42 v 0.48 h -42 z"
       style="fill:#000000;fill-opacity:1;fill-rule:nonzero;stroke:none"
       id="path684" /><path
       d="m 205.359,550.785 h 0.477 v 0.48 h -0.477 z"
       style="fill:#000000;fill-opacity:1;fill-rule:nonzero;stroke:none"
       id="path686" /><path
       d="m 205.836,550.785 h 42.242 v 0.48 h -42.242 z"
       style="fill:#000000;fill-opacity:1;fill-rule:nonzero;stroke:none"
       id="path688" /><path
       d="m 248.078,550.785 h 0.48 v 0.48 h -0.48 z"
       style="fill:#000000;fill-opacity:1;fill-rule:nonzero;stroke:none"
       id="path690" /><path
       d="m 248.559,550.785 h 48.961 v 0.48 h -48.961 z"
       style="fill:#000000;fill-opacity:1;fill-rule:nonzero;stroke:none"
       id="path692" /><path
       d="m 297.52,550.785 h 0.477 v 0.48 h -0.477 z"
       style="fill:#000000;fill-opacity:1;fill-rule:nonzero;stroke:none"
       id="path694" /><path
       d="m 297.996,550.785 h 42 v 0.48 h -42 z"
       style="fill:#000000;fill-opacity:1;fill-rule:nonzero;stroke:none"
       id="path696" /><path
       d="m 339.996,550.785 h 0.48 v 0.48 h -0.48 z"
       style="fill:#000000;fill-opacity:1;fill-rule:nonzero;stroke:none"
       id="path698" /><path
       d="m 340.477,550.785 h 42.242 v 0.48 h -42.242 z"
       style="fill:#000000;fill-opacity:1;fill-rule:nonzero;stroke:none"
       id="path700" /><path
       d="m 382.719,550.785 h 0.48 v 0.48 h -0.48 z"
       style="fill:#000000;fill-opacity:1;fill-rule:nonzero;stroke:none"
       id="path702" /><path
       d="m 383.199,550.785 h 70.32 v 0.48 h -70.32 z"
       style="fill:#000000;fill-opacity:1;fill-rule:nonzero;stroke:none"
       id="path704" /><path
       d="M 453.52,550.785 H 454 v 0.48 h -0.48 z"
       style="fill:#000000;fill-opacity:1;fill-rule:nonzero;stroke:none"
       id="path706" /><path
       d="m 453.996,550.785 h 77.523 v 0.48 h -77.523 z"
       style="fill:#000000;fill-opacity:1;fill-rule:nonzero;stroke:none"
       id="path708" /><path
       d="m 531.52,550.785 h 0.477 v 0.48 h -0.477 z"
       style="fill:#000000;fill-opacity:1;fill-rule:nonzero;stroke:none"
       id="path710" /><path
       d="m 56.797,551.266 h 0.48 v 25.199 h -0.48 z"
       style="fill:#000000;fill-opacity:1;fill-rule:nonzero;stroke:none"
       id="path712" /><path
       d="m 120.398,551.266 h 0.48 v 25.199 h -0.48 z"
       style="fill:#000000;fill-opacity:1;fill-rule:nonzero;stroke:none"
       id="path714" /><path
       d="m 162.879,551.266 h 0.48 v 25.199 h -0.48 z"
       style="fill:#000000;fill-opacity:1;fill-rule:nonzero;stroke:none"
       id="path716" /><path
       d="m 205.359,551.266 h 0.477 v 25.199 h -0.477 z"
       style="fill:#000000;fill-opacity:1;fill-rule:nonzero;stroke:none"
       id="path718" /><path
       d="m 248.078,551.266 h 0.48 v 25.199 h -0.48 z"
       style="fill:#000000;fill-opacity:1;fill-rule:nonzero;stroke:none"
       id="path720" /><path
       d="m 297.52,551.266 h 0.477 v 25.199 h -0.477 z"
       style="fill:#000000;fill-opacity:1;fill-rule:nonzero;stroke:none"
       id="path722" /><path
       d="m 339.996,551.266 h 0.48 v 25.199 h -0.48 z"
       style="fill:#000000;fill-opacity:1;fill-rule:nonzero;stroke:none"
       id="path724" /><path
       d="m 382.719,551.266 h 0.48 v 25.199 h -0.48 z"
       style="fill:#000000;fill-opacity:1;fill-rule:nonzero;stroke:none"
       id="path726" /><path
       d="M 453.52,551.266 H 454 v 25.199 h -0.48 z"
       style="fill:#000000;fill-opacity:1;fill-rule:nonzero;stroke:none"
       id="path728" /><path
       d="m 531.52,551.266 h 0.477 v 25.199 h -0.477 z"
       style="fill:#000000;fill-opacity:1;fill-rule:nonzero;stroke:none"
       id="path730" /><text
       y="587.0249"
       x="62.557796"
       style="font-variant:normal;font-weight:normal;font-size:11.03999996px;font-family:TimesNewRomanPSMT;-inkscape-font-specification:TimesNewRomanPSMT;writing-mode:lr-tb;fill:#000000;fill-opacity:1;fill-rule:nonzero;stroke:none"
       id="text738"><tspan
         x="62.557796 68.795395 77.185799 80.056198 83.412354 88.689476 91.570915 96.130432 99.232674 102.11411 107.14835 110.01875 112.90019"
         y="587.0249"
         id="tspan732">Smith et al. </tspan><tspan
         x="62.557796 66.156837 71.676834 77.196838 82.716835 88.236839 93.756836 97.355873"
         y="599.50488"
         id="tspan734">(2020b) </tspan><tspan
         x="131.9178 137.43781 142.95779 152.07684 171.51828 177.03827 182.55827 188.07828 197.19733 216.88164 222.40164 227.92165 237.04068 265.60117 271.12115 280.2402 311.68213 317.20212 326.32117 351.51443 357.03445 362.55444 371.67349 407.6778 413.89331 419.41333 428.5434 482.06534 488.28085 493.80084 502.93094"
         y="587.0249"
         id="tspan736">–6% –15% 35% 3% 6% 15% +3% +9% </tspan></text>
<path
       d="m 56.797,576.465 h 0.48 v 0.48 h -0.48 z"
       style="fill:#000000;fill-opacity:1;fill-rule:nonzero;stroke:none"
       id="path740" /><path
       d="m 57.277,576.465 h 63.121 v 0.48 H 57.277 Z"
       style="fill:#000000;fill-opacity:1;fill-rule:nonzero;stroke:none"
       id="path742" /><path
       d="m 120.398,576.465 h 0.48 v 0.48 h -0.48 z"
       style="fill:#000000;fill-opacity:1;fill-rule:nonzero;stroke:none"
       id="path744" /><path
       d="m 120.879,576.465 h 42 v 0.48 h -42 z"
       style="fill:#000000;fill-opacity:1;fill-rule:nonzero;stroke:none"
       id="path746" /><path
       d="m 162.879,576.465 h 0.48 v 0.48 h -0.48 z"
       style="fill:#000000;fill-opacity:1;fill-rule:nonzero;stroke:none"
       id="path748" /><path
       d="m 163.359,576.465 h 42 v 0.48 h -42 z"
       style="fill:#000000;fill-opacity:1;fill-rule:nonzero;stroke:none"
       id="path750" /><path
       d="m 205.359,576.465 h 0.477 v 0.48 h -0.477 z"
       style="fill:#000000;fill-opacity:1;fill-rule:nonzero;stroke:none"
       id="path752" /><path
       d="m 205.836,576.465 h 42.242 v 0.48 h -42.242 z"
       style="fill:#000000;fill-opacity:1;fill-rule:nonzero;stroke:none"
       id="path754" /><path
       d="m 248.078,576.465 h 0.48 v 0.48 h -0.48 z"
       style="fill:#000000;fill-opacity:1;fill-rule:nonzero;stroke:none"
       id="path756" /><path
       d="m 248.559,576.465 h 48.961 v 0.48 h -48.961 z"
       style="fill:#000000;fill-opacity:1;fill-rule:nonzero;stroke:none"
       id="path758" /><path
       d="m 297.52,576.465 h 0.477 v 0.48 h -0.477 z"
       style="fill:#000000;fill-opacity:1;fill-rule:nonzero;stroke:none"
       id="path760" /><path
       d="m 297.996,576.465 h 42 v 0.48 h -42 z"
       style="fill:#000000;fill-opacity:1;fill-rule:nonzero;stroke:none"
       id="path762" /><path
       d="m 339.996,576.465 h 0.48 v 0.48 h -0.48 z"
       style="fill:#000000;fill-opacity:1;fill-rule:nonzero;stroke:none"
       id="path764" /><path
       d="m 340.477,576.465 h 42.242 v 0.48 h -42.242 z"
       style="fill:#000000;fill-opacity:1;fill-rule:nonzero;stroke:none"
       id="path766" /><path
       d="m 382.719,576.465 h 0.48 v 0.48 h -0.48 z"
       style="fill:#000000;fill-opacity:1;fill-rule:nonzero;stroke:none"
       id="path768" /><path
       d="m 383.199,576.465 h 70.32 v 0.48 h -70.32 z"
       style="fill:#000000;fill-opacity:1;fill-rule:nonzero;stroke:none"
       id="path770" /><path
       d="M 453.52,576.465 H 454 v 0.48 h -0.48 z"
       style="fill:#000000;fill-opacity:1;fill-rule:nonzero;stroke:none"
       id="path772" /><path
       d="m 453.996,576.465 h 77.523 v 0.48 h -77.523 z"
       style="fill:#000000;fill-opacity:1;fill-rule:nonzero;stroke:none"
       id="path774" /><path
       d="m 531.52,576.465 h 0.477 v 0.48 h -0.477 z"
       style="fill:#000000;fill-opacity:1;fill-rule:nonzero;stroke:none"
       id="path776" /><path
       d="m 56.797,576.945 h 0.48 v 25.441 h -0.48 z"
       style="fill:#000000;fill-opacity:1;fill-rule:nonzero;stroke:none"
       id="path778" /><path
       d="m 56.797,602.387 h 0.48 v 0.477 h -0.48 z"
       style="fill:#000000;fill-opacity:1;fill-rule:nonzero;stroke:none"
       id="path780" /><path
       d="m 56.797,602.387 h 0.48 v 0.477 h -0.48 z"
       style="fill:#000000;fill-opacity:1;fill-rule:nonzero;stroke:none"
       id="path782" /><path
       d="m 57.277,602.387 h 63.121 v 0.477 H 57.277 Z"
       style="fill:#000000;fill-opacity:1;fill-rule:nonzero;stroke:none"
       id="path784" /><path
       d="m 120.398,576.945 h 0.48 v 25.441 h -0.48 z"
       style="fill:#000000;fill-opacity:1;fill-rule:nonzero;stroke:none"
       id="path786" /><path
       d="m 120.398,602.387 h 0.48 v 0.477 h -0.48 z"
       style="fill:#000000;fill-opacity:1;fill-rule:nonzero;stroke:none"
       id="path788" /><path
       d="m 120.879,602.387 h 42 v 0.477 h -42 z"
       style="fill:#000000;fill-opacity:1;fill-rule:nonzero;stroke:none"
       id="path790" /><path
       d="m 162.879,576.945 h 0.48 v 25.441 h -0.48 z"
       style="fill:#000000;fill-opacity:1;fill-rule:nonzero;stroke:none"
       id="path792" /><path
       d="m 162.879,602.387 h 0.48 v 0.477 h -0.48 z"
       style="fill:#000000;fill-opacity:1;fill-rule:nonzero;stroke:none"
       id="path794" /><path
       d="m 163.359,602.387 h 42 v 0.477 h -42 z"
       style="fill:#000000;fill-opacity:1;fill-rule:nonzero;stroke:none"
       id="path796" /><path
       d="m 205.359,576.945 h 0.477 v 25.441 h -0.477 z"
       style="fill:#000000;fill-opacity:1;fill-rule:nonzero;stroke:none"
       id="path798" /><path
       d="m 205.359,602.387 h 0.477 v 0.477 h -0.477 z"
       style="fill:#000000;fill-opacity:1;fill-rule:nonzero;stroke:none"
       id="path800" /><path
       d="m 205.836,602.387 h 42.242 v 0.477 h -42.242 z"
       style="fill:#000000;fill-opacity:1;fill-rule:nonzero;stroke:none"
       id="path802" /><path
       d="m 248.078,576.945 h 0.48 v 25.441 h -0.48 z"
       style="fill:#000000;fill-opacity:1;fill-rule:nonzero;stroke:none"
       id="path804" /><path
       d="m 248.078,602.387 h 0.48 v 0.477 h -0.48 z"
       style="fill:#000000;fill-opacity:1;fill-rule:nonzero;stroke:none"
       id="path806" /><path
       d="m 248.559,602.387 h 48.961 v 0.477 h -48.961 z"
       style="fill:#000000;fill-opacity:1;fill-rule:nonzero;stroke:none"
       id="path808" /><path
       d="m 297.52,576.945 h 0.477 v 25.441 h -0.477 z"
       style="fill:#000000;fill-opacity:1;fill-rule:nonzero;stroke:none"
       id="path810" /><path
       d="m 297.52,602.387 h 0.477 v 0.477 h -0.477 z"
       style="fill:#000000;fill-opacity:1;fill-rule:nonzero;stroke:none"
       id="path812" /><path
       d="m 297.996,602.387 h 42 v 0.477 h -42 z"
       style="fill:#000000;fill-opacity:1;fill-rule:nonzero;stroke:none"
       id="path814" /><path
       d="m 339.996,576.945 h 0.48 v 25.441 h -0.48 z"
       style="fill:#000000;fill-opacity:1;fill-rule:nonzero;stroke:none"
       id="path816" /><path
       d="m 339.996,602.387 h 0.48 v 0.477 h -0.48 z"
       style="fill:#000000;fill-opacity:1;fill-rule:nonzero;stroke:none"
       id="path818" /><path
       d="m 340.477,602.387 h 42.242 v 0.477 h -42.242 z"
       style="fill:#000000;fill-opacity:1;fill-rule:nonzero;stroke:none"
       id="path820" /><path
       d="m 382.719,576.945 h 0.48 v 25.441 h -0.48 z"
       style="fill:#000000;fill-opacity:1;fill-rule:nonzero;stroke:none"
       id="path822" /><path
       d="m 382.719,602.387 h 0.48 v 0.477 h -0.48 z"
       style="fill:#000000;fill-opacity:1;fill-rule:nonzero;stroke:none"
       id="path824" /><path
       d="m 383.199,602.387 h 70.32 v 0.477 h -70.32 z"
       style="fill:#000000;fill-opacity:1;fill-rule:nonzero;stroke:none"
       id="path826" /><path
       d="M 453.52,576.945 H 454 v 25.441 h -0.48 z"
       style="fill:#000000;fill-opacity:1;fill-rule:nonzero;stroke:none"
       id="path828" /><path
       d="M 453.52,602.387 H 454 v 0.477 h -0.48 z"
       style="fill:#000000;fill-opacity:1;fill-rule:nonzero;stroke:none"
       id="path830" /><path
       d="m 453.996,602.387 h 77.523 v 0.477 h -77.523 z"
       style="fill:#000000;fill-opacity:1;fill-rule:nonzero;stroke:none"
       id="path832" /><path
       d="m 531.52,576.945 h 0.477 v 25.441 h -0.477 z"
       style="fill:#000000;fill-opacity:1;fill-rule:nonzero;stroke:none"
       id="path834" /><path
       d="m 531.52,602.387 h 0.477 v 0.477 h -0.477 z"
       style="fill:#000000;fill-opacity:1;fill-rule:nonzero;stroke:none"
       id="path836" /><path
       d="m 531.52,602.387 h 0.477 v 0.477 h -0.477 z"
       style="fill:#000000;fill-opacity:1;fill-rule:nonzero;stroke:none"
       id="path838" /></g></svg>