<?xml version="1.0" encoding="UTF-8" standalone="no"?>
<svg
   xmlns:dc="http://purl.org/dc/elements/1.1/"
   xmlns:cc="http://creativecommons.org/ns#"
   xmlns:rdf="http://www.w3.org/1999/02/22-rdf-syntax-ns#"
   xmlns:svg="http://www.w3.org/2000/svg"
   xmlns="http://www.w3.org/2000/svg"
   viewBox="0 0 641.92133 168.32267"
   height="168.32266"
   width="641.92133"
   xml:space="preserve"
   id="svg2"
   version="1.1"><metadata
     id="metadata8"><rdf:RDF><cc:Work
         rdf:about=""><dc:format>image/svg+xml</dc:format><dc:type
           rdf:resource="http://purl.org/dc/dcmitype/StillImage" /><dc:title></dc:title></cc:Work></rdf:RDF></metadata><defs
     id="defs6"><clipPath
       id="clipPath20"
       clipPathUnits="userSpaceOnUse"><path
         id="path18"
         d="M 0.156,0 H 595 V 841 H 0.156 Z" /></clipPath><clipPath
       id="clipPath288"
       clipPathUnits="userSpaceOnUse"><path
         id="path286"
         d="m 387,339 h 3 v 8.984 h -3 z" /></clipPath><clipPath
       id="clipPath310"
       clipPathUnits="userSpaceOnUse"><path
         id="path308"
         d="m 412,339 h 4 v 8.984 h -4 z" /></clipPath><clipPath
       id="clipPath790"
       clipPathUnits="userSpaceOnUse"><path
         id="path788"
         d="M 97,381 H 303 V 585 H 97 Z" /></clipPath><clipPath
       id="clipPath796"
       clipPathUnits="userSpaceOnUse"><path
         id="path794"
         d="M 110.504,688.602 565.297,233.809 484.773,153.285 29.98,608.078 Z" /></clipPath><clipPath
       id="clipPath808"
       clipPathUnits="userSpaceOnUse"><path
         id="path806"
         d="M 287,223 H 462 V 394 H 287 Z" /></clipPath><clipPath
       id="clipPath814"
       clipPathUnits="userSpaceOnUse"><path
         id="path812"
         d="M 110.504,688.602 565.297,233.809 484.773,153.285 29.98,608.078 Z" /></clipPath><clipPath
       id="clipPath826"
       clipPathUnits="userSpaceOnUse"><path
         id="path824"
         d="M 80,506 H 256 V 681 H 80 Z" /></clipPath><clipPath
       id="clipPath832"
       clipPathUnits="userSpaceOnUse"><path
         id="path830"
         d="M 110.504,688.602 565.297,233.809 484.773,153.285 29.98,608.078 Z" /></clipPath><clipPath
       id="clipPath844"
       clipPathUnits="userSpaceOnUse"><path
         id="path842"
         d="m 241,451 h 70 v 69 h -70 z" /></clipPath><clipPath
       id="clipPath850"
       clipPathUnits="userSpaceOnUse"><path
         id="path848"
         d="M 110.504,688.602 565.297,233.809 484.773,153.285 29.98,608.078 Z" /></clipPath><clipPath
       id="clipPath862"
       clipPathUnits="userSpaceOnUse"><path
         id="path860"
         d="M 298,348 H 415 V 463 H 298 Z" /></clipPath><clipPath
       id="clipPath868"
       clipPathUnits="userSpaceOnUse"><path
         id="path866"
         d="M 110.504,688.602 565.297,233.809 484.773,153.285 29.98,608.078 Z" /></clipPath><clipPath
       id="clipPath880"
       clipPathUnits="userSpaceOnUse"><path
         id="path878"
         d="M 402,204 H 557 V 360 H 402 Z" /></clipPath><clipPath
       id="clipPath886"
       clipPathUnits="userSpaceOnUse"><path
         id="path884"
         d="M 110.504,688.602 565.297,233.809 484.773,153.285 29.98,608.078 Z" /></clipPath></defs><g
     transform="matrix(1.3333333,0,0,1.3333333,-75.729331,-394.21866)"
     id="g10"><g
       id="g12" /><text
       y="304.30487"
       x="62.557796"
       id="text200"
       style="font-variant:normal;font-weight:normal;font-size:9.11999989px;font-family:TimesNewRomanPSMT;-inkscape-font-specification:TimesNewRomanPSMT;writing-mode:lr-tb;fill:#000000;fill-opacity:1;fill-rule:nonzero;stroke:none"><tspan
         id="tspan198"
         y="304.30487"
         x="62.557796 67.117798 72.152039 78.143875">2×CO</tspan></text>
<text
       y="304.78488"
       x="84.637794"
       id="text204"
       style="font-variant:normal;font-weight:normal;font-size:6px;font-family:TimesNewRomanPSMT;-inkscape-font-specification:TimesNewRomanPSMT;writing-mode:lr-tb;fill:#000000;fill-opacity:1;fill-rule:nonzero;stroke:none"><tspan
         id="tspan202"
         y="304.78488"
         x="84.637794">2</tspan></text>
<text
       y="314.62488"
       x="62.557796"
       id="text218"
       style="font-variant:normal;font-weight:normal;font-size:9.11999989px;font-family:TimesNewRomanPSMT;-inkscape-font-specification:TimesNewRomanPSMT;writing-mode:lr-tb;fill:#000000;fill-opacity:1;fill-rule:nonzero;stroke:none"><tspan
         id="tspan206"
         y="314.62488"
         x="62.557796 65.439713 69.762596 72.881638 76.712036 79.347717 83.907715 88.467712">forcing </tspan><tspan
         id="tspan208"
         y="304.30487"
         x="124.23779 130.47588 136.46771 141.26483">AR5 </tspan><tspan
         id="tspan210"
         y="314.62488"
         x="124.23779 129.28116 135.51924 141.51108 146.55444 149.181">SARF/ </tspan><tspan
         id="tspan212"
         y="324.94873"
         x="124.23779 129.74628 135.73811 140.78148">ERF </tspan><tspan
         id="tspan214"
         y="304.30487"
         x="168.3978 173.43204 179.67012 185.66196 190.94244">SARF </tspan><tspan
         id="tspan216"
         y="314.62488"
         x="168.3978 171.51683 179.90724 182.3058">(W m</tspan></text>
<text
       y="311.50488"
       x="189.27779"
       id="text222"
       style="font-variant:normal;font-weight:normal;font-size:6px;font-family:TimesNewRomanPSMT;-inkscape-font-specification:TimesNewRomanPSMT;writing-mode:lr-tb;fill:#000000;fill-opacity:1;fill-rule:nonzero;stroke:none"><tspan
         id="tspan220"
         y="311.50488"
         x="189.27779 191.19778">-2</tspan></text>
<text
       y="314.62488"
       x="194.07779"
       id="text234"
       style="font-variant:normal;font-weight:normal;font-size:9.11999989px;font-family:TimesNewRomanPSMT;-inkscape-font-specification:TimesNewRomanPSMT;writing-mode:lr-tb;fill:#000000;fill-opacity:1;fill-rule:nonzero;stroke:none"><tspan
         id="tspan224"
         y="314.62488"
         x="194.07779 197.19682">) </tspan><tspan
         id="tspan226"
         y="304.30487"
         x="211.11778 216.62627 219.75443 224.06819 228.62819 232.95107 236.54436 241.10435 245.66435 249.741 252.62291 255.24947 259.08899">Tropospheric </tspan><tspan
         id="tspan228"
         y="314.62488"
         x="211.11778 213.75346 217.82098 224.77043 229.33043 233.16995 236.28899 240.11938 242.74596 247.06883 250.18787 254.01826">temperature </tspan><tspan
         id="tspan230"
         y="324.94873"
         x="211.11778 215.19443 219.75443 222.381 226.70387 230.29715 232.93283 239.64516 243.72179 248.28178 250.67123">adjustment </tspan><tspan
         id="tspan232"
         y="335.26489"
         x="211.11778 214.23683 222.62723 225.02579">(W m</tspan></text>
<text
       y="332.14487"
       x="231.99779"
       id="text238"
       style="font-variant:normal;font-weight:normal;font-size:6px;font-family:TimesNewRomanPSMT;-inkscape-font-specification:TimesNewRomanPSMT;writing-mode:lr-tb;fill:#000000;fill-opacity:1;fill-rule:nonzero;stroke:none"><tspan
         id="tspan236"
         y="332.14487"
         x="231.99779 233.91779">-2</tspan></text>
<text
       y="335.26489"
       x="236.79779"
       id="text250"
       style="font-variant:normal;font-weight:normal;font-size:9.11999989px;font-family:TimesNewRomanPSMT;-inkscape-font-specification:TimesNewRomanPSMT;writing-mode:lr-tb;fill:#000000;fill-opacity:1;fill-rule:nonzero;stroke:none"><tspan
         id="tspan240"
         y="335.26489"
         x="236.79779 239.91682">) </tspan><tspan
         id="tspan242"
         y="304.30487"
         x="272.79779 281.18817 285.26483 287.89139 291.96802 294.84995">Water </tspan><tspan
         id="tspan244"
         y="314.62488"
         x="272.79779 277.12067 281.18817 285.7482 290.07108 294.63107 297.75922">vapour </tspan><tspan
         id="tspan246"
         y="324.94873"
         x="272.79779 276.87442 281.43442 284.06097 288.38385 291.97714 294.61282 301.32513 305.40179 309.96179 312.35123">adjustment </tspan><tspan
         id="tspan248"
         y="335.26489"
         x="272.79779 275.91684 284.30722 286.70578">(W m</tspan></text>
<text
       y="332.14487"
       x="293.6778"
       id="text254"
       style="font-variant:normal;font-weight:normal;font-size:6px;font-family:TimesNewRomanPSMT;-inkscape-font-specification:TimesNewRomanPSMT;writing-mode:lr-tb;fill:#000000;fill-opacity:1;fill-rule:nonzero;stroke:none"><tspan
         id="tspan252"
         y="332.14487"
         x="293.6778 295.59778">-2</tspan></text>
<text
       y="335.26489"
       x="298.47778"
       id="text264"
       style="font-variant:normal;font-weight:normal;font-size:9.11999989px;font-family:TimesNewRomanPSMT;-inkscape-font-specification:TimesNewRomanPSMT;writing-mode:lr-tb;fill:#000000;fill-opacity:1;fill-rule:nonzero;stroke:none"><tspan
         id="tspan256"
         y="335.26489"
         x="298.47778 301.59683">) </tspan><tspan
         id="tspan258"
         y="304.30487"
         x="329.91779 335.90964 338.54532 342.85907 347.41907 351.97906">Cloud </tspan><tspan
         id="tspan260"
         y="314.62488"
         x="329.91779 333.99442 338.55441 341.181 345.50388 349.09714 351.73282 358.44516 362.52179 367.08179 369.47122">adjustment </tspan><tspan
         id="tspan262"
         y="324.94873"
         x="329.91779 333.03683 341.42722 343.82578">(W m</tspan></text>
<text
       y="321.82489"
       x="350.79779"
       id="text268"
       style="font-variant:normal;font-weight:normal;font-size:6px;font-family:TimesNewRomanPSMT;-inkscape-font-specification:TimesNewRomanPSMT;writing-mode:lr-tb;fill:#000000;fill-opacity:1;fill-rule:nonzero;stroke:none"><tspan
         id="tspan266"
         y="321.82489"
         x="350.79779 352.7178">-2</tspan></text>
<text
       y="324.94489"
       x="355.59778"
       id="text280"
       style="font-variant:normal;font-weight:normal;font-size:9.11999989px;font-family:TimesNewRomanPSMT;-inkscape-font-specification:TimesNewRomanPSMT;writing-mode:lr-tb;fill:#000000;fill-opacity:1;fill-rule:nonzero;stroke:none"><tspan
         id="tspan270"
         y="324.94489"
         x="355.59778 358.71683">) </tspan><tspan
         id="tspan272"
         y="304.30487"
         x="387.03778 392.07202 396.63202 399.76019 402.633 406.70963 410.54004 414.61667">Surface </tspan><tspan
         id="tspan274"
         y="314.62488"
         x="387.03778 391.11444 393.741 398.06387 402.1405 406.7005 411.02338 413.42194 417.48947 421.81235 426.37234">albedo and </tspan><tspan
         id="tspan276"
         y="324.94873"
         x="387.03778 389.67346 393.741 398.30099 402.62387 405.02243 408.85281 413.17572 417.4986 421.57523 424.69427">land cover </tspan><tspan
         id="tspan278"
         y="335.27255"
         x="387.03778 391.11444 395.67444 398.30099 402.62387 406.21716 408.85281 415.56516 419.64178 424.20178 426.59122">adjustment </tspan></text>
<g
       id="g282"><g
         clip-path="url(#clipPath288)"
         id="g284"><text
           id="text292"
           style="font-variant:normal;font-weight:normal;font-size:9.11999989px;font-family:TimesNewRomanPSMT;-inkscape-font-specification:TimesNewRomanPSMT;writing-mode:lr-tb;fill:#000000;fill-opacity:1;fill-rule:nonzero;stroke:none"
           transform="translate(387.03779,345.58488)"><tspan
             id="tspan290"
             y="0"
             x="0">(</tspan></text>
</g></g><g
       id="g294"><text
         id="text298"
         style="font-variant:normal;font-weight:normal;font-size:9.11999989px;font-family:TimesNewRomanPSMT;-inkscape-font-specification:TimesNewRomanPSMT;writing-mode:lr-tb;fill:#000000;fill-opacity:1;fill-rule:nonzero;stroke:none"
         transform="translate(390.15775,345.58488)"><tspan
           id="tspan296"
           y="0"
           x="0 8.3903999 10.78896">W m</tspan></text>
<text
         id="text302"
         style="font-variant:normal;font-weight:normal;font-size:6px;font-family:TimesNewRomanPSMT;-inkscape-font-specification:TimesNewRomanPSMT;writing-mode:lr-tb;fill:#000000;fill-opacity:1;fill-rule:nonzero;stroke:none"
         transform="translate(407.91779,342.46488)"><tspan
           id="tspan300"
           y="0"
           x="0 1.92">-2</tspan></text>
</g><g
       id="g304"><g
         clip-path="url(#clipPath310)"
         id="g306"><text
           id="text314"
           style="font-variant:normal;font-weight:normal;font-size:9.11999989px;font-family:TimesNewRomanPSMT;-inkscape-font-specification:TimesNewRomanPSMT;writing-mode:lr-tb;fill:#000000;fill-opacity:1;fill-rule:nonzero;stroke:none"
           transform="translate(412.71779,345.58488)"><tspan
             id="tspan312"
             y="0"
             x="0 3.11904">) </tspan></text>
</g></g><text
       y="304.30487"
       x="444.15781"
       style="font-variant:normal;font-weight:normal;font-size:9.11999989px;font-family:TimesNewRomanPSMT;-inkscape-font-specification:TimesNewRomanPSMT;writing-mode:lr-tb;fill:#000000;fill-opacity:1;fill-rule:nonzero;stroke:none"
       id="text326"><tspan
         x="444.15781 449.66629 453.98917 456.62485 460.70148 463.09091"
         y="304.30487"
         id="tspan318">Total </tspan><tspan
         x="444.15781 446.79349 449.91251 454.22629 458.78629 463.10916 466.71155 471.27155 475.83157 479.66196 482.78101 485.41669 489.24707"
         y="314.62488"
         id="tspan320">tropospheric </tspan><tspan
         x="444.15781 448.23444 452.79443 455.42099 459.74387 463.33716 465.97284 472.68515 476.76181 481.32181 483.71124"
         y="324.94873"
         id="tspan322">adjustment </tspan><tspan
         x="444.15781 447.27682 455.66724 458.0658"
         y="335.27255"
         id="tspan324">(W m</tspan></text>
<text
       y="332.14487"
       x="465.03778"
       style="font-variant:normal;font-weight:normal;font-size:6px;font-family:TimesNewRomanPSMT;-inkscape-font-specification:TimesNewRomanPSMT;writing-mode:lr-tb;fill:#000000;fill-opacity:1;fill-rule:nonzero;stroke:none"
       id="text330"><tspan
         x="465.03778 466.95779"
         y="332.14487"
         id="tspan328">-2</tspan></text>
<text
       y="335.26489"
       x="469.8378"
       style="font-variant:normal;font-weight:normal;font-size:9.11999989px;font-family:TimesNewRomanPSMT;-inkscape-font-specification:TimesNewRomanPSMT;writing-mode:lr-tb;fill:#000000;fill-opacity:1;fill-rule:nonzero;stroke:none"
       id="text338"><tspan
         x="469.8378 472.95682"
         y="335.26489"
         id="tspan332">) </tspan><tspan
         x="501.75778 507.26627 513.25812 518.30145"
         y="304.30487"
         id="tspan334">ERF </tspan><tspan
         x="501.75778 504.87683 513.26721 515.66577"
         y="314.62488"
         id="tspan336">(W m</tspan></text>
<text
       y="311.50488"
       x="522.63782"
       style="font-variant:normal;font-weight:normal;font-size:6px;font-family:TimesNewRomanPSMT;-inkscape-font-specification:TimesNewRomanPSMT;writing-mode:lr-tb;fill:#000000;fill-opacity:1;fill-rule:nonzero;stroke:none"
       id="text342"><tspan
         x="522.63782 524.5578"
         y="311.50488"
         id="tspan340">-2</tspan></text>
<text
       y="314.62488"
       x="527.43781"
       style="font-variant:normal;font-weight:normal;font-size:9.11999989px;font-family:TimesNewRomanPSMT;-inkscape-font-specification:TimesNewRomanPSMT;writing-mode:lr-tb;fill:#000000;fill-opacity:1;fill-rule:nonzero;stroke:none"
       id="text346"><tspan
         x="527.43781 530.55682"
         y="314.62488"
         id="tspan344">) </tspan></text>
<path
       d="m 56.797,295.664 h 0.48 v 0.48 h -0.48 z"
       style="fill:#000000;fill-opacity:1;fill-rule:nonzero;stroke:none"
       id="path348" /><path
       d="m 56.797,295.664 h 0.48 v 0.48 h -0.48 z"
       style="fill:#000000;fill-opacity:1;fill-rule:nonzero;stroke:none"
       id="path350" /><path
       d="m 57.277,295.664 h 61.438 v 0.48 H 57.277 Z"
       style="fill:#000000;fill-opacity:1;fill-rule:nonzero;stroke:none"
       id="path352" /><path
       d="m 118.719,295.664 h 0.48 v 0.48 h -0.48 z"
       style="fill:#000000;fill-opacity:1;fill-rule:nonzero;stroke:none"
       id="path354" /><path
       d="m 119.199,295.664 h 43.68 v 0.48 h -43.68 z"
       style="fill:#000000;fill-opacity:1;fill-rule:nonzero;stroke:none"
       id="path356" /><path
       d="m 162.879,295.664 h 0.48 v 0.48 h -0.48 z"
       style="fill:#000000;fill-opacity:1;fill-rule:nonzero;stroke:none"
       id="path358" /><path
       d="m 163.359,295.664 h 42 v 0.48 h -42 z"
       style="fill:#000000;fill-opacity:1;fill-rule:nonzero;stroke:none"
       id="path360" /><path
       d="m 205.359,295.664 h 0.477 v 0.48 h -0.477 z"
       style="fill:#000000;fill-opacity:1;fill-rule:nonzero;stroke:none"
       id="path362" /><path
       d="m 205.836,295.664 h 61.203 v 0.48 h -61.203 z"
       style="fill:#000000;fill-opacity:1;fill-rule:nonzero;stroke:none"
       id="path364" /><path
       d="m 267.039,295.664 h 0.48 v 0.48 h -0.48 z"
       style="fill:#000000;fill-opacity:1;fill-rule:nonzero;stroke:none"
       id="path366" /><path
       d="m 267.52,295.664 h 56.637 v 0.48 H 267.52 Z"
       style="fill:#000000;fill-opacity:1;fill-rule:nonzero;stroke:none"
       id="path368" /><path
       d="m 324.156,295.664 h 0.48 v 0.48 h -0.48 z"
       style="fill:#000000;fill-opacity:1;fill-rule:nonzero;stroke:none"
       id="path370" /><path
       d="m 324.637,295.664 h 56.641 v 0.48 h -56.641 z"
       style="fill:#000000;fill-opacity:1;fill-rule:nonzero;stroke:none"
       id="path372" /><path
       d="m 381.277,295.664 h 0.48 v 0.48 h -0.48 z"
       style="fill:#000000;fill-opacity:1;fill-rule:nonzero;stroke:none"
       id="path374" /><path
       d="m 381.758,295.664 h 56.641 v 0.48 h -56.641 z"
       style="fill:#000000;fill-opacity:1;fill-rule:nonzero;stroke:none"
       id="path376" /><path
       d="m 438.398,295.664 h 0.48 v 0.48 h -0.48 z"
       style="fill:#000000;fill-opacity:1;fill-rule:nonzero;stroke:none"
       id="path378" /><path
       d="m 438.879,295.664 h 57.117 v 0.48 h -57.117 z"
       style="fill:#000000;fill-opacity:1;fill-rule:nonzero;stroke:none"
       id="path380" /><path
       d="m 495.996,295.664 h 0.484 v 0.48 h -0.484 z"
       style="fill:#000000;fill-opacity:1;fill-rule:nonzero;stroke:none"
       id="path382" /><path
       d="m 496.477,295.664 h 41.281 v 0.48 h -41.281 z"
       style="fill:#000000;fill-opacity:1;fill-rule:nonzero;stroke:none"
       id="path384" /><path
       d="m 537.758,295.664 h 0.48 v 0.48 h -0.48 z"
       style="fill:#000000;fill-opacity:1;fill-rule:nonzero;stroke:none"
       id="path386" /><path
       d="m 537.758,295.664 h 0.48 v 0.48 h -0.48 z"
       style="fill:#000000;fill-opacity:1;fill-rule:nonzero;stroke:none"
       id="path388" /><path
       d="m 56.797,296.145 h 0.48 v 51.84 h -0.48 z"
       style="fill:#000000;fill-opacity:1;fill-rule:nonzero;stroke:none"
       id="path390" /><path
       d="m 118.719,296.145 h 0.48 v 51.84 h -0.48 z"
       style="fill:#000000;fill-opacity:1;fill-rule:nonzero;stroke:none"
       id="path392" /><path
       d="m 162.879,296.145 h 0.48 v 51.84 h -0.48 z"
       style="fill:#000000;fill-opacity:1;fill-rule:nonzero;stroke:none"
       id="path394" /><path
       d="m 205.359,296.145 h 0.477 v 51.84 h -0.477 z"
       style="fill:#000000;fill-opacity:1;fill-rule:nonzero;stroke:none"
       id="path396" /><path
       d="m 267.039,296.145 h 0.48 v 51.84 h -0.48 z"
       style="fill:#000000;fill-opacity:1;fill-rule:nonzero;stroke:none"
       id="path398" /><path
       d="m 324.156,296.145 h 0.48 v 51.84 h -0.48 z"
       style="fill:#000000;fill-opacity:1;fill-rule:nonzero;stroke:none"
       id="path400" /><path
       d="m 381.277,296.145 h 0.48 v 51.84 h -0.48 z"
       style="fill:#000000;fill-opacity:1;fill-rule:nonzero;stroke:none"
       id="path402" /><path
       d="m 438.398,296.145 h 0.48 v 51.84 h -0.48 z"
       style="fill:#000000;fill-opacity:1;fill-rule:nonzero;stroke:none"
       id="path404" /><path
       d="m 495.996,296.145 h 0.484 v 51.84 h -0.484 z"
       style="fill:#000000;fill-opacity:1;fill-rule:nonzero;stroke:none"
       id="path406" /><path
       d="m 537.758,296.145 h 0.48 v 51.84 h -0.48 z"
       style="fill:#000000;fill-opacity:1;fill-rule:nonzero;stroke:none"
       id="path408" /><text
       y="356.62488"
       x="62.557796"
       style="font-variant:normal;font-weight:normal;font-size:9.11999989px;font-family:TimesNewRomanPSMT;-inkscape-font-specification:TimesNewRomanPSMT;writing-mode:lr-tb;fill:#000000;fill-opacity:1;fill-rule:nonzero;stroke:none"
       id="text412"><tspan
         x="62.557796 67.117798 72.152039 78.143875"
         y="356.62488"
         id="tspan410">2×CO</tspan></text>
<text
       y="357.10489"
       x="84.637794"
       style="font-variant:normal;font-weight:normal;font-size:6px;font-family:TimesNewRomanPSMT;-inkscape-font-specification:TimesNewRomanPSMT;writing-mode:lr-tb;fill:#000000;fill-opacity:1;fill-rule:nonzero;stroke:none"
       id="text416"><tspan
         x="84.637794"
         y="357.10489"
         id="tspan414">2</tspan></text>
<text
       y="356.62488"
       x="89.916351"
       style="font-variant:normal;font-weight:normal;font-size:9.11999989px;font-family:TimesNewRomanPSMT;-inkscape-font-specification:TimesNewRomanPSMT;writing-mode:lr-tb;fill:#000000;fill-opacity:1;fill-rule:nonzero;stroke:none"
       id="text424"><tspan
         x="89.916351 95.433952 101.4258 106.46004"
         y="356.62488"
         id="tspan418">ERF </tspan><tspan
         x="62.557796 66.388199 70.948196 77.906754 82.466759 86.780518 91.340515 95.417152 99.977158 102.60371 106.20612"
         y="366.94489"
         id="tspan420">components </tspan><tspan
         x="132.87779 137.43779 139.83635 144.39635 148.71924 176.31636 180.87636 183.27492 187.83492 192.15779 226.47635 231.03635 235.59634 237.9949 242.31779 246.64067 287.91779 292.47778 294.87634 299.43637 303.75925 345.03635 349.59634 351.9949 356.5549 360.87778 402.15491 406.7149 409.12259 413.68259 417.99634 459.51779 464.07779 466.47635 471.03635 475.35922 509.19443 513.75446 516.16211 520.72211 525.03589"
         y="356.62488"
         id="tspan422">3.71 3.75 –0.60 0.22 0.45 0.11 0.18 3.93 </tspan></text>
<path
       d="m 56.797,347.984 h 0.48 v 0.48 h -0.48 z"
       style="fill:#000000;fill-opacity:1;fill-rule:nonzero;stroke:none"
       id="path426" /><path
       d="m 57.277,347.984 h 61.438 v 0.48 H 57.277 Z"
       style="fill:#000000;fill-opacity:1;fill-rule:nonzero;stroke:none"
       id="path428" /><path
       d="m 118.719,347.984 h 0.48 v 0.48 h -0.48 z"
       style="fill:#000000;fill-opacity:1;fill-rule:nonzero;stroke:none"
       id="path430" /><path
       d="m 119.199,347.984 h 43.68 v 0.48 h -43.68 z"
       style="fill:#000000;fill-opacity:1;fill-rule:nonzero;stroke:none"
       id="path432" /><path
       d="m 162.879,347.984 h 0.48 v 0.48 h -0.48 z"
       style="fill:#000000;fill-opacity:1;fill-rule:nonzero;stroke:none"
       id="path434" /><path
       d="m 163.359,347.984 h 42 v 0.48 h -42 z"
       style="fill:#000000;fill-opacity:1;fill-rule:nonzero;stroke:none"
       id="path436" /><path
       d="m 205.359,347.984 h 0.477 v 0.48 h -0.477 z"
       style="fill:#000000;fill-opacity:1;fill-rule:nonzero;stroke:none"
       id="path438" /><path
       d="m 205.836,347.984 h 61.203 v 0.48 h -61.203 z"
       style="fill:#000000;fill-opacity:1;fill-rule:nonzero;stroke:none"
       id="path440" /><path
       d="m 267.039,347.984 h 0.48 v 0.48 h -0.48 z"
       style="fill:#000000;fill-opacity:1;fill-rule:nonzero;stroke:none"
       id="path442" /><path
       d="m 267.52,347.984 h 56.637 v 0.48 H 267.52 Z"
       style="fill:#000000;fill-opacity:1;fill-rule:nonzero;stroke:none"
       id="path444" /><path
       d="m 324.156,347.984 h 0.48 v 0.48 h -0.48 z"
       style="fill:#000000;fill-opacity:1;fill-rule:nonzero;stroke:none"
       id="path446" /><path
       d="m 324.637,347.984 h 56.641 v 0.48 h -56.641 z"
       style="fill:#000000;fill-opacity:1;fill-rule:nonzero;stroke:none"
       id="path448" /><path
       d="m 381.277,347.984 h 0.48 v 0.48 h -0.48 z"
       style="fill:#000000;fill-opacity:1;fill-rule:nonzero;stroke:none"
       id="path450" /><path
       d="m 381.758,347.984 h 56.641 v 0.48 h -56.641 z"
       style="fill:#000000;fill-opacity:1;fill-rule:nonzero;stroke:none"
       id="path452" /><path
       d="m 438.398,347.984 h 0.48 v 0.48 h -0.48 z"
       style="fill:#000000;fill-opacity:1;fill-rule:nonzero;stroke:none"
       id="path454" /><path
       d="m 438.879,347.984 h 57.117 v 0.48 h -57.117 z"
       style="fill:#000000;fill-opacity:1;fill-rule:nonzero;stroke:none"
       id="path456" /><path
       d="m 495.996,347.984 h 0.484 v 0.48 h -0.484 z"
       style="fill:#000000;fill-opacity:1;fill-rule:nonzero;stroke:none"
       id="path458" /><path
       d="m 496.477,347.984 h 41.281 v 0.48 h -41.281 z"
       style="fill:#000000;fill-opacity:1;fill-rule:nonzero;stroke:none"
       id="path460" /><path
       d="m 537.758,347.984 h 0.48 v 0.48 h -0.48 z"
       style="fill:#000000;fill-opacity:1;fill-rule:nonzero;stroke:none"
       id="path462" /><path
       d="m 56.797,348.465 h 0.48 v 20.641 h -0.48 z"
       style="fill:#000000;fill-opacity:1;fill-rule:nonzero;stroke:none"
       id="path464" /><path
       d="m 118.719,348.465 h 0.48 v 20.641 h -0.48 z"
       style="fill:#000000;fill-opacity:1;fill-rule:nonzero;stroke:none"
       id="path466" /><path
       d="m 162.879,348.465 h 0.48 v 20.641 h -0.48 z"
       style="fill:#000000;fill-opacity:1;fill-rule:nonzero;stroke:none"
       id="path468" /><path
       d="m 205.359,348.465 h 0.477 v 20.641 h -0.477 z"
       style="fill:#000000;fill-opacity:1;fill-rule:nonzero;stroke:none"
       id="path470" /><path
       d="m 267.039,348.465 h 0.48 v 20.641 h -0.48 z"
       style="fill:#000000;fill-opacity:1;fill-rule:nonzero;stroke:none"
       id="path472" /><path
       d="m 324.156,348.465 h 0.48 v 20.641 h -0.48 z"
       style="fill:#000000;fill-opacity:1;fill-rule:nonzero;stroke:none"
       id="path474" /><path
       d="m 381.277,348.465 h 0.48 v 20.641 h -0.48 z"
       style="fill:#000000;fill-opacity:1;fill-rule:nonzero;stroke:none"
       id="path476" /><path
       d="m 438.398,348.465 h 0.48 v 20.641 h -0.48 z"
       style="fill:#000000;fill-opacity:1;fill-rule:nonzero;stroke:none"
       id="path478" /><path
       d="m 495.996,348.465 h 0.484 v 20.641 h -0.484 z"
       style="fill:#000000;fill-opacity:1;fill-rule:nonzero;stroke:none"
       id="path480" /><path
       d="m 537.758,348.465 h 0.48 v 20.641 h -0.48 z"
       style="fill:#000000;fill-opacity:1;fill-rule:nonzero;stroke:none"
       id="path482" /><text
       y="377.74487"
       x="62.557796"
       style="font-variant:normal;font-weight:normal;font-size:9.11999989px;font-family:TimesNewRomanPSMT;-inkscape-font-specification:TimesNewRomanPSMT;writing-mode:lr-tb;fill:#000000;fill-opacity:1;fill-rule:nonzero;stroke:none"
       id="text504"><tspan
         x="62.557796 67.117798 74.796837 79.119713 83.679718 88.002594 95.681633"
         y="377.74487"
         id="tspan484">5%–95% </tspan><tspan
         x="62.557796 67.117798 71.677795 75.508194 79.584839 82.703873 85.093315 89.169952 91.559395 96.119392 98.755074 102.83171"
         y="388.06488"
         id="tspan486">uncertainty </tspan><tspan
         x="62.557796 65.676834 69.753471 74.313477 78.627235 82.703873 86.060036 88.458595 92.288994 95.891396"
         y="398.38873"
         id="tspan488">ranges as </tspan><tspan
         x="62.557796 67.117798 71.194435 74.313477 78.143875 82.211395 86.534279 89.169952 93.237473 97.560356 101.62788 104.02644 108.34931 111.23123"
         y="408.71255"
         id="tspan490">percentage of </tspan><tspan
         x="62.557796 68.066277 74.058113 79.101479"
         y="419.02487"
         id="tspan492">ERF </tspan><tspan
         x="132.6378 137.1978 141.7578 149.19972"
         y="377.74487"
         id="tspan494">10% </tspan><tspan
         x="126.63779 129.75684 134.8002 141.03828 147.03012 152.07347 155.19252"
         y="388.06488"
         id="tspan496">(SARF) </tspan><tspan
         x="132.6378 137.1978 141.7578 149.19972"
         y="398.38489"
         id="tspan498">20% </tspan><tspan
         x="129.51877 132.6378 138.1554 144.14725 149.18149 152.0634"
         y="408.70871"
         id="tspan500">(ERF) </tspan><tspan
         x="173.43779 178.47205 183.03204 187.59204 195.02484 227.91156 232.93668 237.49669 244.9386 287.41956 292.4538 297.01379 304.45572 344.5578 349.59204 354.15204 361.59396 401.66724 406.70148 411.26147 418.7034 459.02292 464.05716 468.61716 476.05908 506.5578 511.59204 516.15204 520.47491 527.90771"
         y="377.74487"
         id="tspan502">&lt;10% ±6% ±4% ±7% ±2% ±7% ±12% </tspan></text>
<path
       d="m 56.797,369.105 h 0.48 v 0.48 h -0.48 z"
       style="fill:#000000;fill-opacity:1;fill-rule:nonzero;stroke:none"
       id="path506" /><path
       d="m 57.277,369.105 h 61.438 v 0.48 H 57.277 Z"
       style="fill:#000000;fill-opacity:1;fill-rule:nonzero;stroke:none"
       id="path508" /><path
       d="m 118.719,369.105 h 0.48 v 0.48 h -0.48 z"
       style="fill:#000000;fill-opacity:1;fill-rule:nonzero;stroke:none"
       id="path510" /><path
       d="m 119.199,369.105 h 43.68 v 0.48 h -43.68 z"
       style="fill:#000000;fill-opacity:1;fill-rule:nonzero;stroke:none"
       id="path512" /><path
       d="m 162.879,369.105 h 0.48 v 0.48 h -0.48 z"
       style="fill:#000000;fill-opacity:1;fill-rule:nonzero;stroke:none"
       id="path514" /><path
       d="m 163.359,369.105 h 42 v 0.48 h -42 z"
       style="fill:#000000;fill-opacity:1;fill-rule:nonzero;stroke:none"
       id="path516" /><path
       d="m 205.359,369.105 h 0.477 v 0.48 h -0.477 z"
       style="fill:#000000;fill-opacity:1;fill-rule:nonzero;stroke:none"
       id="path518" /><path
       d="m 205.836,369.105 h 61.203 v 0.48 h -61.203 z"
       style="fill:#000000;fill-opacity:1;fill-rule:nonzero;stroke:none"
       id="path520" /><path
       d="m 267.039,369.105 h 0.48 v 0.48 h -0.48 z"
       style="fill:#000000;fill-opacity:1;fill-rule:nonzero;stroke:none"
       id="path522" /><path
       d="m 267.52,369.105 h 56.637 v 0.48 H 267.52 Z"
       style="fill:#000000;fill-opacity:1;fill-rule:nonzero;stroke:none"
       id="path524" /><path
       d="m 324.156,369.105 h 0.48 v 0.48 h -0.48 z"
       style="fill:#000000;fill-opacity:1;fill-rule:nonzero;stroke:none"
       id="path526" /><path
       d="m 324.637,369.105 h 56.641 v 0.48 h -56.641 z"
       style="fill:#000000;fill-opacity:1;fill-rule:nonzero;stroke:none"
       id="path528" /><path
       d="m 381.277,369.105 h 0.48 v 0.48 h -0.48 z"
       style="fill:#000000;fill-opacity:1;fill-rule:nonzero;stroke:none"
       id="path530" /><path
       d="m 381.758,369.105 h 56.641 v 0.48 h -56.641 z"
       style="fill:#000000;fill-opacity:1;fill-rule:nonzero;stroke:none"
       id="path532" /><path
       d="m 438.398,369.105 h 0.48 v 0.48 h -0.48 z"
       style="fill:#000000;fill-opacity:1;fill-rule:nonzero;stroke:none"
       id="path534" /><path
       d="m 438.879,369.105 h 57.117 v 0.48 h -57.117 z"
       style="fill:#000000;fill-opacity:1;fill-rule:nonzero;stroke:none"
       id="path536" /><path
       d="m 495.996,369.105 h 0.484 v 0.48 h -0.484 z"
       style="fill:#000000;fill-opacity:1;fill-rule:nonzero;stroke:none"
       id="path538" /><path
       d="m 496.477,369.105 h 41.281 v 0.48 h -41.281 z"
       style="fill:#000000;fill-opacity:1;fill-rule:nonzero;stroke:none"
       id="path540" /><path
       d="m 537.758,369.105 h 0.48 v 0.48 h -0.48 z"
       style="fill:#000000;fill-opacity:1;fill-rule:nonzero;stroke:none"
       id="path542" /><path
       d="m 56.797,369.586 h 0.48 v 51.84 h -0.48 z"
       style="fill:#000000;fill-opacity:1;fill-rule:nonzero;stroke:none"
       id="path544" /><path
       d="m 56.797,421.426 h 0.48 v 0.48 h -0.48 z"
       style="fill:#000000;fill-opacity:1;fill-rule:nonzero;stroke:none"
       id="path546" /><path
       d="m 56.797,421.426 h 0.48 v 0.48 h -0.48 z"
       style="fill:#000000;fill-opacity:1;fill-rule:nonzero;stroke:none"
       id="path548" /><path
       d="m 57.277,421.426 h 61.438 v 0.48 H 57.277 Z"
       style="fill:#000000;fill-opacity:1;fill-rule:nonzero;stroke:none"
       id="path550" /><path
       d="m 118.719,369.586 h 0.48 v 51.84 h -0.48 z"
       style="fill:#000000;fill-opacity:1;fill-rule:nonzero;stroke:none"
       id="path552" /><path
       d="m 118.719,421.426 h 0.48 v 0.48 h -0.48 z"
       style="fill:#000000;fill-opacity:1;fill-rule:nonzero;stroke:none"
       id="path554" /><path
       d="m 119.199,421.426 h 43.68 v 0.48 h -43.68 z"
       style="fill:#000000;fill-opacity:1;fill-rule:nonzero;stroke:none"
       id="path556" /><path
       d="m 162.879,369.586 h 0.48 v 51.84 h -0.48 z"
       style="fill:#000000;fill-opacity:1;fill-rule:nonzero;stroke:none"
       id="path558" /><path
       d="m 162.879,421.426 h 0.48 v 0.48 h -0.48 z"
       style="fill:#000000;fill-opacity:1;fill-rule:nonzero;stroke:none"
       id="path560" /><path
       d="m 163.359,421.426 h 42 v 0.48 h -42 z"
       style="fill:#000000;fill-opacity:1;fill-rule:nonzero;stroke:none"
       id="path562" /><path
       d="m 205.359,369.586 h 0.477 v 51.84 h -0.477 z"
       style="fill:#000000;fill-opacity:1;fill-rule:nonzero;stroke:none"
       id="path564" /><path
       d="m 205.359,421.426 h 0.477 v 0.48 h -0.477 z"
       style="fill:#000000;fill-opacity:1;fill-rule:nonzero;stroke:none"
       id="path566" /><path
       d="m 205.836,421.426 h 61.203 v 0.48 h -61.203 z"
       style="fill:#000000;fill-opacity:1;fill-rule:nonzero;stroke:none"
       id="path568" /><path
       d="m 267.039,369.586 h 0.48 v 51.84 h -0.48 z"
       style="fill:#000000;fill-opacity:1;fill-rule:nonzero;stroke:none"
       id="path570" /><path
       d="m 267.039,421.426 h 0.48 v 0.48 h -0.48 z"
       style="fill:#000000;fill-opacity:1;fill-rule:nonzero;stroke:none"
       id="path572" /><path
       d="m 267.52,421.426 h 56.637 v 0.48 H 267.52 Z"
       style="fill:#000000;fill-opacity:1;fill-rule:nonzero;stroke:none"
       id="path574" /><path
       d="m 324.156,369.586 h 0.48 v 51.84 h -0.48 z"
       style="fill:#000000;fill-opacity:1;fill-rule:nonzero;stroke:none"
       id="path576" /><path
       d="m 324.156,421.426 h 0.48 v 0.48 h -0.48 z"
       style="fill:#000000;fill-opacity:1;fill-rule:nonzero;stroke:none"
       id="path578" /><path
       d="m 324.637,421.426 h 56.641 v 0.48 h -56.641 z"
       style="fill:#000000;fill-opacity:1;fill-rule:nonzero;stroke:none"
       id="path580" /><path
       d="m 381.277,369.586 h 0.48 v 51.84 h -0.48 z"
       style="fill:#000000;fill-opacity:1;fill-rule:nonzero;stroke:none"
       id="path582" /><path
       d="m 381.277,421.426 h 0.48 v 0.48 h -0.48 z"
       style="fill:#000000;fill-opacity:1;fill-rule:nonzero;stroke:none"
       id="path584" /><path
       d="m 381.758,421.426 h 56.641 v 0.48 h -56.641 z"
       style="fill:#000000;fill-opacity:1;fill-rule:nonzero;stroke:none"
       id="path586" /><path
       d="m 438.398,369.586 h 0.48 v 51.84 h -0.48 z"
       style="fill:#000000;fill-opacity:1;fill-rule:nonzero;stroke:none"
       id="path588" /><path
       d="m 438.398,421.426 h 0.48 v 0.48 h -0.48 z"
       style="fill:#000000;fill-opacity:1;fill-rule:nonzero;stroke:none"
       id="path590" /><path
       d="m 438.879,421.426 h 57.117 v 0.48 h -57.117 z"
       style="fill:#000000;fill-opacity:1;fill-rule:nonzero;stroke:none"
       id="path592" /><path
       d="m 495.996,369.586 h 0.484 v 51.84 h -0.484 z"
       style="fill:#000000;fill-opacity:1;fill-rule:nonzero;stroke:none"
       id="path594" /><path
       d="m 495.996,421.426 h 0.484 v 0.48 h -0.484 z"
       style="fill:#000000;fill-opacity:1;fill-rule:nonzero;stroke:none"
       id="path596" /><path
       d="m 496.477,421.426 h 41.281 v 0.48 h -41.281 z"
       style="fill:#000000;fill-opacity:1;fill-rule:nonzero;stroke:none"
       id="path598" /><path
       d="m 537.758,369.586 h 0.48 v 51.84 h -0.48 z"
       style="fill:#000000;fill-opacity:1;fill-rule:nonzero;stroke:none"
       id="path600" /><path
       d="m 537.758,421.426 h 0.48 v 0.48 h -0.48 z"
       style="fill:#000000;fill-opacity:1;fill-rule:nonzero;stroke:none"
       id="path602" /><path
       d="m 537.758,421.426 h 0.48 v 0.48 h -0.48 z"
       style="fill:#000000;fill-opacity:1;fill-rule:nonzero;stroke:none"
       id="path604" /></g></svg>