<?xml version="1.0" encoding="UTF-8" standalone="no"?>
<svg
   xmlns:dc="http://purl.org/dc/elements/1.1/"
   xmlns:cc="http://creativecommons.org/ns#"
   xmlns:rdf="http://www.w3.org/1999/02/22-rdf-syntax-ns#"
   xmlns:svg="http://www.w3.org/2000/svg"
   xmlns="http://www.w3.org/2000/svg"
   viewBox="0 0 709.1189 338.24019"
   height="338.24017"
   width="709.1189"
   xml:space="preserve"
   id="svg2"
   version="1.1"><metadata
     id="metadata8"><rdf:RDF><cc:Work
         rdf:about=""><dc:format>image/svg+xml</dc:format><dc:type
           rdf:resource="http://purl.org/dc/dcmitype/StillImage" /><dc:title></dc:title></cc:Work></rdf:RDF></metadata><defs
     id="defs6"><clipPath
       id="clipPath20"
       clipPathUnits="userSpaceOnUse"><path
         id="path18"
         d="M 0.156,0 H 595 V 841 H 0.156 Z" /></clipPath><clipPath
       id="clipPath200"
       clipPathUnits="userSpaceOnUse"><path
         id="path198"
         d="m 210,566 h 8 v 10.465 h -8 z" /></clipPath><clipPath
       id="clipPath218"
       clipPathUnits="userSpaceOnUse"><path
         id="path216"
         d="m 344,566 h 10 v 10.465 h -10 z" /></clipPath><clipPath
       id="clipPath304"
       clipPathUnits="userSpaceOnUse"><path
         id="path302"
         d="m 425,615 h 7 v 7.785 h -7 z" /></clipPath><clipPath
       id="clipPath322"
       clipPathUnits="userSpaceOnUse"><path
         id="path320"
         d="m 455,612 h 7 v 10.785 h -7 z" /></clipPath><clipPath
       id="clipPath340"
       clipPathUnits="userSpaceOnUse"><path
         id="path338"
         d="m 489,612 h 4 v 10.785 h -4 z" /></clipPath><clipPath
       id="clipPath378"
       clipPathUnits="userSpaceOnUse"><path
         id="path376"
         d="m 410,645 h 6 v 8.746 h -6 z" /></clipPath><clipPath
       id="clipPath396"
       clipPathUnits="userSpaceOnUse"><path
         id="path394"
         d="m 419,645 h 7 v 8.746 h -7 z" /></clipPath><clipPath
       id="clipPath414"
       clipPathUnits="userSpaceOnUse"><path
         id="path412"
         d="m 474,643 h 4 v 10.746 h -4 z" /></clipPath><clipPath
       id="clipPath426"
       clipPathUnits="userSpaceOnUse"><path
         id="path424"
         d="m 478,643 h 26 v 10.746 h -26 z" /></clipPath><clipPath
       id="clipPath506"
       clipPathUnits="userSpaceOnUse"><path
         id="path504"
         d="m 187,742 h 6 v 8.703 h -6 z" /></clipPath><clipPath
       id="clipPath550"
       clipPathUnits="userSpaceOnUse"><path
         id="path548"
         d="M 97,381 H 303 V 585 H 97 Z" /></clipPath><clipPath
       id="clipPath556"
       clipPathUnits="userSpaceOnUse"><path
         id="path554"
         d="M 110.504,688.602 565.297,233.809 484.773,153.285 29.98,608.078 Z" /></clipPath><clipPath
       id="clipPath568"
       clipPathUnits="userSpaceOnUse"><path
         id="path566"
         d="M 287,223 H 462 V 394 H 287 Z" /></clipPath><clipPath
       id="clipPath574"
       clipPathUnits="userSpaceOnUse"><path
         id="path572"
         d="M 110.504,688.602 565.297,233.809 484.773,153.285 29.98,608.078 Z" /></clipPath><clipPath
       id="clipPath586"
       clipPathUnits="userSpaceOnUse"><path
         id="path584"
         d="M 80,506 H 256 V 681 H 80 Z" /></clipPath><clipPath
       id="clipPath592"
       clipPathUnits="userSpaceOnUse"><path
         id="path590"
         d="M 110.504,688.602 565.297,233.809 484.773,153.285 29.98,608.078 Z" /></clipPath><clipPath
       id="clipPath604"
       clipPathUnits="userSpaceOnUse"><path
         id="path602"
         d="m 241,451 h 70 v 69 h -70 z" /></clipPath><clipPath
       id="clipPath610"
       clipPathUnits="userSpaceOnUse"><path
         id="path608"
         d="M 110.504,688.602 565.297,233.809 484.773,153.285 29.98,608.078 Z" /></clipPath><clipPath
       id="clipPath622"
       clipPathUnits="userSpaceOnUse"><path
         id="path620"
         d="M 298,348 H 415 V 463 H 298 Z" /></clipPath><clipPath
       id="clipPath628"
       clipPathUnits="userSpaceOnUse"><path
         id="path626"
         d="M 110.504,688.602 565.297,233.809 484.773,153.285 29.98,608.078 Z" /></clipPath><clipPath
       id="clipPath640"
       clipPathUnits="userSpaceOnUse"><path
         id="path638"
         d="M 402,204 H 557 V 360 H 402 Z" /></clipPath><clipPath
       id="clipPath646"
       clipPathUnits="userSpaceOnUse"><path
         id="path644"
         d="M 110.504,688.602 565.297,233.809 484.773,153.285 29.98,608.078 Z" /></clipPath><clipPath
       id="clipPath122"
       clipPathUnits="userSpaceOnUse"><path
         id="path120"
         d="m 481,91 h 26 v 10.746 h -26 z" /></clipPath><clipPath
       id="clipPath110"
       clipPathUnits="userSpaceOnUse"><path
         id="path108"
         d="m 474,91 h 7 v 10.746 h -7 z" /></clipPath><clipPath
       id="clipPath62"
       clipPathUnits="userSpaceOnUse"><path
         id="path60"
         d="m 452,60 h 26 v 10.785 h -26 z" /></clipPath><clipPath
       id="clipPath50"
       clipPathUnits="userSpaceOnUse"><path
         id="path48"
         d="m 446,60 h 7 v 10.785 h -7 z" /></clipPath></defs><g
     transform="matrix(1.3333333,0,0,1.3333333,-26.92046,-280.33953)"
     id="g10"><g
       id="g12" /><text
       y="210.25465"
       x="20.190346"
       id="text192"
       style="font-variant:normal;font-weight:normal;font-size:11.03999996px;font-family:TimesNewRomanPSMT;-inkscape-font-specification:TimesNewRomanPSMT;writing-mode:lr-tb;fill:#000000;fill-opacity:1;fill-rule:nonzero;stroke:none"><tspan
         y="210.25465"
         id="tspan186"
         x="20.190346"> </tspan><tspan
         y="224.05466"
         id="tspan188"
         x="20.190346"> </tspan><tspan
         id="tspan190"
         y="238.33467"
         x="96.030342 99.629387 107.0593 113.29691 118.33115 123.12251 125.9929 171.5881 178.32251 188.61179 194.8494 197.73083">IRFaci LWP a</tspan></text>
<g
       transform="translate(-7.5674486,-335.49022)"
       id="g194"><g
         clip-path="url(#clipPath200)"
         id="g196"><text
           id="text204"
           style="font-variant:normal;font-weight:normal;font-size:11.03999996px;font-family:TimesNewRomanPSMT;-inkscape-font-specification:TimesNewRomanPSMT;writing-mode:lr-tb;fill:#000000;fill-opacity:1;fill-rule:nonzero;stroke:none"
           transform="translate(210.39904,573.82488)"><tspan
             id="tspan202"
             y="0"
             x="0 5.2771201">dj</tspan></text>
</g></g><g
       transform="translate(-7.5674486,-335.49022)"
       id="g206"><text
         id="text210"
         style="font-variant:normal;font-weight:normal;font-size:11.03999996px;font-family:TimesNewRomanPSMT;-inkscape-font-specification:TimesNewRomanPSMT;writing-mode:lr-tb;fill:#000000;fill-opacity:1;fill-rule:nonzero;stroke:none"
         transform="translate(218.55539,573.82488)"><tspan
           id="tspan208"
           y="0"
           x="0 5.52 9.8145599 12.94992 21.340321 26.13168 31.4088 34.764961 50.121601 57.551521 60.421921 65.699043 71.461922 76.739037 79.620483 83.219521 87.06144 92.09568 96.875999 99.989281 102.85968 108.37968 113.6568 116.53824 121.57248">ustment Cloud fraction ad</tspan></text>
</g><g
       transform="translate(-7.5674486,-335.49022)"
       id="g212"><g
         clip-path="url(#clipPath218)"
         id="g214"><text
           id="text222"
           style="font-variant:normal;font-weight:normal;font-size:11.03999996px;font-family:TimesNewRomanPSMT;-inkscape-font-specification:TimesNewRomanPSMT;writing-mode:lr-tb;fill:#000000;fill-opacity:1;fill-rule:nonzero;stroke:none"
           transform="translate(345.51779,573.82488)"><tspan
             id="tspan220"
             y="0"
             x="0 2.8704">ju</tspan></text>
</g></g><g
       transform="translate(-7.5674486,-335.49022)"
       id="g224"><text
         id="text228"
         style="font-variant:normal;font-weight:normal;font-size:11.03999996px;font-family:TimesNewRomanPSMT;-inkscape-font-specification:TimesNewRomanPSMT;writing-mode:lr-tb;fill:#000000;fill-opacity:1;fill-rule:nonzero;stroke:none"
         transform="translate(353.91923,573.82488)"><tspan
           id="tspan226"
           y="0"
           x="0 4.29456 7.6728001 16.0632 20.854561 26.374559 29.719681 101.9544 109.38432 113.94384 117.77472 122.33424 126.408 131.19936 136.47649 141.51073 146.54495">stment Reference </tspan></text>
<path
         id="path230"
         style="fill:#000000;fill-opacity:1;fill-rule:nonzero;stroke:none"
         d="m 59.68,562.066 h 0.48 v 1.918 h -0.48 z" /><path
         id="path232"
         style="fill:#000000;fill-opacity:1;fill-rule:nonzero;stroke:none"
         d="m 59.68,562.066 h 0.48 v 0.477 h -0.48 z" /><path
         id="path234"
         style="fill:#000000;fill-opacity:1;fill-rule:nonzero;stroke:none"
         d="m 60.156,562.066 h 117.121 v 0.477 H 60.156 Z" /><path
         id="path236"
         style="fill:#000000;fill-opacity:1;fill-rule:nonzero;stroke:none"
         d="m 177.277,562.066 h 0.48 v 0.477 h -0.48 z" /><path
         id="path238"
         style="fill:#000000;fill-opacity:1;fill-rule:nonzero;stroke:none"
         d="m 177.758,562.066 h 77.52 v 0.477 h -77.52 z" /><path
         id="path240"
         style="fill:#000000;fill-opacity:1;fill-rule:nonzero;stroke:none"
         d="m 255.277,562.066 h 0.48 v 0.477 h -0.48 z" /><path
         id="path242"
         style="fill:#000000;fill-opacity:1;fill-rule:nonzero;stroke:none"
         d="m 255.758,562.066 h 141.359 v 0.477 H 255.758 Z" /><path
         id="path244"
         style="fill:#000000;fill-opacity:1;fill-rule:nonzero;stroke:none"
         d="m 397.117,562.066 h 0.48 v 0.477 h -0.48 z" /><path
         id="path246"
         style="fill:#000000;fill-opacity:1;fill-rule:nonzero;stroke:none"
         d="m 397.598,562.066 h 161.52 v 0.477 h -161.52 z" /><path
         id="path248"
         style="fill:#000000;fill-opacity:1;fill-rule:nonzero;stroke:none"
         d="m 559.117,562.066 h 0.48 v 1.918 h -0.48 z" /><path
         id="path250"
         style="fill:#000000;fill-opacity:1;fill-rule:nonzero;stroke:none"
         d="m 559.117,562.066 h 0.48 v 0.477 h -0.48 z" /><path
         id="path252"
         style="fill:#000000;fill-opacity:1;fill-rule:nonzero;stroke:none"
         d="m 59.68,563.984 h 0.48 v 13.922 h -0.48 z" /><path
         id="path254"
         style="fill:#000000;fill-opacity:1;fill-rule:nonzero;stroke:none"
         d="m 559.117,563.984 h 0.48 v 13.922 h -0.48 z" /><text
         id="text258"
         style="font-variant:normal;font-weight:normal;font-size:11.03999996px;font-family:TimesNewRomanPSMT;-inkscape-font-specification:TimesNewRomanPSMT;writing-mode:lr-tb;fill:#000000;fill-opacity:1;fill-rule:nonzero;stroke:none"
         transform="translate(99.037795,589.18488)"><tspan
           id="tspan256"
           y="0"
           x="0 5.52 11.04 13.92144 19.441441 25.425119 30.94512 33.826561 39.114719 110.63184 115.90896 119.02224 124.05648 220.32001 225.59712 228.7104 233.74464 299.49887 306.9288 311.72015 314.59058 317.70386 322.98096 328.74384 331.84607 337.1232 340.24753 344.79599 347.90927 350.79071 355.82495 358.69537 361.57681 364.45825 368.05728 373.57727 379.09729 384.61728 389.89441 394.9176 398.28479">–0.6±0.6 n/a n/a Bellouin et al. (2013a) </tspan></text>
<path
         id="path260"
         style="fill:#000000;fill-opacity:1;fill-rule:nonzero;stroke:none"
         d="m 59.68,577.906 h 0.48 v 1.438 h -0.48 z" /><path
         id="path262"
         style="fill:#000000;fill-opacity:1;fill-rule:nonzero;stroke:none"
         d="m 60.156,577.906 h 117.121 v 0.48 H 60.156 Z" /><path
         id="path264"
         style="fill:#000000;fill-opacity:1;fill-rule:nonzero;stroke:none"
         d="m 177.277,577.906 h 0.48 v 0.48 h -0.48 z" /><path
         id="path266"
         style="fill:#000000;fill-opacity:1;fill-rule:nonzero;stroke:none"
         d="m 177.758,577.906 h 77.52 v 0.48 h -77.52 z" /><path
         id="path268"
         style="fill:#000000;fill-opacity:1;fill-rule:nonzero;stroke:none"
         d="m 255.277,577.906 h 0.48 v 0.48 h -0.48 z" /><path
         id="path270"
         style="fill:#000000;fill-opacity:1;fill-rule:nonzero;stroke:none"
         d="m 255.758,577.906 h 141.359 v 0.48 H 255.758 Z" /><path
         id="path272"
         style="fill:#000000;fill-opacity:1;fill-rule:nonzero;stroke:none"
         d="m 397.117,577.906 h 0.48 v 0.48 h -0.48 z" /><path
         id="path274"
         style="fill:#000000;fill-opacity:1;fill-rule:nonzero;stroke:none"
         d="m 397.598,577.906 h 161.52 v 0.48 h -161.52 z" /><path
         id="path276"
         style="fill:#000000;fill-opacity:1;fill-rule:nonzero;stroke:none"
         d="m 559.117,577.906 h 0.48 v 1.438 h -0.48 z" /><path
         id="path278"
         style="fill:#000000;fill-opacity:1;fill-rule:nonzero;stroke:none"
         d="m 59.68,579.348 h 0.48 v 13.918 h -0.48 z" /><path
         id="path280"
         style="fill:#000000;fill-opacity:1;fill-rule:nonzero;stroke:none"
         d="m 559.117,579.348 h 0.48 v 13.918 h -0.48 z" /><text
         id="text284"
         style="font-variant:normal;font-weight:normal;font-size:11.03999996px;font-family:TimesNewRomanPSMT;-inkscape-font-specification:TimesNewRomanPSMT;writing-mode:lr-tb;fill:#000000;fill-opacity:1;fill-rule:nonzero;stroke:none"
         transform="translate(77.677795,604.54488)"><tspan
           id="tspan282"
           y="0"
           x="0 5.52 11.04 13.92144 19.441441 22.32288 25.921921 31.441919 36.71904 39.600479 45.12048 47.759041 50.861279 56.138401 59.03088 64.55088 70.070877 72.952316 78.472321 81.828484 131.99425 137.27136 140.3736 145.40784 241.67999 246.95712 250.07039 255.10463 320.85889 328.77457 332.61649 337.90463 342.19919 347.71921 352.53262 357.08112 361.15488 366.44302 369.54529 372.42673 376.98624 380.08847 382.96991 388.00415 390.87454 393.75598 396.63745 400.23648 405.75647 411.27649 416.79648 422.31647 425.91553">–0.4 [–0.2 to –1.0] n/a n/a Gryspeerdt et al. (2017) </tspan></text>
<path
         id="path286"
         style="fill:#000000;fill-opacity:1;fill-rule:nonzero;stroke:none"
         d="m 59.68,593.266 h 0.48 v 1.438 h -0.48 z" /><path
         id="path288"
         style="fill:#000000;fill-opacity:1;fill-rule:nonzero;stroke:none"
         d="m 559.117,593.266 h 0.48 v 1.438 h -0.48 z" /><path
         id="path290"
         style="fill:#000000;fill-opacity:1;fill-rule:nonzero;stroke:none"
         d="m 59.68,594.703 h 0.48 v 14.16 h -0.48 z" /><path
         id="path292"
         style="fill:#000000;fill-opacity:1;fill-rule:nonzero;stroke:none"
         d="m 559.117,594.703 h 0.48 v 14.16 h -0.48 z" /><text
         id="text296"
         style="font-variant:normal;font-weight:normal;font-size:11.03999996px;font-family:TimesNewRomanPSMT;-inkscape-font-specification:TimesNewRomanPSMT;writing-mode:lr-tb;fill:#000000;fill-opacity:1;fill-rule:nonzero;stroke:none"
         transform="translate(99.037795,620.14488)"><tspan
           id="tspan294"
           y="0"
           x="0 5.52 11.04 13.92144 19.441441 25.425119 30.94512 33.826561 39.114719 110.63184 115.90896 119.02224 124.05648 220.32001 225.59712 228.7104 233.74464 299.49887 309.31345 314.12689 321.55679">–1.0±0.4 n/a n/a McCo</tspan></text>
</g><g
       transform="translate(-7.5674486,-335.49022)"
       id="g298"><g
         clip-path="url(#clipPath304)"
         id="g300"><text
           id="text308"
           style="font-variant:normal;font-weight:normal;font-size:11.03999996px;font-family:TimesNewRomanPSMT;-inkscape-font-specification:TimesNewRomanPSMT;writing-mode:lr-tb;fill:#000000;fill-opacity:1;fill-rule:nonzero;stroke:none"
           transform="translate(425.91823,620.14488)"><tspan
             id="tspan306"
             y="0"
             x="0 5.2771201">y </tspan></text>
</g></g><g
       transform="translate(-7.5674486,-335.49022)"
       id="g310"><text
         id="text314"
         style="font-variant:normal;font-weight:normal;font-size:11.03999996px;font-family:TimesNewRomanPSMT;-inkscape-font-specification:TimesNewRomanPSMT;writing-mode:lr-tb;fill:#000000;fill-opacity:1;fill-rule:nonzero;stroke:none"
         transform="translate(434.31746,620.14488)"><tspan
           id="tspan312"
           y="0"
           x="0 4.54848 7.6617599 10.5432 15.57744 18.44784">et al.</tspan></text>
</g><g
       transform="translate(-7.5674486,-335.49022)"
       id="g316"><g
         clip-path="url(#clipPath322)"
         id="g318"><text
           id="text326"
           style="font-variant:normal;font-weight:normal;font-size:11.03999996px;font-family:TimesNewRomanPSMT;-inkscape-font-specification:TimesNewRomanPSMT;writing-mode:lr-tb;fill:#000000;fill-opacity:1;fill-rule:nonzero;stroke:none"
           transform="translate(458.5613,620.14488)"><tspan
             id="tspan324"
             y="0"
             x="0">(</tspan></text>
</g></g><g
       transform="translate(-7.5674486,-335.49022)"
       id="g328"><text
         id="text332"
         style="font-variant:normal;font-weight:normal;font-size:11.03999996px;font-family:TimesNewRomanPSMT;-inkscape-font-specification:TimesNewRomanPSMT;writing-mode:lr-tb;fill:#000000;fill-opacity:1;fill-rule:nonzero;stroke:none"
         transform="translate(462.16144,620.14488)"><tspan
           id="tspan330"
           y="0"
           x="0 5.52 11.04 16.559999 22.08">2017a</tspan></text>
</g><g
       transform="translate(-7.5674486,-335.49022)"
       id="g334"><g
         clip-path="url(#clipPath340)"
         id="g336"><text
           id="text344"
           style="font-variant:normal;font-weight:normal;font-size:11.03999996px;font-family:TimesNewRomanPSMT;-inkscape-font-specification:TimesNewRomanPSMT;writing-mode:lr-tb;fill:#000000;fill-opacity:1;fill-rule:nonzero;stroke:none"
           transform="translate(489.2812,620.14488)"><tspan
             id="tspan342"
             y="0"
             x="0 3.3561599">) </tspan></text>
</g></g><g
       transform="translate(-7.5674486,-335.49022)"
       id="g346"><path
         id="path348"
         style="fill:#000000;fill-opacity:1;fill-rule:nonzero;stroke:none"
         d="m 59.68,608.863 h 0.48 v 1.441 h -0.48 z" /><path
         id="path350"
         style="fill:#000000;fill-opacity:1;fill-rule:nonzero;stroke:none"
         d="m 559.117,608.863 h 0.48 v 1.441 h -0.48 z" /><path
         id="path352"
         style="fill:#000000;fill-opacity:1;fill-rule:nonzero;stroke:none"
         d="m 59.68,610.305 h 0.48 v 13.922 h -0.48 z" /><path
         id="path354"
         style="fill:#000000;fill-opacity:1;fill-rule:nonzero;stroke:none"
         d="m 559.117,610.305 h 0.48 v 13.922 h -0.48 z" /><text
         id="text358"
         style="font-variant:normal;font-weight:normal;font-size:11.03999996px;font-family:TimesNewRomanPSMT;-inkscape-font-specification:TimesNewRomanPSMT;writing-mode:lr-tb;fill:#000000;fill-opacity:1;fill-rule:nonzero;stroke:none"
         transform="translate(111.9978,635.50488)"><tspan
           id="tspan356"
           y="0"
           x="0 5.2771201 8.3903999 13.42464 97.659843 102.93696 106.05024 111.08448 173.28 178.8 184.31999 187.20143 192.72144 195.60287 199.20192 204.72192 209.99904 212.88048 218.40048 221.03903 224.14128 229.4184 232.31088 237.83087 243.35088 246.23232 251.75232 255.10847 286.55038 294.46606 298.30798 303.58511 307.87967 313.39969 318.2131 322.77264 326.84641 332.1235 335.23679 338.11823 342.66672 345.78 348.66144 353.69568 356.56607 359.44751 362.32895 365.92801 371.448 376.96799 382.48801 388.008 391.60703">n/a n/a –0.5 [–0.1 to –0.6] Gryspeerdt et al. (2016) </tspan></text>
<path
         id="path360"
         style="fill:#000000;fill-opacity:1;fill-rule:nonzero;stroke:none"
         d="m 59.68,624.227 h 0.48 v 1.438 h -0.48 z" /><path
         id="path362"
         style="fill:#000000;fill-opacity:1;fill-rule:nonzero;stroke:none"
         d="m 559.117,624.227 h 0.48 v 1.438 h -0.48 z" /><path
         id="path364"
         style="fill:#000000;fill-opacity:1;fill-rule:nonzero;stroke:none"
         d="m 59.68,625.664 h 0.48 v 14.16 h -0.48 z" /><path
         id="path366"
         style="fill:#000000;fill-opacity:1;fill-rule:nonzero;stroke:none"
         d="m 559.117,625.664 h 0.48 v 14.16 h -0.48 z" /><text
         id="text370"
         style="font-variant:normal;font-weight:normal;font-size:11.03999996px;font-family:TimesNewRomanPSMT;-inkscape-font-specification:TimesNewRomanPSMT;writing-mode:lr-tb;fill:#000000;fill-opacity:1;fill-rule:nonzero;stroke:none"
         transform="translate(111.9978,650.86488)"><tspan
           id="tspan368"
           y="0"
           x="0 5.2771201 8.3903999 13.42464 84.456001 90.671516 96.191521 99.095039 104.61504 107.2536 110.35584 115.644 118.52544 124.04544 207.36 212.63713 215.7504 220.78464 286.53888 294.45456">n/a +0.3 to 0 n/a Gr</tspan></text>
</g><g
       transform="translate(-7.5674486,-335.49022)"
       id="g372"><g
         clip-path="url(#clipPath378)"
         id="g374"><text
           id="text382"
           style="font-variant:normal;font-weight:normal;font-size:11.03999996px;font-family:TimesNewRomanPSMT;-inkscape-font-specification:TimesNewRomanPSMT;writing-mode:lr-tb;fill:#000000;fill-opacity:1;fill-rule:nonzero;stroke:none"
           transform="translate(410.3176,650.86488)"><tspan
             id="tspan380"
             y="0"
             x="0">y</tspan></text>
</g></g><g
       transform="translate(-7.5674486,-335.49022)"
       id="g384"><text
         id="text388"
         style="font-variant:normal;font-weight:normal;font-size:11.03999996px;font-family:TimesNewRomanPSMT;-inkscape-font-specification:TimesNewRomanPSMT;writing-mode:lr-tb;fill:#000000;fill-opacity:1;fill-rule:nonzero;stroke:none"
         transform="translate(415.59803,650.86488)"><tspan
           id="tspan386"
           y="0"
           x="0">s</tspan></text>
</g><g
       transform="translate(-7.5674486,-335.49022)"
       id="g390"><g
         clip-path="url(#clipPath396)"
         id="g392"><text
           id="text400"
           style="font-variant:normal;font-weight:normal;font-size:11.03999996px;font-family:TimesNewRomanPSMT;-inkscape-font-specification:TimesNewRomanPSMT;writing-mode:lr-tb;fill:#000000;fill-opacity:1;fill-rule:nonzero;stroke:none"
           transform="translate(419.91799,650.86488)"><tspan
             id="tspan398"
             y="0"
             x="0">p</tspan></text>
</g></g><g
       transform="translate(-7.5674486,-335.49022)"
       id="g402"><text
         id="text406"
         style="font-variant:normal;font-weight:normal;font-size:11.03999996px;font-family:TimesNewRomanPSMT;-inkscape-font-specification:TimesNewRomanPSMT;writing-mode:lr-tb;fill:#000000;fill-opacity:1;fill-rule:nonzero;stroke:none"
         transform="translate(425.43799,650.86488)"><tspan
           id="tspan404"
           y="0"
           x="0 4.7913599 9.3398399 13.42464 18.701759 21.815041 24.69648 29.244961 32.358238 35.239681 40.262878 43.133282 46.014721">eerdt et al. </tspan></text>
</g><g
       transform="translate(-7.5674486,-335.49022)"
       id="g408"><g
         clip-path="url(#clipPath414)"
         id="g410"><text
           id="text418"
           style="font-variant:normal;font-weight:normal;font-size:11.03999996px;font-family:TimesNewRomanPSMT;-inkscape-font-specification:TimesNewRomanPSMT;writing-mode:lr-tb;fill:#000000;fill-opacity:1;fill-rule:nonzero;stroke:none"
           transform="translate(474.39779,650.86488)"><tspan
             id="tspan416"
             y="0"
             x="0">(</tspan></text>
</g></g><g
       transform="translate(-7.5674486,-335.49022)"
       id="g420"><g
         clip-path="url(#clipPath426)"
         id="g422"><text
           id="text430"
           style="font-variant:normal;font-weight:normal;font-size:11.03999996px;font-family:TimesNewRomanPSMT;-inkscape-font-specification:TimesNewRomanPSMT;writing-mode:lr-tb;fill:#000000;fill-opacity:1;fill-rule:nonzero;stroke:none"
           transform="translate(477.99779,650.86488)"><tspan
             id="tspan428"
             y="0"
             x="0 5.52 11.04 16.559999 22.08 25.679041">2019) </tspan></text>
</g></g><g
       transform="translate(-7.5674486,-335.49022)"
       id="g432"><path
         id="path434"
         style="fill:#000000;fill-opacity:1;fill-rule:nonzero;stroke:none"
         d="m 59.68,639.824 h 0.48 v 1.441 h -0.48 z" /><path
         id="path436"
         style="fill:#000000;fill-opacity:1;fill-rule:nonzero;stroke:none"
         d="m 559.117,639.824 h 0.48 v 1.441 h -0.48 z" /><path
         id="path438"
         style="fill:#000000;fill-opacity:1;fill-rule:nonzero;stroke:none"
         d="m 59.68,641.266 h 0.48 v 13.918 h -0.48 z" /><path
         id="path440"
         style="fill:#000000;fill-opacity:1;fill-rule:nonzero;stroke:none"
         d="m 559.117,641.266 h 0.48 v 13.918 h -0.48 z" /><text
         id="text444"
         style="font-variant:normal;font-weight:normal;font-size:11.03999996px;font-family:TimesNewRomanPSMT;-inkscape-font-specification:TimesNewRomanPSMT;writing-mode:lr-tb;fill:#000000;fill-opacity:1;fill-rule:nonzero;stroke:none"
         transform="translate(99.037795,666.46488)"><tspan
           id="tspan442"
           y="0"
           x="0 5.52 11.04 13.92144 19.441441 25.425119 30.94512 33.826561 39.114719 110.63184 115.90896 119.02224 124.05648 220.32001 225.59712 228.7104 233.74464 299.49887 306.9288 311.72015 320.11057 325.3877 328.51199 333.06049 336.17377 339.05521 344.08945 346.95984 349.84128 352.72272 356.32178 361.84177 367.36176 372.88177 378.40176 381.98978">–0.8±0.7 n/a n/a Rémy et al. (2018) </tspan></text>
<path
         id="path446"
         style="fill:#000000;fill-opacity:1;fill-rule:nonzero;stroke:none"
         d="m 59.68,655.184 h 0.48 v 1.441 h -0.48 z" /><path
         id="path448"
         style="fill:#000000;fill-opacity:1;fill-rule:nonzero;stroke:none"
         d="m 559.117,655.184 h 0.48 v 1.441 h -0.48 z" /><path
         id="path450"
         style="fill:#000000;fill-opacity:1;fill-rule:nonzero;stroke:none"
         d="m 59.68,656.625 h 0.48 v 13.918 h -0.48 z" /><path
         id="path452"
         style="fill:#000000;fill-opacity:1;fill-rule:nonzero;stroke:none"
         d="m 559.117,656.625 h 0.48 v 13.918 h -0.48 z" /><text
         id="text486"
         style="font-variant:normal;font-weight:normal;font-size:11.03999996px;font-family:TimesNewRomanPSMT;-inkscape-font-specification:TimesNewRomanPSMT;writing-mode:lr-tb;fill:#000000;fill-opacity:1;fill-rule:nonzero;stroke:none"
         transform="translate(106.2378,681.82488)"><tspan
           id="tspan454"
           y="0"
           x="0 5.52 11.04 13.92144 19.441441 24.718559">–0.53 </tspan><tspan
           id="tspan456"
           y="12.720001"
           x="-36.720001 -31.200001 -25.68 -22.798561 -17.278561 -11.75856 -8.87712 -5.2780805 0.24191952 5.5190396 8.4004793 13.92048 19.197599 22.079039 25.19232 30.46944 33.35088 38.87088 44.390881 47.26128 52.781281 58.301281 61.66848">–1.14 [–1.72 to –0.84] </tspan><tspan
           id="tspan458"
           y="25.438082"
           x="-12.961921 -7.4419203 -1.9219205 0.95951951 6.4795194 9.1180792 12.231359 17.50848 20.389919 23.98896 29.508959 32.3904 37.667519">–1.2 to -0.6 </tspan><tspan
           id="tspan460"
           y="37.91328"
           x="-36.720001 -31.200001 -25.68 -22.798561 -17.278561 -11.75856 -8.87712 -5.2780805 0.24191952 5.5190396 8.4004793 13.92048 19.197599 22.079039 25.19232 30.46944 33.35088 38.87088 44.390881 47.26128 52.781281 58.301281 61.66848">–0.69 [–0.99 to –0.44] </tspan><tspan
           id="tspan462"
           y="4.9027449e-15"
           x="97.440002 103.65552 109.17552 112.068 117.588 122.86512">+0.15 </tspan><tspan
           id="tspan464"
           y="12.720001"
           x="103.43999 108.71712 111.8304 116.8536">n/a </tspan><tspan
           id="tspan466"
           y="25.438082"
           x="103.43999 108.71712 111.8304 116.8536">n/a </tspan><tspan
           id="tspan468"
           y="37.91328"
           x="103.43999 108.71712 111.8304 116.8536">n/a </tspan><tspan
           id="tspan470"
           y="4.9027449e-15"
           x="213.12 218.39713 221.51041 226.54465">n/a </tspan><tspan
           id="tspan472"
           y="12.720001"
           x="213.12 218.39713 221.51041 226.5336">n/a </tspan><tspan
           id="tspan474"
           y="25.438082"
           x="213.12 218.39713 221.51041 226.5336">n/a </tspan><tspan
           id="tspan476"
           y="37.91328"
           x="213.12 218.39713 221.51041 226.5336">n/a </tspan><tspan
           id="tspan478"
           y="4.9027449e-15"
           x="292.32001 299.27521 304.55231 307.42273 310.29312 313.4064 317.96591 321.07919 323.96063 328.98386 331.85425 334.73569 337.61713 341.21616 346.73618 352.25616 357.77615 363.29617 366.8952">Toll et al. (2019) </tspan><tspan
           id="tspan480"
           y="12.720001"
           x="292.32001 300.23569 305.26993 309.56448 314.37793 319.65503 324.93216 333.07968 338.59967 341.48111 346.0296 349.14288 352.02432 357.05856 359.92896 362.81039 365.69183 369.29089 374.81088 380.33087 385.85089 391.37088 394.95889">Hasekamp et al. (2019) </tspan><tspan
           id="tspan482"
           y="25.438082"
           x="292.32001 302.13455 306.948 314.37793 319.65503 324.93216 328.05649 332.60495 335.71823 338.59967 343.63391 346.50433 349.38577 352.26721 355.86624 361.38623 366.90625 372.42624 377.94623 381.54529">McCoy et al. (2020) </tspan><tspan
           id="tspan484"
           y="37.91328"
           x="292.32001 300.23569 303.10608 308.38321 316.77359 322.29361 327.8136 333.09073 335.97217 340.52063 343.63391 346.51535 351.54959 354.42001 357.30145 360.18289 363.78192 369.30191 374.82193 380.34192 385.86191 389.44992">Diamond et al. (2020) </tspan></text>
<path
         id="path488"
         style="fill:#000000;fill-opacity:1;fill-rule:nonzero;stroke:none"
         d="m 59.68,670.543 h 0.48 v 1.441 h -0.48 z" /><path
         id="path490"
         style="fill:#000000;fill-opacity:1;fill-rule:nonzero;stroke:none"
         d="m 559.117,670.543 h 0.48 v 1.441 h -0.48 z" /><path
         id="path492"
         style="fill:#000000;fill-opacity:1;fill-rule:nonzero;stroke:none"
         d="m 59.68,671.984 h 0.48 v 64.559 h -0.48 z" /><path
         id="path494"
         style="fill:#000000;fill-opacity:1;fill-rule:nonzero;stroke:none"
         d="m 559.117,671.984 h 0.48 v 64.559 h -0.48 z" /><text
         id="text498"
         style="font-variant:normal;font-weight:normal;font-size:11.03999996px;font-family:TimesNewRomanPSMT;-inkscape-font-specification:TimesNewRomanPSMT;writing-mode:lr-tb;fill:#000000;fill-opacity:1;fill-rule:nonzero;stroke:none"
         transform="translate(117.5178,747.82488)"><tspan
           id="tspan496"
           y="0"
           x="0 5.0342398 7.9046402 13.18176 16.29504 20.136959 23.25024 28.527361 32.821918 35.968319 40.759682 43.641121 47.240162 52.517281 56.3592 61.150558 64.26384">“intrinsic forcin</tspan></text>
</g><g
       transform="translate(-7.5674486,-335.49022)"
       id="g500"><g
         clip-path="url(#clipPath506)"
         id="g502"><text
           id="text510"
           style="font-variant:normal;font-weight:normal;font-size:11.03999996px;font-family:TimesNewRomanPSMT;-inkscape-font-specification:TimesNewRomanPSMT;writing-mode:lr-tb;fill:#000000;fill-opacity:1;fill-rule:nonzero;stroke:none"
           transform="translate(187.3756,747.82488)"><tspan
             id="tspan508"
             y="0"
             x="0">g</tspan></text>
</g></g><g
       transform="translate(-7.5674486,-335.49022)"
       id="g512"><text
         id="text516"
         style="font-variant:normal;font-weight:normal;font-size:11.03999996px;font-family:TimesNewRomanPSMT;-inkscape-font-specification:TimesNewRomanPSMT;writing-mode:lr-tb;fill:#000000;fill-opacity:1;fill-rule:nonzero;stroke:none"
         transform="translate(192.8956,747.82488)"><tspan
           id="tspan514"
           y="0"
           x="0 4.7913599">” </tspan></text>
<path
         id="path518"
         style="fill:#000000;fill-opacity:1;fill-rule:nonzero;stroke:none"
         d="m 59.68,736.543 h 0.48 v 1.441 h -0.48 z" /><path
         id="path520"
         style="fill:#000000;fill-opacity:1;fill-rule:nonzero;stroke:none"
         d="m 559.117,736.543 h 0.48 v 1.441 h -0.48 z" /><path
         id="path522"
         style="fill:#000000;fill-opacity:1;fill-rule:nonzero;stroke:none"
         d="m 59.68,737.984 h 0.48 v 14.16 h -0.48 z" /><path
         id="path524"
         style="fill:#000000;fill-opacity:1;fill-rule:nonzero;stroke:none"
         d="m 59.68,752.145 h 0.48 v 0.48 h -0.48 z" /><path
         id="path526"
         style="fill:#000000;fill-opacity:1;fill-rule:nonzero;stroke:none"
         d="m 59.68,752.145 h 0.48 v 0.48 h -0.48 z" /><path
         id="path528"
         style="fill:#000000;fill-opacity:1;fill-rule:nonzero;stroke:none"
         d="m 60.156,752.145 h 195.121 v 0.48 H 60.156 Z" /><path
         id="path530"
         style="fill:#000000;fill-opacity:1;fill-rule:nonzero;stroke:none"
         d="m 254.559,752.145 h 0.48 v 0.48 h -0.48 z" /><path
         id="path532"
         style="fill:#000000;fill-opacity:1;fill-rule:nonzero;stroke:none"
         d="m 255.039,752.145 h 142.078 v 0.48 H 255.039 Z" /><path
         id="path534"
         style="fill:#000000;fill-opacity:1;fill-rule:nonzero;stroke:none"
         d="m 396.398,752.145 h 0.48 v 0.48 h -0.48 z" /><path
         id="path536"
         style="fill:#000000;fill-opacity:1;fill-rule:nonzero;stroke:none"
         d="m 396.879,752.145 h 162.238 v 0.48 H 396.879 Z" /><path
         id="path538"
         style="fill:#000000;fill-opacity:1;fill-rule:nonzero;stroke:none"
         d="m 559.117,737.984 h 0.48 v 14.16 h -0.48 z" /><path
         id="path540"
         style="fill:#000000;fill-opacity:1;fill-rule:nonzero;stroke:none"
         d="m 559.117,752.145 h 0.48 v 0.48 h -0.48 z" /><path
         id="path542"
         style="fill:#000000;fill-opacity:1;fill-rule:nonzero;stroke:none"
         d="m 559.117,752.145 h 0.48 v 0.48 h -0.48 z" /></g><text
       y="428.41464"
       x="127.67627"
       id="text42"
       style="font-variant:normal;font-weight:normal;font-size:11.03999996px;font-family:TimesNewRomanPSMT;-inkscape-font-specification:TimesNewRomanPSMT;writing-mode:lr-tb;fill:#000000;fill-opacity:1;fill-rule:nonzero;stroke:none;stroke-width:0.99999994"><tspan
         id="tspan40"
         y="428.41464"
         x="127.67627 133.19627 138.71628 141.59772 147.11771 149.99915 155.75099 158.63243 164.15242 167.02281 172.31097 296.15628 301.67627 307.19626 310.07773 315.59772 318.47916 324.23102 327.11246 332.63245 335.50284 340.79102 390.94571 398.37564 403.89563 408.68698 413.96411 417.08844 421.6369 424.75018 427.63162 432.65485 435.53629"
         style="stroke-width:0.99999994">–0.5 ± 0.5 –0.5 ± 0.5 Chen et al.</tspan></text>
<g
       id="g44"
       transform="translate(-7.6015326,360.50978)"><g
         clip-path="url(#clipPath50)"
         id="g46"><text
           id="text54"
           style="font-variant:normal;font-weight:normal;font-size:11.03999996px;font-family:TimesNewRomanPSMT;-inkscape-font-specification:TimesNewRomanPSMT;writing-mode:lr-tb;fill:#000000;fill-opacity:1;fill-rule:nonzero;stroke:none"
           transform="translate(448.96091,67.904882)"><tspan
             id="tspan52"
             y="0"
             x="0">(</tspan></text>
</g></g><g
       id="g56"
       transform="translate(-7.6015326,360.50978)"><g
         clip-path="url(#clipPath62)"
         id="g58"><text
           id="text66"
           style="font-variant:normal;font-weight:normal;font-size:11.03999996px;font-family:TimesNewRomanPSMT;-inkscape-font-specification:TimesNewRomanPSMT;writing-mode:lr-tb;fill:#000000;fill-opacity:1;fill-rule:nonzero;stroke:none"
           transform="translate(452.56106,67.904882)"><tspan
             id="tspan64"
             y="0"
             x="0 5.52 11.04 16.559999 22.08 25.436159">2014)</tspan></text>
</g></g><g
       id="g68"
       transform="translate(-7.6015326,360.50978)"><path
         id="path70"
         style="fill:#000000;fill-opacity:1;fill-rule:nonzero;stroke:none"
         d="m 59.68,56.625 h 0.48 v 1.441 h -0.48 z" /><path
         id="path72"
         style="fill:#000000;fill-opacity:1;fill-rule:nonzero;stroke:none"
         d="m 559.117,56.625 h 0.48 v 1.441 h -0.48 z" /><path
         id="path74"
         style="fill:#000000;fill-opacity:1;fill-rule:nonzero;stroke:none"
         d="m 59.68,58.066 h 0.48 v 14.16 h -0.48 z" /><path
         id="path76"
         style="fill:#000000;fill-opacity:1;fill-rule:nonzero;stroke:none"
         d="m 559.117,58.066 h 0.48 v 14.16 h -0.48 z" /><text
         id="text80"
         style="font-variant:normal;font-weight:normal;font-size:11.03999996px;font-family:TimesNewRomanPSMT;-inkscape-font-specification:TimesNewRomanPSMT;writing-mode:lr-tb;fill:#000000;fill-opacity:1;fill-rule:nonzero;stroke:none"
         transform="translate(135.27779,83.264882)"><tspan
           id="tspan78"
           y="0"
           x="0 5.52 11.04 13.92144 19.441441 22.32288 28.07472 30.95616 36.476158 39.346561 44.63472 184.08 189.35712 192.4704 197.50464 263.25888 270.68881 275.96591 279.80783 282.67825 286.97281 290.10815 294.89951 300.17664 304.73615 309.52753 314.80463 317.91791 322.47745 325.57968 328.46112 333.49536 336.36575 339.24719 342.12863 345.72769 351.24768 356.76767 362.28769 367.80768 373.32767 376.69489">–0.4 ± 0.3 n/a Christensen et al. (2016b)</tspan></text>
<path
         id="path82"
         style="fill:#000000;fill-opacity:1;fill-rule:nonzero;stroke:none"
         d="m 59.68,72.227 h 0.48 v 1.438 h -0.48 z" /><path
         id="path84"
         style="fill:#000000;fill-opacity:1;fill-rule:nonzero;stroke:none"
         d="m 60.156,72.227 h 195.121 v 0.477 H 60.156 Z" /><path
         id="path86"
         style="fill:#000000;fill-opacity:1;fill-rule:nonzero;stroke:none"
         d="m 255.277,72.227 h 0.48 v 0.477 h -0.48 z" /><path
         id="path88"
         style="fill:#000000;fill-opacity:1;fill-rule:nonzero;stroke:none"
         d="m 255.758,72.227 h 141.359 v 0.477 H 255.758 Z" /><path
         id="path90"
         style="fill:#000000;fill-opacity:1;fill-rule:nonzero;stroke:none"
         d="m 397.117,72.227 h 0.48 v 0.477 h -0.48 z" /><path
         id="path92"
         style="fill:#000000;fill-opacity:1;fill-rule:nonzero;stroke:none"
         d="m 397.598,72.227 h 161.52 v 0.477 h -161.52 z" /><path
         id="path94"
         style="fill:#000000;fill-opacity:1;fill-rule:nonzero;stroke:none"
         d="m 559.117,72.227 h 0.48 v 1.438 h -0.48 z" /><path
         id="path96"
         style="fill:#000000;fill-opacity:1;fill-rule:nonzero;stroke:none"
         d="m 59.68,73.664 h 0.48 v 13.922 h -0.48 z" /><path
         id="path98"
         style="fill:#000000;fill-opacity:1;fill-rule:nonzero;stroke:none"
         d="m 559.117,73.664 h 0.48 v 13.922 h -0.48 z" /><text
         id="text102"
         style="font-variant:normal;font-weight:normal;font-size:11.03999996px;font-family:TimesNewRomanPSMT;-inkscape-font-specification:TimesNewRomanPSMT;writing-mode:lr-tb;fill:#000000;fill-opacity:1;fill-rule:nonzero;stroke:none"
         transform="translate(135.27779,98.864882)"><tspan
           id="tspan100"
           y="0"
           x="0 5.52 11.04 13.92144 19.441441 22.32288 28.07472 30.95616 36.476158 39.346561 44.63472 168.48001 174 179.52 182.40144 187.92145 190.80289 196.55472 199.43616 204.95616 207.82657 213.11473 263.26944 270.69937 275.97647 279.81839 282.68881 286.98337 290.11871 294.9101 300.18719 304.74673 309.53809 314.81522 317.93951 322.48801 325.60129 328.48273 333.51697 336.38736">–0.3 ± 0.4 –0.4 ± 0.5 Christensen et al.</tspan></text>
</g><g
       id="g104"
       transform="translate(-7.6015326,360.50978)"><g
         clip-path="url(#clipPath110)"
         id="g106"><text
           id="text114"
           style="font-variant:normal;font-weight:normal;font-size:11.03999996px;font-family:TimesNewRomanPSMT;-inkscape-font-specification:TimesNewRomanPSMT;writing-mode:lr-tb;fill:#000000;fill-opacity:1;fill-rule:nonzero;stroke:none"
           transform="translate(477.52139,98.864882)"><tspan
             id="tspan112"
             y="0"
             x="0">(</tspan></text>
</g></g><g
       id="g116"
       transform="translate(-7.6015326,360.50978)"><g
         clip-path="url(#clipPath122)"
         id="g118"><text
           id="text126"
           style="font-variant:normal;font-weight:normal;font-size:11.03999996px;font-family:TimesNewRomanPSMT;-inkscape-font-specification:TimesNewRomanPSMT;writing-mode:lr-tb;fill:#000000;fill-opacity:1;fill-rule:nonzero;stroke:none"
           transform="translate(481.12154,98.864882)"><tspan
             id="tspan124"
             y="0"
             x="0 5.52 11.04 16.559999 22.08 25.679041">2017)</tspan></text>
</g></g><path
       d="m 52.078467,448.09578 h 0.48 v 1.438 h -0.48 z"
       style="fill:#000000;fill-opacity:1;fill-rule:nonzero;stroke:none;stroke-width:0.99999994"
       id="path130" /><path
       d="M 52.554467,448.09578 H 247.67547 v 0.48 H 52.554467 Z"
       style="fill:#000000;fill-opacity:1;fill-rule:nonzero;stroke:none;stroke-width:0.99999994"
       id="path132" /><path
       d="m 247.67547,448.09578 h 0.48 v 0.48 h -0.48 z"
       style="fill:#000000;fill-opacity:1;fill-rule:nonzero;stroke:none;stroke-width:0.99999994"
       id="path134" /><path
       d="m 248.15647,448.09578 h 141.359 v 0.48 h -141.359 z"
       style="fill:#000000;fill-opacity:1;fill-rule:nonzero;stroke:none;stroke-width:0.99999994"
       id="path136" /><path
       d="m 389.51547,448.09578 h 0.48 v 0.48 h -0.48 z"
       style="fill:#000000;fill-opacity:1;fill-rule:nonzero;stroke:none;stroke-width:0.99999994"
       id="path138" /><path
       d="m 389.99647,448.09578 h 161.52 v 0.48 h -161.52 z"
       style="fill:#000000;fill-opacity:1;fill-rule:nonzero;stroke:none;stroke-width:0.99999994"
       id="path140" /><path
       d="m 551.51547,448.09578 h 0.48 v 1.438 h -0.48 z"
       style="fill:#000000;fill-opacity:1;fill-rule:nonzero;stroke:none;stroke-width:0.99999994"
       id="path142" /><path
       d="m 52.078467,449.53678 h 0.48 v 13.918 h -0.48 z"
       style="fill:#000000;fill-opacity:1;fill-rule:nonzero;stroke:none;stroke-width:0.99999994"
       id="path144" /><path
       d="m 52.078467,463.45478 h 0.48 v 0.48 h -0.48 z"
       style="fill:#000000;fill-opacity:1;fill-rule:nonzero;stroke:none;stroke-width:0.99999994"
       id="path146" /><path
       d="m 52.078467,463.45478 h 0.48 v 0.48 h -0.48 z"
       style="fill:#000000;fill-opacity:1;fill-rule:nonzero;stroke:none;stroke-width:0.99999994"
       id="path148" /><path
       d="M 52.554467,463.45478 H 247.67547 v 0.48 H 52.554467 Z"
       style="fill:#000000;fill-opacity:1;fill-rule:nonzero;stroke:none;stroke-width:0.99999994"
       id="path150" /><path
       d="m 246.95747,463.45478 h 0.48 v 0.48 h -0.48 z"
       style="fill:#000000;fill-opacity:1;fill-rule:nonzero;stroke:none;stroke-width:0.99999994"
       id="path152" /><path
       d="m 247.43747,463.45478 h 142.078 v 0.48 h -142.078 z"
       style="fill:#000000;fill-opacity:1;fill-rule:nonzero;stroke:none;stroke-width:0.99999994"
       id="path154" /><path
       d="m 388.79647,463.45478 h 0.48 v 0.48 h -0.48 z"
       style="fill:#000000;fill-opacity:1;fill-rule:nonzero;stroke:none;stroke-width:0.99999994"
       id="path156" /><path
       d="m 389.27747,463.45478 h 162.238 v 0.48 h -162.238 z"
       style="fill:#000000;fill-opacity:1;fill-rule:nonzero;stroke:none;stroke-width:0.99999994"
       id="path158" /><path
       d="m 551.51547,449.53678 h 0.48 v 13.918 h -0.48 z"
       style="fill:#000000;fill-opacity:1;fill-rule:nonzero;stroke:none;stroke-width:0.99999994"
       id="path160" /><path
       d="m 551.51547,463.45478 h 0.48 v 0.48 h -0.48 z"
       style="fill:#000000;fill-opacity:1;fill-rule:nonzero;stroke:none;stroke-width:0.99999994"
       id="path162" /><path
       d="m 551.51547,463.45478 h 0.48 v 0.48 h -0.48 z"
       style="fill:#000000;fill-opacity:1;fill-rule:nonzero;stroke:none;stroke-width:0.99999994"
       id="path164" /></g></svg>